{"glyphs":{"0":{"ha":815,"x_min":113,"x_max":724,"o":"m 485 975 q 708 856 654 975 q 724 476 761 738 q 603 99 688 215 q 353 -17 519 -17 q 129 102 183 -17 q 113 482 75 221 q 233 859 149 743 q 485 975 317 975 m 485 924 q 273 819 343 924 q 168 476 203 715 q 176 138 136 240 q 351 35 215 35 q 563 140 492 35 q 668 482 635 244 q 661 821 701 718 q 485 924 621 924 z "},"1":{"ha":526,"x_min":106,"x_max":433,"o":"m 299 0 l 242 0 l 360 835 q 374 904 363 857 l 108 818 l 106 858 l 376 958 l 433 958 l 299 0 z "},"2":{"ha":764,"x_min":24,"x_max":701,"o":"m 168 894 l 161 938 q 442 975 321 975 q 653 935 589 975 q 701 776 717 894 q 635 603 689 685 q 465 407 582 522 l 106 51 q 264 53 158 53 l 640 53 l 633 0 l 24 0 l 28 36 q 40 63 33 56 l 411 429 q 580 625 525 542 q 643 790 635 708 q 604 899 651 875 q 446 924 557 924 q 168 894 317 924 z "},"3":{"ha":758,"x_min":26,"x_max":682,"o":"m 178 908 l 171 951 q 424 975 313 975 q 641 925 583 975 q 682 751 699 875 q 501 511 654 539 l 500 506 q 623 426 589 492 q 642 264 657 360 q 541 69 624 147 q 299 -17 458 -8 q 26 7 164 -24 l 38 50 q 292 35 169 28 q 586 274 550 51 q 392 483 619 483 l 211 485 l 217 528 l 394 531 q 626 749 600 535 q 596 888 639 851 q 417 924 553 924 q 178 908 297 924 z "},"4":{"ha":826,"x_min":63,"x_max":744,"o":"m 738 269 l 621 264 l 583 0 l 528 0 l 565 263 l 132 263 q 63 302 82 263 q 72 385 43 342 l 449 958 l 511 958 l 128 375 q 119 330 111 349 q 154 311 126 311 l 572 311 l 615 615 l 650 776 l 693 776 l 628 311 l 744 311 l 738 269 z "},"5":{"ha":732,"x_min":35,"x_max":693,"o":"m 685 908 l 260 908 l 196 568 l 278 567 q 444 553 381 565 q 557 512 508 542 q 622 426 606 482 q 626 282 638 369 q 611 208 622 243 q 575 132 600 174 q 514 60 550 90 q 417 8 478 31 q 281 -17 357 -14 q 35 21 158 -21 l 46 65 q 271 33 161 29 q 490 114 421 40 q 571 289 558 188 q 569 392 579 351 q 537 458 560 433 q 462 497 514 483 q 354 513 410 510 q 204 518 299 517 l 167 519 q 147 530 154 521 q 142 551 139 539 l 218 958 l 693 958 l 685 908 z "},"6":{"ha":783,"x_min":96,"x_max":711,"o":"m 711 957 l 699 915 q 539 925 636 925 q 399 909 453 925 q 299 844 346 893 q 224 705 253 796 q 172 465 194 614 q 461 615 282 608 q 655 549 603 622 q 682 300 707 475 q 585 64 661 144 q 358 -17 508 -17 q 162 37 224 -17 q 96 199 100 90 q 115 471 92 307 q 174 734 139 633 q 263 888 208 835 q 379 958 318 940 q 536 975 440 975 q 711 957 632 975 m 453 568 q 308 531 372 564 q 164 410 243 497 q 150 196 144 279 q 204 73 156 113 q 360 33 253 33 q 545 103 482 33 q 626 308 608 174 q 610 513 647 451 q 453 568 574 574 z "},"7":{"ha":697,"x_min":129,"x_max":699,"o":"m 132 958 l 660 958 q 699 893 731 958 l 267 0 l 207 0 l 619 853 q 651 908 635 883 l 129 908 l 132 958 z "},"8":{"ha":847,"x_min":89,"x_max":758,"o":"m 281 496 l 283 501 q 176 722 147 518 q 265 914 196 857 q 499 971 333 971 q 723 912 669 971 q 758 717 776 853 q 705 561 744 614 q 592 500 665 508 l 589 494 q 701 422 674 485 q 711 236 728 360 q 622 43 692 97 q 369 -12 551 -11 q 130 44 190 -14 q 89 242 69 103 q 149 426 106 365 q 281 496 193 486 m 497 921 q 301 876 356 921 q 231 714 247 832 q 253 556 213 592 q 440 521 293 521 q 637 558 588 521 q 704 719 686 596 q 681 878 721 836 q 497 921 640 921 m 436 474 q 220 431 275 472 q 144 242 165 389 q 174 83 128 126 q 371 39 221 39 q 582 85 524 39 q 657 249 640 131 q 635 433 678 393 q 436 474 593 474 z "},"9":{"ha":785,"x_min":75,"x_max":690,"o":"m 75 1 l 89 43 q 256 33 160 33 q 449 69 382 35 q 558 199 515 103 q 633 493 601 296 l 635 496 q 503 381 571 415 q 347 343 436 346 q 151 415 203 338 q 125 658 100 492 q 224 897 147 818 q 457 975 300 975 q 687 864 640 975 q 690 488 733 753 q 643 269 669 357 q 585 124 617 182 q 505 36 553 67 q 403 -6 457 6 q 268 -17 349 -17 q 75 1 160 -17 m 354 390 q 501 428 436 393 q 643 550 565 464 q 635 839 672 753 q 454 925 597 925 q 262 858 322 925 q 179 650 201 792 q 200 444 158 503 q 354 390 242 386 z "}," ":{"ha":317,"x_min":0,"x_max":0,"o":""},"!":{"ha":357,"x_min":92,"x_max":285,"o":"m 219 504 l 185 285 l 139 285 l 164 504 l 229 965 l 285 965 l 219 504 m 131 131 l 150 131 q 169 106 174 131 l 158 22 q 133 0 154 0 l 114 0 q 92 25 89 0 l 104 108 q 131 131 108 131 z "},"\"":{"ha":457,"x_min":151,"x_max":421,"o":"m 193 667 l 151 667 l 189 958 l 239 958 l 193 667 m 376 667 l 335 667 l 371 958 l 421 958 l 376 667 z "},"#":{"ha":926,"x_min":61,"x_max":892,"o":"m 725 644 l 633 354 l 786 354 l 774 311 l 621 311 l 522 0 l 475 0 l 572 311 l 272 311 l 174 0 l 126 0 l 224 311 l 61 311 l 75 354 l 238 354 l 329 644 l 167 644 l 181 688 l 342 688 l 428 958 l 475 958 l 390 688 l 690 688 l 776 958 l 824 958 l 739 688 l 892 688 l 878 644 l 725 644 m 678 644 l 376 644 l 285 354 l 586 354 l 678 644 z "},"$":{"ha":782,"x_min":54,"x_max":729,"o":"m 729 954 l 721 913 q 514 921 592 921 l 432 503 l 513 469 q 653 371 619 425 q 672 211 686 317 q 642 110 663 151 q 596 43 622 68 q 525 6 569 18 q 437 -11 481 -7 q 325 -15 393 -15 l 292 -185 l 254 -185 l 289 -15 q 54 3 157 -12 l 61 46 q 299 36 201 36 l 383 461 l 292 499 q 158 597 192 540 q 138 753 125 654 q 167 856 146 814 q 213 922 188 899 q 282 957 239 944 q 365 972 325 969 q 464 974 404 975 l 488 974 l 515 1115 l 553 1115 l 525 972 q 729 954 636 968 m 478 922 l 444 922 q 383 921 404 922 q 329 915 361 919 q 280 899 297 910 q 243 869 263 888 q 213 819 224 850 q 196 744 201 788 q 210 626 188 667 q 308 553 232 585 l 397 517 l 478 922 m 336 36 l 339 36 q 451 44 410 38 q 530 68 493 50 q 585 122 567 86 q 614 218 604 158 q 601 342 625 303 q 496 415 578 381 l 418 447 l 336 36 z "},"%":{"ha":1225,"x_min":117,"x_max":1129,"o":"m 364 975 q 522 908 482 975 q 540 689 561 840 q 463 474 519 539 q 293 408 407 408 q 135 476 175 408 q 117 694 96 544 q 192 910 138 844 q 364 975 247 975 m 250 0 l 201 0 l 990 958 l 1039 958 l 250 0 m 367 936 q 225 880 268 936 q 163 689 182 824 q 172 503 144 558 q 289 447 200 447 q 431 504 386 447 q 494 694 476 561 q 485 882 511 828 q 367 936 458 936 m 954 557 q 1112 489 1072 557 q 1129 269 1151 421 q 1052 55 1108 121 q 882 -11 996 -11 q 725 57 764 -11 q 707 276 686 125 q 783 492 728 426 q 954 557 838 557 m 957 518 q 814 462 857 518 q 753 269 771 406 q 762 83 735 139 q 879 28 789 28 q 1022 85 976 28 q 1083 276 1067 143 q 1075 464 1101 410 q 957 518 1049 518 z "},"&":{"ha":1086,"x_min":74,"x_max":1032,"o":"m 1021 474 l 832 474 q 739 206 807 318 q 569 38 668 88 q 333 -15 471 -12 q 112 38 174 -19 q 74 246 50 96 q 159 431 93 369 q 344 494 225 492 l 344 500 q 208 564 243 507 q 192 726 174 621 q 294 921 217 871 q 536 971 371 971 q 757 939 656 971 l 747 897 q 535 921 649 921 q 331 881 392 921 q 249 719 269 842 q 278 561 228 603 q 471 519 329 519 l 786 519 q 794 724 797 614 l 847 724 q 838 519 849 622 l 1032 519 l 1021 474 m 779 474 l 467 474 q 332 464 383 472 q 238 432 281 456 q 171 363 194 408 q 133 244 147 318 q 158 78 111 119 q 313 36 204 36 q 540 82 450 36 q 693 231 631 128 q 779 474 756 332 z "},"'":{"ha":274,"x_min":151,"x_max":239,"o":"m 193 667 l 151 667 l 189 958 l 239 958 l 193 667 z "},"(":{"ha":490,"x_min":93,"x_max":531,"o":"m 522 1097 l 531 1064 q 277 834 369 988 q 150 432 185 681 q 164 37 115 189 q 350 -196 213 -115 l 340 -229 q 93 442 19 -76 q 234 860 129 700 q 522 1097 339 1021 z "},")":{"ha":490,"x_min":-32,"x_max":406,"o":"m 149 1064 l 157 1097 q 381 858 319 1022 q 406 425 443 694 q 265 7 369 165 q -25 -229 161 -151 l -32 -196 q 221 40 128 -115 q 349 438 314 194 q 335 834 383 679 q 149 1064 288 989 z "},"*":{"ha":624,"x_min":140,"x_max":585,"o":"m 371 742 l 481 563 l 444 540 l 354 713 l 215 542 l 183 568 l 342 743 l 367 958 l 408 958 l 371 742 m 322 764 l 318 746 l 308 733 l 140 785 l 157 825 l 322 764 m 585 782 l 403 733 l 396 746 l 397 764 l 575 824 l 585 782 z "},"+":{"ha":764,"x_min":85,"x_max":679,"o":"m 672 390 l 403 390 l 365 135 l 321 135 l 356 390 l 85 390 l 93 436 l 363 436 l 399 692 l 446 692 l 408 436 l 679 436 l 672 390 z "},",":{"ha":293,"x_min":38,"x_max":140,"o":"m 100 131 l 122 131 q 140 108 142 131 l 126 17 q 68 -167 117 -62 l 38 -157 q 75 1 63 -74 q 60 22 57 1 l 72 108 q 81 126 75 121 q 100 131 86 131 z "},"-":{"ha":656,"x_min":103,"x_max":538,"o":"m 532 326 l 103 326 l 108 372 l 538 372 l 532 326 z "},".":{"ha":292,"x_min":60,"x_max":139,"o":"m 97 131 l 118 131 q 139 106 143 131 l 128 22 q 101 0 124 0 l 82 0 q 60 25 56 0 l 72 108 q 97 131 74 131 z "},"/":{"ha":700,"x_min":-18,"x_max":726,"o":"m 36 -85 l -18 -85 l 672 958 l 726 958 l 36 -85 z "},":":{"ha":296,"x_min":93,"x_max":239,"o":"m 197 601 l 219 601 q 239 575 243 601 l 228 492 q 203 469 224 469 l 182 469 q 160 496 156 469 l 172 578 q 197 601 175 601 m 131 131 l 151 131 q 172 106 176 131 l 161 22 q 135 0 157 0 l 115 0 q 93 25 89 0 l 106 108 q 131 131 107 131 z "},";":{"ha":299,"x_min":40,"x_max":208,"o":"m 165 601 l 188 601 q 208 575 211 601 l 196 492 q 171 469 194 469 l 150 469 q 128 496 125 469 l 140 578 q 165 601 143 601 m 103 131 l 124 131 q 142 108 146 131 l 129 17 q 71 -167 118 -60 l 40 -157 q 78 1 61 -87 q 63 22 58 1 l 75 108 q 83 126 78 121 q 103 131 88 131 z "},"<":{"ha":743,"x_min":81,"x_max":674,"o":"m 667 635 l 136 410 l 603 190 l 597 143 l 81 388 l 88 435 l 674 685 l 667 635 z "},"=":{"ha":819,"x_min":92,"x_max":725,"o":"m 719 528 l 132 528 l 139 574 l 725 574 l 719 528 m 679 233 l 92 233 l 99 279 l 685 279 l 679 233 z "},">":{"ha":740,"x_min":69,"x_max":661,"o":"m 661 435 l 654 388 l 69 143 l 75 194 l 606 414 l 139 639 l 146 685 l 661 435 z "},"?":{"ha":692,"x_min":132,"x_max":669,"o":"m 138 922 l 132 963 q 174 969 140 964 q 215 976 207 975 q 253 981 224 978 q 301 985 282 985 q 352 988 319 986 q 422 989 385 989 q 622 935 558 989 q 669 771 685 881 q 638 678 663 722 q 579 605 613 635 q 508 540 546 575 q 435 472 469 504 q 375 390 401 439 q 340 283 349 340 l 290 286 q 334 417 300 358 q 411 517 368 476 q 497 594 454 557 q 573 676 540 631 q 613 772 606 721 q 577 901 624 861 q 417 940 531 940 q 138 922 292 940 m 283 131 l 301 131 q 324 106 325 131 l 311 24 q 286 0 308 0 l 267 0 q 246 25 242 0 l 257 108 q 283 131 261 131 z "},"@":{"ha":1038,"x_min":79,"x_max":933,"o":"m 171 814 l 175 854 q 585 863 338 860 q 700 860 654 863 q 788 848 746 857 q 853 826 829 839 q 897 789 878 814 q 924 734 917 764 q 933 656 932 704 q 930 553 935 607 q 915 421 925 499 q 835 72 879 158 q 671 -15 790 -15 q 560 136 536 -15 l 563 156 q 247 -17 413 -17 q 144 10 183 -17 q 92 85 104 36 q 80 188 79 135 q 93 311 81 240 q 194 556 126 496 q 436 617 263 617 q 682 596 532 617 l 613 125 q 620 55 606 76 q 675 33 635 33 q 796 106 763 33 q 864 426 829 179 q 879 549 874 500 q 883 643 885 599 q 876 713 881 688 q 854 759 872 738 q 817 790 836 781 q 760 805 799 799 q 685 813 721 811 q 585 814 649 814 l 171 814 m 571 215 l 621 561 q 451 568 518 568 q 233 519 289 568 q 147 304 176 469 q 133 162 135 222 q 162 67 132 101 q 256 32 192 32 q 571 215 410 32 z "},"A":{"ha":839,"x_min":-33,"x_max":764,"o":"m 636 336 l 194 336 l 29 0 l -33 0 l 435 942 q 460 958 440 958 l 538 958 q 561 939 558 958 l 764 0 l 706 0 l 636 336 m 625 388 l 532 833 q 525 869 531 843 q 517 911 519 896 l 475 911 l 438 832 l 218 388 l 625 388 z "},"B":{"ha":850,"x_min":81,"x_max":772,"o":"m 81 0 l 215 958 q 494 969 317 969 q 731 916 668 969 q 772 717 793 863 q 712 560 757 613 q 579 500 667 508 l 579 494 q 716 420 681 485 q 733 236 751 356 q 642 40 713 90 q 406 -11 571 -11 q 81 0 194 -11 m 210 519 l 457 519 q 642 562 586 521 q 715 719 699 603 q 684 879 732 839 q 493 919 636 919 l 265 918 l 210 519 m 203 474 l 143 42 q 400 39 251 39 q 600 81 540 39 q 676 247 660 124 q 647 424 694 378 q 454 474 599 471 l 203 474 z "},"C":{"ha":776,"x_min":110,"x_max":781,"o":"m 664 53 l 671 10 q 404 -17 557 -17 q 138 97 204 -17 q 110 482 71 210 q 243 865 149 756 q 535 975 338 975 q 781 950 681 975 l 768 908 q 536 924 661 924 q 283 826 363 924 q 168 476 204 729 q 185 132 133 229 q 403 35 236 35 q 664 53 556 35 z "},"D":{"ha":915,"x_min":81,"x_max":826,"o":"m 81 0 l 215 958 q 532 971 383 971 q 798 860 732 971 q 826 476 864 750 q 694 92 788 196 q 399 -12 600 -12 q 81 0 250 -12 m 267 915 l 143 43 q 397 39 260 39 q 651 133 571 39 q 768 482 732 228 q 751 825 803 731 q 531 919 699 919 q 267 915 386 919 z "},"E":{"ha":765,"x_min":93,"x_max":765,"o":"m 757 910 l 364 910 q 240 799 256 910 l 203 535 l 649 535 l 642 489 l 197 489 l 151 156 q 169 78 144 107 q 242 49 193 49 l 636 49 l 636 6 q 232 0 503 0 q 121 43 160 0 q 93 156 82 86 l 185 813 q 239 919 194 879 q 354 958 283 958 q 765 953 631 958 l 757 910 z "},"F":{"ha":739,"x_min":76,"x_max":760,"o":"m 751 910 l 372 910 q 246 799 263 910 l 207 526 l 642 526 l 635 481 l 201 481 l 133 0 l 76 0 l 190 811 q 247 919 201 881 q 360 958 292 958 q 760 951 629 958 l 751 910 z "},"G":{"ha":863,"x_min":108,"x_max":814,"o":"m 814 950 l 801 908 q 546 924 683 924 q 283 828 364 924 q 168 476 203 732 q 182 135 138 235 q 367 35 226 35 q 517 76 447 35 q 672 197 586 118 l 722 556 l 778 556 l 699 0 l 658 0 l 669 144 q 356 -17 519 -17 q 133 100 190 -17 q 108 482 76 217 q 244 867 146 758 q 542 975 342 975 q 814 950 700 975 z "},"H":{"ha":915,"x_min":81,"x_max":857,"o":"m 857 958 l 722 0 l 665 0 l 733 488 l 206 488 l 138 0 l 81 0 l 215 958 l 272 958 l 214 538 l 740 538 l 800 958 l 857 958 z "},"I":{"ha":332,"x_min":81,"x_max":272,"o":"m 138 0 l 81 0 l 215 958 l 272 958 l 138 0 z "},"J":{"ha":453,"x_min":-7,"x_max":399,"o":"m 399 958 l 288 169 q 93 -10 264 -12 q -7 1 46 -10 l 6 40 l 81 40 q 232 172 213 40 l 342 958 l 399 958 z "},"K":{"ha":789,"x_min":81,"x_max":807,"o":"m 394 501 l 394 497 q 426 451 404 486 l 694 0 l 629 0 l 346 476 l 199 476 q 186 360 197 418 l 136 0 l 81 0 l 215 958 l 271 958 l 226 636 q 206 524 215 567 l 350 524 l 736 958 l 807 958 l 446 550 q 394 501 419 521 z "},"L":{"ha":699,"x_min":99,"x_max":618,"o":"m 268 958 l 156 156 q 173 78 149 107 q 247 49 197 49 l 618 49 l 617 6 q 235 0 489 0 q 127 44 165 0 q 99 157 89 88 l 211 958 l 268 958 z "},"M":{"ha":1194,"x_min":60,"x_max":1110,"o":"m 1004 958 l 1083 958 q 1110 928 1113 958 l 1021 0 l 963 0 l 1051 910 l 1019 910 l 619 108 q 592 90 613 90 l 519 90 q 493 111 497 90 l 317 910 l 283 910 l 117 0 l 60 0 l 232 932 q 263 958 236 958 l 339 958 q 364 936 361 958 l 514 265 q 530 195 521 240 q 542 135 539 150 l 576 135 l 640 269 l 976 940 q 1004 958 986 958 z "},"N":{"ha":961,"x_min":81,"x_max":901,"o":"m 901 958 l 771 26 q 742 0 767 0 l 671 0 q 640 24 649 0 l 333 806 q 294 907 299 896 l 263 907 q 249 793 254 835 l 138 0 l 81 0 l 211 932 q 240 958 215 958 l 308 958 q 339 935 331 958 l 639 171 q 683 51 660 119 l 719 51 q 736 175 735 171 l 844 958 l 901 958 z "},"O":{"ha":919,"x_min":110,"x_max":829,"o":"m 536 975 q 801 863 735 975 q 829 476 868 750 q 698 92 792 201 q 406 -17 604 -17 q 139 95 207 -17 q 110 482 71 207 q 242 865 149 756 q 536 975 336 975 m 535 924 q 283 826 363 924 q 168 476 204 728 q 187 132 135 229 q 406 35 239 35 q 656 133 576 35 q 771 482 735 231 q 756 828 807 732 q 535 924 704 924 z "},"P":{"ha":808,"x_min":81,"x_max":774,"o":"m 81 0 l 215 958 q 525 969 329 969 q 740 907 685 969 q 774 681 796 844 q 680 456 749 514 q 453 397 611 397 q 194 406 303 397 l 138 0 l 81 0 m 200 447 l 451 447 q 640 499 583 450 q 715 686 696 547 q 693 871 735 822 q 525 919 651 919 q 267 917 372 919 l 200 447 z "},"Q":{"ha":919,"x_min":110,"x_max":829,"o":"m 536 975 q 801 863 735 975 q 829 476 868 750 q 698 92 792 201 q 406 -17 604 -17 q 139 95 207 -17 q 110 482 71 207 q 242 865 149 756 q 536 975 336 975 m 535 924 q 283 826 363 924 q 168 476 204 728 q 187 132 135 229 q 406 35 239 35 q 656 133 576 35 q 771 482 735 231 q 756 828 807 732 q 535 924 704 924 m 318 -101 l 342 -68 q 653 -183 465 -153 l 632 -240 q 318 -101 440 -208 z "},"R":{"ha":846,"x_min":81,"x_max":776,"o":"m 81 0 l 215 958 q 525 969 329 969 q 740 910 682 969 q 776 694 797 851 q 709 515 758 572 q 563 446 660 458 l 563 439 q 654 304 633 417 l 717 0 l 657 0 l 596 304 q 552 395 583 368 q 467 422 521 422 q 357 424 418 424 q 258 426 296 425 q 197 428 221 426 l 136 0 l 81 0 m 203 474 l 457 474 q 643 524 586 476 q 718 700 700 571 q 694 874 736 828 q 525 919 651 919 q 265 917 374 919 l 203 474 z "},"S":{"ha":771,"x_min":47,"x_max":722,"o":"m 489 415 l 286 499 q 153 597 186 540 q 131 753 119 654 q 168 875 142 828 q 242 943 194 922 q 335 969 289 964 q 458 974 382 975 q 722 954 606 971 l 715 913 q 439 922 551 922 q 365 921 390 922 q 303 910 339 919 q 249 883 268 901 q 213 831 231 865 q 189 744 196 796 q 203 626 181 667 q 303 553 226 585 l 506 469 q 647 370 614 425 q 667 211 681 315 q 637 110 657 151 q 590 43 617 68 q 519 6 563 18 q 431 -11 475 -7 q 318 -15 386 -15 q 47 3 176 -15 l 56 46 q 333 36 217 35 q 444 44 403 38 q 523 68 486 50 q 579 122 560 86 q 608 218 599 158 q 596 342 619 303 q 489 415 572 381 z "},"T":{"ha":781,"x_min":103,"x_max":826,"o":"m 819 908 l 489 908 l 361 0 l 304 0 l 432 908 l 103 908 l 110 958 l 826 958 l 819 908 z "},"U":{"ha":925,"x_min":124,"x_max":874,"o":"m 874 958 l 789 356 q 674 68 760 153 q 410 -17 589 -17 q 162 70 228 -17 q 124 360 96 157 l 207 958 l 265 958 l 181 356 q 207 106 156 178 q 408 35 258 35 q 633 108 560 35 q 732 360 707 182 l 815 958 l 874 958 z "},"V":{"ha":822,"x_min":106,"x_max":868,"o":"m 868 958 l 417 17 q 390 0 411 0 l 317 0 q 293 19 296 0 l 106 958 l 164 958 l 321 149 q 339 46 329 108 l 376 46 q 390 79 382 61 q 408 119 399 97 q 424 153 418 140 l 807 958 l 868 958 z "},"W":{"ha":1292,"x_min":118,"x_max":1325,"o":"m 1325 958 l 954 18 q 926 0 949 0 l 847 0 q 824 22 826 0 l 743 807 q 738 859 742 825 q 732 911 735 893 l 699 911 l 657 803 l 358 19 q 331 0 351 0 l 251 0 q 226 21 229 0 l 118 958 l 176 958 l 267 147 q 275 44 269 114 l 314 44 q 326 77 318 56 q 340 116 333 99 q 351 149 346 133 l 654 938 q 681 958 661 958 l 756 958 q 781 935 778 958 l 864 146 q 872 44 864 140 l 911 44 l 949 149 l 1265 958 l 1325 958 z "},"X":{"ha":826,"x_min":-11,"x_max":840,"o":"m 499 499 l 724 0 l 664 0 l 451 476 l 404 476 l 57 0 l -11 0 l 356 500 l 143 958 l 203 958 l 403 524 l 451 524 l 776 958 l 840 958 l 499 499 z "},"Y":{"ha":754,"x_min":99,"x_max":804,"o":"m 396 351 l 346 0 l 288 0 l 339 353 l 99 958 l 157 958 l 332 510 q 368 410 357 444 l 378 410 q 440 511 406 460 l 742 958 l 804 958 l 396 351 z "},"Z":{"ha":771,"x_min":10,"x_max":775,"o":"m 83 50 l 656 50 l 647 0 l 10 0 l 18 50 l 701 908 l 143 908 l 150 958 l 775 958 l 768 908 l 83 50 z "},"[":{"ha":433,"x_min":58,"x_max":463,"o":"m 457 1024 l 300 1024 q 276 1004 279 1024 l 113 -169 q 125 -186 111 -186 l 288 -186 l 281 -229 l 103 -229 q 67 -215 81 -229 q 58 -176 54 -200 l 225 1017 q 282 1067 235 1067 l 463 1067 l 457 1024 z "},"\\":{"ha":679,"x_min":119,"x_max":569,"o":"m 569 -85 l 521 -85 l 119 958 l 168 958 l 569 -85 z "},"]":{"ha":433,"x_min":-26,"x_max":379,"o":"m 156 1067 l 333 1067 q 369 1051 356 1067 q 379 1014 382 1036 l 211 -179 q 193 -215 208 -201 q 156 -229 178 -229 l -26 -229 l -21 -186 l 138 -186 q 160 -167 157 -186 l 325 1007 q 311 1024 328 1024 l 150 1024 l 156 1067 z "},"^":{"ha":557,"x_min":68,"x_max":543,"o":"m 543 528 l 515 510 l 347 758 l 336 758 l 94 510 l 68 529 l 324 808 l 365 808 l 543 528 z "},"_":{"ha":826,"x_min":57,"x_max":664,"o":"m 657 -46 l 57 -46 l 63 0 l 664 0 l 657 -46 z "},"`":{"ha":399,"x_min":144,"x_max":375,"o":"m 375 786 l 349 760 l 144 950 l 181 990 l 375 786 z "},"a":{"ha":786,"x_min":90,"x_max":700,"o":"m 607 0 l 564 0 l 582 164 q 417 31 507 79 q 251 -17 326 -17 q 94 65 129 -17 q 90 339 60 147 q 192 618 124 550 q 435 686 261 686 q 700 665 551 686 l 607 0 m 582 217 l 639 629 q 446 638 481 638 q 231 581 286 638 q 146 332 175 524 q 141 101 118 169 q 257 33 164 33 q 413 81 326 33 q 582 217 500 129 z "},"b":{"ha":783,"x_min":67,"x_max":676,"o":"m 181 508 q 506 686 372 686 q 665 608 624 686 q 676 331 706 529 q 619 110 657 185 q 522 9 581 35 q 358 -17 464 -17 q 67 28 231 -17 l 200 972 l 254 972 l 214 693 q 181 508 197 583 m 183 465 l 126 57 q 343 32 238 32 q 542 91 490 32 q 619 338 594 150 q 617 573 643 510 q 494 636 592 636 q 361 594 435 636 q 183 465 288 553 z "},"c":{"ha":663,"x_min":79,"x_max":626,"o":"m 549 49 l 554 10 q 343 -17 451 -17 q 113 64 172 -17 q 79 338 53 144 q 186 608 106 529 q 433 686 267 686 q 626 660 549 686 l 615 622 q 443 636 553 636 q 228 572 296 636 q 138 332 161 507 q 160 96 113 158 q 351 33 207 33 q 549 49 469 33 z "},"d":{"ha":785,"x_min":88,"x_max":742,"o":"m 742 972 l 604 0 l 561 0 l 578 165 q 236 -17 413 -17 q 93 68 125 -17 q 88 339 61 153 q 188 617 118 549 q 431 686 258 686 q 649 671 533 686 q 661 800 650 724 l 686 972 l 742 972 m 581 217 l 638 631 q 444 638 503 638 q 227 581 283 638 q 143 332 171 524 q 139 106 118 178 q 247 33 160 33 q 581 217 404 33 z "},"e":{"ha":735,"x_min":81,"x_max":663,"o":"m 590 50 l 596 11 q 329 -17 501 -17 q 108 66 164 -17 q 81 343 53 149 q 123 516 96 449 q 194 621 150 583 q 294 672 239 658 q 432 686 349 686 q 630 640 571 686 q 663 478 689 593 q 594 358 644 393 q 432 313 543 324 l 129 281 q 164 84 115 136 q 344 32 213 32 q 590 50 456 32 m 135 325 l 433 358 q 556 393 519 368 q 608 482 592 418 q 616 542 614 517 q 606 584 618 567 q 580 612 593 601 q 542 628 567 622 q 492 635 517 633 q 435 638 468 638 q 315 627 360 638 q 233 585 269 617 q 174 494 196 553 q 138 339 153 436 l 135 325 z "},"f":{"ha":497,"x_min":-175,"x_max":596,"o":"m 589 944 l 442 944 q 324 913 361 944 q 276 800 286 881 l 257 669 l 497 669 l 489 622 l 251 622 l 149 -101 q 91 -243 136 -197 q -43 -289 46 -289 q -175 -282 -103 -289 l -169 -240 l -61 -240 q 49 -208 14 -240 q 94 -94 83 -176 l 196 622 l 74 622 l 79 663 l 201 668 l 221 806 q 281 947 233 900 q 424 993 329 993 q 596 986 533 993 l 589 944 z "},"g":{"ha":793,"x_min":28,"x_max":710,"o":"m 710 665 l 607 -3 q 283 -303 565 -282 q 28 -294 154 -312 l 35 -256 q 275 -254 167 -262 q 463 -184 394 -243 q 551 -7 532 -125 q 592 175 576 136 q 422 34 515 85 q 250 -17 329 -17 q 96 65 131 -17 q 90 339 61 147 q 192 618 124 550 q 432 686 261 686 q 701 665 551 686 l 710 665 m 585 218 l 649 629 q 446 638 479 638 q 231 581 286 638 q 146 332 176 525 q 141 102 118 171 q 258 33 164 33 q 415 82 326 33 q 585 218 503 131 z "},"h":{"ha":792,"x_min":67,"x_max":686,"o":"m 258 972 l 218 679 q 188 511 207 599 q 529 686 394 686 q 658 639 617 686 q 686 501 699 592 l 615 0 l 560 0 l 631 493 q 613 603 640 569 q 515 636 585 636 q 372 594 447 636 q 188 463 297 553 l 121 0 l 67 0 l 204 972 l 258 972 z "},"i":{"ha":313,"x_min":72,"x_max":264,"o":"m 219 949 l 244 949 q 264 925 267 949 l 251 840 q 229 821 250 821 l 206 821 q 183 844 181 821 l 196 928 q 219 949 197 949 m 126 0 l 72 0 l 167 669 l 221 669 l 126 0 z "},"j":{"ha":314,"x_min":-43,"x_max":264,"o":"m 219 949 l 244 949 q 264 925 267 949 l 251 840 q 229 821 250 821 l 206 821 q 183 844 181 821 l 196 928 q 219 949 197 949 m 221 669 l 119 -54 q -14 -289 101 -187 l -43 -265 q 65 -50 49 -164 l 167 669 l 221 669 z "},"k":{"ha":689,"x_min":67,"x_max":653,"o":"m 596 669 l 653 669 q 397 369 582 483 l 435 299 l 581 0 l 519 0 l 353 344 q 160 265 274 303 l 121 0 l 67 0 l 204 972 l 258 972 l 188 449 q 158 315 179 386 q 596 669 497 424 z "},"l":{"ha":378,"x_min":88,"x_max":314,"o":"m 260 972 l 144 146 q 233 42 128 42 l 313 42 l 314 1 q 217 -10 283 -10 q 113 30 149 -10 q 88 140 78 69 l 206 972 l 260 972 z "},"m":{"ha":1215,"x_min":67,"x_max":1110,"o":"m 203 669 l 186 511 q 353 642 279 599 q 494 686 426 686 q 619 643 579 686 q 653 518 660 600 q 815 644 744 603 q 953 686 886 686 q 1082 638 1042 686 q 1110 501 1122 590 l 1039 0 l 985 0 l 1054 493 q 1035 603 1064 569 q 938 636 1007 636 q 815 597 878 636 q 646 467 751 558 l 581 0 l 526 0 l 596 493 q 578 602 606 568 q 479 636 550 636 q 353 597 418 636 q 186 465 289 557 l 121 0 l 67 0 l 161 669 l 203 669 z "},"n":{"ha":792,"x_min":67,"x_max":686,"o":"m 204 669 l 186 511 q 529 686 393 686 q 658 639 617 686 q 686 501 699 592 l 615 0 l 560 0 l 631 493 q 613 603 640 569 q 515 636 585 636 q 373 595 449 636 q 186 465 297 554 l 121 0 l 67 0 l 161 669 l 204 669 z "},"o":{"ha":776,"x_min":79,"x_max":676,"o":"m 424 686 q 646 606 589 686 q 676 331 703 525 q 572 61 649 139 q 333 -17 496 -17 q 110 64 168 -17 q 79 338 53 144 q 183 608 107 529 q 424 686 260 686 m 424 636 q 224 570 288 636 q 138 331 161 504 q 157 97 114 161 q 333 32 200 32 q 532 99 468 32 q 619 338 596 165 q 600 572 643 507 q 424 636 557 636 z "},"p":{"ha":786,"x_min":24,"x_max":678,"o":"m 204 669 l 188 504 q 355 637 263 588 q 517 686 447 686 q 672 606 639 686 q 678 331 706 525 q 576 51 646 119 q 335 -17 507 -17 q 117 -1 232 -17 q 104 -131 115 -54 l 79 -300 l 24 -300 l 161 669 l 204 669 m 185 453 l 128 39 q 321 31 289 31 q 538 88 482 31 q 622 338 594 146 q 626 568 649 500 q 510 636 603 636 q 356 588 446 636 q 185 453 267 539 z "},"q":{"ha":785,"x_min":88,"x_max":696,"o":"m 696 642 l 564 -300 l 508 -300 l 550 -12 q 585 172 568 103 q 419 29 496 75 q 253 -17 342 -17 q 100 62 140 -17 q 88 339 60 140 q 145 558 107 483 q 242 660 183 633 q 404 686 300 686 q 696 642 535 686 m 582 215 l 638 613 q 419 638 518 638 q 220 578 274 638 q 143 332 167 519 q 146 98 122 163 q 265 33 169 33 q 407 73 342 33 q 582 215 472 113 z "},"r":{"ha":538,"x_min":67,"x_max":547,"o":"m 547 686 l 532 633 l 506 633 q 369 592 440 633 q 186 461 297 551 l 121 0 l 67 0 l 161 669 l 203 669 l 186 507 q 518 686 379 686 l 547 686 z "},"s":{"ha":694,"x_min":42,"x_max":632,"o":"m 431 274 l 218 357 q 115 422 144 386 q 96 536 85 458 q 172 660 111 632 q 367 686 232 689 q 632 668 500 685 l 624 628 q 368 638 461 636 q 205 622 249 640 q 150 531 161 604 q 161 451 142 476 q 238 403 181 425 l 451 319 q 560 253 529 289 q 581 142 592 217 q 551 56 574 89 q 488 8 529 24 q 402 -12 446 -8 q 283 -17 358 -17 q 42 1 172 -17 l 49 42 q 281 32 164 31 q 466 56 415 35 q 526 149 517 78 q 512 227 533 204 q 431 274 490 250 z "},"t":{"ha":486,"x_min":69,"x_max":493,"o":"m 247 622 l 181 146 q 269 42 164 42 l 389 42 l 390 1 q 264 -10 328 -10 q 149 30 185 -10 q 125 143 114 69 l 192 622 l 69 622 l 75 663 l 199 668 l 228 876 l 282 876 l 254 669 l 493 669 l 485 622 l 247 622 z "},"u":{"ha":776,"x_min":85,"x_max":690,"o":"m 690 669 l 596 0 l 554 0 l 572 168 q 243 -17 388 -17 q 112 31 153 -17 q 85 168 71 78 l 156 669 l 211 669 l 140 176 q 158 67 131 101 q 257 33 186 33 q 398 77 326 33 q 572 218 469 121 l 636 669 l 690 669 z "},"v":{"ha":708,"x_min":76,"x_max":686,"o":"m 629 669 l 686 669 q 526 263 635 454 q 381 42 439 111 q 294 0 346 0 l 238 0 q 215 18 218 0 l 76 669 l 135 669 l 260 46 l 285 46 q 319 53 307 46 q 350 82 332 60 q 481 286 410 157 q 629 669 583 474 z "},"w":{"ha":1143,"x_min":76,"x_max":1108,"o":"m 246 46 l 264 46 q 318 81 293 46 q 428 289 375 161 q 543 654 492 438 q 564 669 546 672 l 622 669 q 643 653 640 669 l 732 46 l 749 46 q 801 82 776 46 q 924 288 881 199 q 1050 669 1007 457 l 1108 669 q 967 263 1053 432 q 831 40 886 110 q 749 0 794 0 l 710 0 q 688 18 690 0 l 600 628 l 585 628 q 475 275 544 436 q 413 144 450 213 q 349 43 375 75 q 263 0 317 0 l 224 0 q 201 18 207 0 l 76 669 l 133 669 l 246 46 z "},"x":{"ha":704,"x_min":-14,"x_max":682,"o":"m 408 347 l 606 0 l 546 0 l 363 326 l 326 326 l 53 0 l -14 0 l 282 349 l 100 669 l 158 669 l 325 372 l 365 372 l 618 669 l 682 669 l 408 347 z "},"y":{"ha":719,"x_min":53,"x_max":689,"o":"m 632 669 l 689 669 q 444 89 608 353 q 250 -180 335 -92 q 63 -290 165 -268 l 53 -253 q 193 -169 128 -229 q 329 0 258 -108 l 276 0 q 232 15 250 0 q 208 54 214 31 l 74 669 l 132 669 l 256 79 q 297 47 265 44 l 358 47 l 393 103 q 632 669 547 357 z "},"z":{"ha":681,"x_min":13,"x_max":644,"o":"m 638 621 l 88 47 l 561 47 l 554 0 l 13 0 l 19 47 l 568 621 l 106 621 l 111 669 l 644 669 l 638 621 z "},"{":{"ha":421,"x_min":75,"x_max":447,"o":"m 447 1067 l 444 1029 q 330 994 367 1029 q 283 885 293 960 l 246 610 q 208 499 233 526 q 113 456 183 471 q 197 403 178 432 q 207 303 217 374 l 158 -51 q 173 -158 147 -125 q 276 -192 199 -192 l 272 -229 q 130 -187 169 -231 q 104 -50 90 -144 l 156 322 q 147 390 163 372 q 83 428 132 408 q 75 431 78 429 l 83 483 q 161 517 147 503 q 189 599 181 536 l 231 890 q 293 1028 243 986 q 447 1067 343 1069 z "},"|":{"ha":328,"x_min":51,"x_max":282,"o":"m 97 -235 l 51 -235 l 236 1085 l 282 1085 l 97 -235 z "},"}":{"ha":419,"x_min":-28,"x_max":358,"o":"m 153 1029 l 156 1067 q 298 1026 258 1069 q 325 888 338 982 l 283 594 q 288 515 275 531 q 358 481 300 499 l 350 428 q 303 410 314 415 q 274 393 293 406 q 249 364 256 381 q 239 318 243 347 l 188 -53 q 125 -190 174 -149 q -28 -229 76 -231 l -25 -192 q 88 -157 53 -192 q 133 -49 124 -122 l 185 307 q 219 406 194 379 q 319 456 244 432 q 238 501 256 471 q 232 614 219 531 l 272 889 q 257 997 282 964 q 153 1029 232 1029 z "},"~":{"ha":736,"x_min":106,"x_max":628,"o":"m 139 328 l 106 332 q 143 434 111 400 q 225 465 175 468 q 367 419 285 461 q 503 374 450 376 q 566 391 544 371 q 594 460 588 411 l 628 456 q 590 358 622 392 q 508 328 557 324 q 356 374 436 332 q 231 419 275 417 q 139 328 151 428 z "}," ":{"ha":317,"x_min":0,"x_max":0,"o":""},"¡":{"ha":328,"x_min":39,"x_max":232,"o":"m 192 671 l 211 671 q 232 646 233 671 l 219 565 q 193 540 217 540 l 176 540 q 154 565 150 540 l 165 649 q 192 671 169 671 m 158 167 l 94 -282 l 39 -282 l 103 167 l 139 386 l 185 386 l 158 167 z "},"¢":{"ha":699,"x_min":103,"x_max":649,"o":"m 649 810 l 638 772 q 483 788 582 785 l 356 183 l 372 183 q 571 200 472 183 l 576 160 q 365 133 464 133 l 343 135 l 314 0 l 276 0 l 307 136 q 125 231 172 149 q 103 489 78 313 q 209 758 129 681 q 456 836 289 836 l 457 836 l 483 958 l 521 958 l 494 836 q 649 810 593 831 m 318 186 l 446 788 q 247 719 310 783 q 160 485 183 654 q 174 262 138 328 q 318 186 210 196 z "},"£":{"ha":778,"x_min":39,"x_max":744,"o":"m 744 960 l 738 917 q 496 924 601 924 q 347 880 393 924 q 290 731 300 836 l 272 524 l 607 524 l 600 485 l 268 485 l 256 349 q 215 166 246 240 q 114 49 183 92 q 197 50 139 50 l 651 50 l 646 0 l 39 0 l 44 50 q 155 165 119 92 q 200 346 190 238 l 213 485 l 99 485 l 104 524 l 217 524 l 235 732 q 265 861 243 811 q 328 935 288 911 q 411 966 369 958 q 519 974 453 974 q 744 960 618 974 z "},"¤":{"ha":832,"x_min":90,"x_max":758,"o":"m 758 764 l 650 669 q 693 486 706 594 q 613 307 681 376 l 708 197 l 679 172 l 585 282 q 401 222 507 222 q 225 288 293 222 l 117 192 l 90 221 l 200 317 q 161 492 149 390 q 246 676 174 607 l 150 786 l 179 813 l 275 703 q 454 757 351 757 q 624 697 560 757 l 733 794 l 758 764 m 393 260 q 572 322 500 257 q 654 493 643 386 q 611 656 664 592 q 454 719 558 719 q 278 655 346 719 q 200 486 211 590 q 242 325 189 388 q 393 260 296 263 z "},"¥":{"ha":840,"x_min":104,"x_max":849,"o":"m 476 431 l 718 431 l 713 392 l 449 392 l 443 385 l 429 278 l 697 278 l 690 239 l 424 239 l 389 0 l 332 0 l 365 239 l 104 239 l 110 278 l 371 278 l 386 386 l 383 392 l 126 392 l 131 431 l 367 431 l 142 958 l 201 958 l 378 543 q 394 501 379 539 q 417 444 410 464 l 428 444 q 493 543 453 486 l 785 958 l 849 958 l 476 431 z "},"¦":{"ha":328,"x_min":51,"x_max":282,"o":"m 204 529 l 158 529 l 236 1085 l 282 1085 l 204 529 m 97 -235 l 51 -235 l 129 321 l 175 321 l 97 -235 z "},"§":{"ha":754,"x_min":21,"x_max":728,"o":"m 511 461 l 272 610 q 173 703 199 656 q 157 821 147 751 q 233 946 171 915 q 428 975 296 976 q 728 958 592 975 l 721 917 q 438 926 589 925 q 276 908 326 928 q 214 813 225 888 q 296 658 200 715 l 532 513 q 631 383 617 460 q 610 200 646 307 l 565 201 q 582 358 592 294 q 511 461 572 422 m 140 568 l 185 565 q 167 412 158 474 q 238 313 176 350 l 479 164 q 576 72 550 121 q 593 -47 603 24 q 563 -136 585 -103 q 501 -185 540 -169 q 423 -203 461 -200 q 321 -207 385 -207 q 21 -190 174 -204 l 28 -147 q 313 -158 207 -157 q 380 -158 356 -158 q 435 -151 404 -157 q 484 -133 467 -144 q 517 -97 501 -121 q 536 -40 532 -74 q 456 115 547 58 l 219 260 q 119 386 135 311 q 140 568 104 461 z "},"¨":{"ha":558,"x_min":201,"x_max":514,"o":"m 235 947 l 253 947 q 271 926 272 947 l 260 853 q 236 831 256 831 l 219 831 q 201 851 200 831 l 213 926 q 235 947 214 947 m 478 947 l 496 947 q 514 926 517 947 l 503 853 q 479 831 499 831 l 463 831 q 444 851 443 831 l 456 926 q 478 947 458 947 z "},"©":{"ha":1181,"x_min":106,"x_max":1097,"o":"m 665 975 q 1003 837 879 975 q 1097 476 1126 699 q 917 120 1068 257 q 538 -17 767 -17 q 200 122 324 -17 q 106 482 76 261 q 284 838 133 700 q 665 975 435 975 m 665 940 q 310 811 451 940 q 142 476 169 682 q 228 144 115 271 q 536 18 342 18 q 892 147 750 18 q 1060 482 1033 276 q 974 813 1086 686 q 665 940 863 940 m 764 217 l 768 183 q 571 165 686 165 q 365 237 417 165 q 338 486 314 308 q 433 731 363 661 q 653 801 503 801 q 835 783 757 801 l 825 753 q 656 760 751 760 q 466 700 525 760 q 383 479 407 640 q 403 267 363 326 q 565 207 443 207 q 764 217 697 207 z "},"ª":{"ha":618,"x_min":125,"x_max":556,"o":"m 493 375 l 457 375 l 467 475 q 365 394 421 424 q 258 365 308 365 q 138 413 171 365 q 125 603 106 461 q 201 789 144 742 q 372 836 258 836 q 556 821 443 836 l 493 375 m 469 515 l 508 793 q 383 797 429 797 q 233 760 278 797 q 171 599 189 722 q 174 444 154 482 q 264 406 194 406 q 469 515 357 406 z "},"«":{"ha":636,"x_min":58,"x_max":576,"o":"m 349 608 l 113 346 l 276 82 l 247 61 l 58 343 l 60 358 l 324 632 l 349 608 m 576 608 l 340 346 l 504 82 l 475 61 l 286 343 l 288 358 l 551 632 l 576 608 z "},"¬":{"ha":819,"x_min":113,"x_max":706,"o":"m 706 435 l 669 186 l 622 186 l 651 389 l 113 389 l 118 435 l 706 435 z "},"­":{"ha":657,"x_min":101,"x_max":538,"o":"m 532 326 l 101 326 l 108 372 l 538 372 l 532 326 z "},"®":{"ha":796,"x_min":126,"x_max":743,"o":"m 464 974 q 683 888 606 974 q 743 663 760 803 q 635 442 726 529 q 407 356 544 356 q 189 444 268 356 q 126 675 110 532 q 235 894 142 815 q 464 974 328 974 m 714 669 q 660 873 729 799 q 464 947 592 947 q 250 872 332 947 q 154 669 168 796 q 211 460 140 539 q 407 382 282 382 q 616 463 533 382 q 714 669 699 544 m 265 474 l 319 857 q 456 861 371 861 q 574 840 540 861 q 600 751 608 819 q 573 681 594 703 q 503 651 551 658 l 503 649 q 546 593 533 639 l 578 474 l 543 474 l 513 594 q 451 640 500 640 q 321 642 339 640 l 297 474 l 265 474 m 325 665 l 444 665 q 535 683 508 667 q 568 756 563 700 q 552 820 575 806 q 461 835 529 835 l 349 833 l 325 665 z "},"¯":{"ha":556,"x_min":168,"x_max":542,"o":"m 536 863 l 168 863 l 174 908 l 542 908 l 536 863 z "},"°":{"ha":522,"x_min":143,"x_max":489,"o":"m 332 975 q 453 926 408 975 q 489 800 497 876 q 426 676 481 722 q 299 629 372 629 q 178 681 219 629 q 143 807 136 733 q 205 928 151 882 q 332 975 258 975 m 423 900 q 407 919 423 900 q 331 938 390 938 q 230 899 271 938 q 183 801 189 861 q 210 705 178 743 q 300 667 242 667 q 401 704 358 667 q 449 804 443 742 q 423 900 456 863 z "},"±":{"ha":825,"x_min":78,"x_max":719,"o":"m 719 508 l 713 464 l 443 464 l 414 264 l 369 264 l 397 464 l 126 464 l 133 508 l 403 508 l 431 708 l 478 708 l 449 508 l 719 508 m 85 167 l 672 167 l 665 122 l 78 122 l 85 167 z "},"²":{"ha":596,"x_min":107,"x_max":551,"o":"m 193 1026 l 189 1063 q 376 1085 290 1085 q 517 1059 472 1085 q 551 963 561 1033 q 510 861 543 908 q 401 746 476 814 l 174 544 q 276 546 208 546 l 517 546 l 513 500 l 107 500 l 110 531 q 119 551 113 546 l 354 761 q 463 874 428 826 q 503 968 497 922 q 477 1028 507 1014 q 376 1042 447 1042 q 193 1026 292 1042 z "},"³":{"ha":569,"x_min":106,"x_max":536,"o":"m 197 1033 l 193 1071 q 361 1085 282 1085 q 506 1053 467 1085 q 536 950 546 1022 q 421 806 518 819 l 419 801 q 514 658 533 786 q 449 541 503 588 q 288 490 394 494 q 106 504 200 486 l 114 542 q 282 533 213 529 q 467 667 447 544 q 449 751 475 719 q 342 785 422 783 l 224 785 l 228 821 l 344 824 q 432 844 399 824 q 476 889 465 865 q 490 946 486 913 q 470 1023 497 1003 q 356 1043 443 1043 q 197 1033 297 1043 z "},"´":{"ha":399,"x_min":143,"x_max":418,"o":"m 418 949 l 167 760 l 143 788 l 386 992 l 418 949 z "},"¶":{"ha":826,"x_min":100,"x_max":758,"o":"m 293 -292 l 374 279 q 100 649 51 315 q 227 908 128 840 q 551 975 326 975 q 758 951 661 975 l 624 0 l 574 0 l 704 921 q 514 932 635 929 l 342 -292 l 293 -292 z "},"·":{"ha":294,"x_min":100,"x_max":181,"o":"m 139 422 l 160 422 q 181 397 183 422 l 168 314 q 143 292 167 292 l 122 292 q 100 317 97 292 l 113 400 q 139 422 117 422 z "},"¸":{"ha":310,"x_min":-33,"x_max":189,"o":"m 74 -94 l 79 -65 q 189 -160 207 -57 q 116 -277 178 -235 q -33 -308 54 -319 l -22 -276 q 90 -244 43 -279 q 146 -156 138 -208 q 136 -108 151 -121 q 74 -94 121 -96 z "},"¹":{"ha":393,"x_min":142,"x_max":368,"o":"m 286 500 l 239 500 l 307 985 q 317 1029 311 1011 l 144 981 l 142 1015 l 319 1075 l 368 1075 l 286 500 z "},"º":{"ha":618,"x_min":124,"x_max":547,"o":"m 364 836 q 525 783 483 836 q 547 597 567 729 q 475 417 529 468 q 306 365 421 365 q 147 419 188 365 q 124 604 106 472 q 195 784 142 732 q 364 836 249 836 m 365 797 q 228 754 271 797 q 171 597 186 711 q 185 446 156 488 q 306 404 214 404 q 440 448 397 404 q 500 604 483 492 q 486 756 515 715 q 365 797 457 797 z "},"»":{"ha":635,"x_min":42,"x_max":560,"o":"m 42 85 l 278 346 l 114 611 l 143 632 l 332 350 l 331 335 l 67 61 l 42 85 m 269 85 l 506 346 l 342 611 l 371 632 l 560 350 l 558 335 l 294 61 l 269 85 z "},"¼":{"ha":1165,"x_min":114,"x_max":1071,"o":"m 951 958 l 161 0 l 114 0 l 904 958 l 951 958 m 133 867 l 132 897 l 311 958 l 357 958 l 276 383 l 231 383 l 299 872 q 308 917 306 907 l 133 867 m 1065 158 l 1000 154 l 978 0 l 935 0 l 956 153 l 653 153 q 608 176 621 153 q 614 228 596 200 l 860 575 l 908 575 l 663 226 q 658 201 653 213 q 682 190 664 190 l 961 190 l 986 369 l 1008 467 l 1043 467 l 1006 190 l 1071 190 l 1065 158 z "},"½":{"ha":1201,"x_min":111,"x_max":1108,"o":"m 158 0 l 111 0 l 900 958 l 947 958 l 158 0 m 275 383 l 229 383 l 297 872 q 307 917 301 899 l 133 867 l 131 897 l 310 958 l 356 958 l 275 383 m 746 529 l 740 563 q 929 585 844 585 q 1076 560 1032 585 q 1108 461 1119 535 q 1066 362 1101 410 q 954 246 1031 314 l 719 40 q 828 40 774 42 l 1078 40 l 1071 0 l 657 0 l 661 28 q 672 49 663 39 l 910 258 q 1060 468 1049 383 q 1035 531 1065 517 q 932 544 1004 544 q 746 529 844 544 z "},"¾":{"ha":1293,"x_min":85,"x_max":1197,"o":"m 401 688 l 397 685 q 499 536 513 668 q 438 410 488 450 q 281 371 388 371 q 85 385 207 371 l 90 419 q 269 410 190 410 q 399 442 357 410 q 451 547 442 474 q 434 633 460 601 q 324 667 408 665 l 203 667 l 208 700 l 325 701 q 478 828 461 704 q 456 906 486 885 q 339 926 426 926 q 175 918 264 926 l 171 951 q 340 965 258 965 q 494 935 454 965 q 524 829 535 906 q 401 688 507 706 m 1097 958 l 307 0 l 260 0 l 1050 958 l 1097 958 m 1193 158 l 1115 154 l 1094 0 l 1050 0 l 1072 153 l 779 153 q 735 176 749 153 q 740 228 722 200 l 988 575 l 1035 575 l 789 226 q 785 201 779 213 q 808 190 790 190 l 1076 190 l 1103 369 l 1125 467 l 1160 467 l 1121 190 l 1197 190 l 1193 158 z "},"¿":{"ha":690,"x_min":0,"x_max":538,"o":"m 385 683 l 404 683 q 425 660 429 683 l 414 576 q 389 553 413 553 l 371 553 q 349 578 347 553 l 361 663 q 385 683 363 683 m 331 400 l 379 397 q 335 266 369 325 q 259 167 301 207 q 174 90 217 126 q 99 9 132 54 q 58 -87 65 -36 q 92 -216 46 -175 q 253 -257 139 -257 q 532 -239 383 -257 l 538 -279 q 488 -287 521 -282 q 438 -295 454 -293 q 391 -300 421 -297 q 326 -304 361 -303 q 247 -306 292 -306 q 49 -250 111 -306 q 0 -86 -14 -194 q 42 20 8 -29 q 119 107 75 69 q 206 183 163 144 q 285 278 250 222 q 331 400 321 333 z "},"À":{"ha":839,"x_min":-33,"x_max":764,"o":"m 544 1019 l 340 1210 l 376 1250 l 569 1046 l 544 1019 m 636 336 l 194 336 l 29 0 l -33 0 l 435 942 q 460 958 440 958 l 538 958 q 561 939 558 958 l 764 0 l 706 0 l 636 336 m 625 388 l 532 833 q 525 869 531 843 q 517 911 519 896 l 475 911 l 438 832 l 218 388 l 625 388 z "},"Á":{"ha":839,"x_min":-33,"x_max":764,"o":"m 463 1019 l 439 1049 l 682 1251 l 714 1208 l 463 1019 m 636 336 l 194 336 l 29 0 l -33 0 l 435 942 q 460 958 440 958 l 538 958 q 561 939 558 958 l 764 0 l 706 0 l 636 336 m 625 388 l 532 833 q 525 869 531 843 q 517 911 519 896 l 475 911 l 438 832 l 218 388 l 625 388 z "},"Â":{"ha":839,"x_min":-33,"x_max":764,"o":"m 325 1035 l 307 1063 l 517 1228 l 557 1228 l 725 1060 l 701 1036 l 540 1176 l 528 1176 l 325 1035 m 636 336 l 194 336 l 29 0 l -33 0 l 435 942 q 460 958 440 958 l 538 958 q 561 939 558 958 l 764 0 l 706 0 l 636 336 m 625 388 l 532 833 q 525 869 531 843 q 517 911 519 896 l 475 911 l 438 832 l 218 388 l 625 388 z "},"Ã":{"ha":839,"x_min":-33,"x_max":764,"o":"m 710 1203 l 742 1199 q 703 1102 736 1135 q 622 1074 671 1069 q 518 1119 571 1078 q 436 1164 465 1160 q 372 1146 394 1168 q 343 1074 350 1124 l 311 1076 q 350 1178 317 1143 q 432 1208 383 1213 q 527 1163 475 1204 q 617 1118 579 1121 q 710 1203 697 1110 m 636 336 l 194 336 l 29 0 l -33 0 l 435 942 q 460 958 440 958 l 538 958 q 561 939 558 958 l 764 0 l 706 0 l 636 336 m 625 388 l 532 833 q 525 869 531 843 q 517 911 519 896 l 475 911 l 438 832 l 218 388 l 625 388 z "},"Ä":{"ha":839,"x_min":-33,"x_max":764,"o":"m 404 1076 l 388 1076 q 369 1097 368 1076 l 381 1172 q 403 1194 382 1194 l 422 1194 q 439 1172 440 1194 l 428 1099 q 404 1076 426 1076 m 647 1076 l 631 1076 q 613 1097 611 1076 l 624 1172 q 646 1194 625 1194 l 665 1194 q 682 1172 683 1194 l 671 1099 q 647 1076 669 1076 m 636 336 l 194 336 l 29 0 l -33 0 l 435 942 q 460 958 440 958 l 538 958 q 561 939 558 958 l 764 0 l 706 0 l 636 336 m 625 388 l 532 833 q 525 869 531 843 q 517 911 519 896 l 475 911 l 438 832 l 218 388 l 625 388 z "},"Å":{"ha":839,"x_min":-33,"x_max":764,"o":"m 514 997 q 417 1038 453 997 q 389 1136 382 1078 q 436 1229 396 1190 q 536 1268 476 1268 q 633 1228 597 1268 q 663 1129 669 1188 q 615 1036 656 1075 q 514 997 574 997 m 426 1131 q 447 1060 422 1088 q 514 1032 471 1032 q 588 1062 557 1032 q 624 1135 618 1092 q 605 1205 629 1176 q 536 1233 581 1233 q 463 1203 493 1233 q 426 1131 432 1174 m 636 336 l 194 336 l 29 0 l -33 0 l 435 942 q 460 958 440 958 l 538 958 q 561 939 558 958 l 764 0 l 706 0 l 636 336 m 625 388 l 532 833 q 525 869 531 843 q 517 911 519 896 l 475 911 l 438 832 l 218 388 l 625 388 z "},"Æ":{"ha":1258,"x_min":-46,"x_max":1258,"o":"m 1251 910 l 883 910 q 801 880 835 910 q 758 799 767 850 l 722 535 l 1142 535 l 1135 488 l 715 488 l 669 156 q 687 78 663 107 q 760 49 711 49 l 1131 49 l 1128 6 q 749 0 1000 0 q 642 44 679 0 q 614 156 604 88 l 643 361 l 300 361 l 18 0 l -46 0 l 604 833 q 722 933 664 908 q 869 958 781 958 q 1258 953 1115 958 l 1251 910 m 650 410 l 706 807 q 728 869 708 839 q 772 910 749 900 l 767 910 q 651 811 710 888 l 339 410 l 650 410 z "},"Ç":{"ha":776,"x_min":110,"x_max":781,"o":"m 664 53 l 671 10 q 404 -17 557 -17 q 138 97 204 -17 q 110 482 71 210 q 243 865 149 756 q 535 975 338 975 q 781 950 681 975 l 768 908 q 536 924 661 924 q 283 826 363 924 q 168 476 204 729 q 185 132 133 229 q 403 35 236 35 q 664 53 556 35 m 333 -111 l 340 -82 q 450 -176 468 -74 q 377 -294 439 -251 q 226 -325 315 -336 l 238 -293 q 351 -260 304 -296 q 407 -172 399 -225 q 396 -125 411 -137 q 333 -111 381 -112 z "},"È":{"ha":765,"x_min":93,"x_max":765,"o":"m 544 1053 l 340 1243 l 376 1283 l 571 1079 l 544 1053 m 757 910 l 364 910 q 240 799 256 910 l 203 535 l 649 535 l 642 489 l 197 489 l 151 156 q 169 78 144 107 q 242 49 193 49 l 636 49 l 636 6 q 232 0 503 0 q 121 43 160 0 q 93 156 82 86 l 185 813 q 239 919 194 879 q 354 958 283 958 q 765 953 631 958 l 757 910 z "},"É":{"ha":765,"x_min":93,"x_max":765,"o":"m 464 1053 l 440 1081 l 683 1285 l 715 1242 l 464 1053 m 757 910 l 364 910 q 240 799 256 910 l 203 535 l 649 535 l 642 489 l 197 489 l 151 156 q 169 78 144 107 q 242 49 193 49 l 636 49 l 636 6 q 232 0 503 0 q 121 43 160 0 q 93 156 82 86 l 185 813 q 239 919 194 879 q 354 958 283 958 q 765 953 631 958 l 757 910 z "},"Ê":{"ha":765,"x_min":93,"x_max":765,"o":"m 326 1068 l 307 1094 l 517 1261 l 557 1261 l 726 1093 l 703 1068 l 542 1210 l 529 1210 l 326 1068 m 757 910 l 364 910 q 240 799 256 910 l 203 535 l 649 535 l 642 489 l 197 489 l 151 156 q 169 78 144 107 q 242 49 193 49 l 636 49 l 636 6 q 232 0 503 0 q 121 43 160 0 q 93 156 82 86 l 185 813 q 239 919 194 879 q 354 958 283 958 q 765 953 631 958 l 757 910 z "},"Ë":{"ha":765,"x_min":93,"x_max":765,"o":"m 406 1110 l 389 1110 q 371 1131 367 1110 l 382 1206 q 404 1226 383 1226 l 422 1226 q 440 1206 442 1226 l 428 1132 q 406 1110 426 1110 m 649 1110 l 632 1110 q 614 1131 610 1110 l 625 1206 q 647 1226 626 1226 l 665 1226 q 683 1206 685 1226 l 671 1132 q 649 1110 669 1110 m 757 910 l 364 910 q 240 799 256 910 l 203 535 l 649 535 l 642 489 l 197 489 l 151 156 q 169 78 144 107 q 242 49 193 49 l 636 49 l 636 6 q 232 0 503 0 q 121 43 160 0 q 93 156 82 86 l 185 813 q 239 919 194 879 q 354 958 283 958 q 765 953 631 958 l 757 910 z "},"Ì":{"ha":332,"x_min":81,"x_max":311,"o":"m 311 1046 l 286 1019 l 82 1210 l 118 1250 l 311 1046 m 138 0 l 81 0 l 215 958 l 272 958 l 138 0 z "},"Í":{"ha":332,"x_min":81,"x_max":456,"o":"m 456 1208 l 204 1019 l 181 1049 l 424 1251 l 456 1208 m 138 0 l 81 0 l 215 958 l 272 958 l 138 0 z "},"Î":{"ha":332,"x_min":49,"x_max":468,"o":"m 468 1060 l 443 1036 l 282 1176 l 271 1176 l 68 1035 l 49 1063 l 258 1228 l 299 1228 l 468 1060 m 138 0 l 81 0 l 215 958 l 272 958 l 138 0 z "},"Ï":{"ha":332,"x_min":81,"x_max":424,"o":"m 144 1194 l 164 1194 q 181 1172 182 1194 l 169 1099 q 147 1076 168 1076 l 129 1076 q 111 1097 110 1076 l 122 1172 q 144 1194 126 1194 m 388 1194 l 407 1194 q 424 1172 425 1194 l 413 1099 q 389 1076 411 1076 l 372 1076 q 354 1097 353 1076 l 365 1172 q 388 1194 369 1194 m 138 0 l 81 0 l 215 958 l 272 958 l 138 0 z "},"Ð":{"ha":915,"x_min":40,"x_max":826,"o":"m 156 533 l 215 958 q 532 971 383 971 q 798 860 732 971 q 826 476 864 750 q 694 92 788 196 q 399 -12 600 -12 q 81 0 250 -12 l 150 494 l 40 494 l 46 533 l 156 533 m 207 494 l 143 43 q 397 39 260 39 q 651 133 571 39 q 768 482 732 228 q 751 825 803 731 q 531 919 699 919 q 267 915 386 919 l 213 533 l 453 533 l 449 494 l 207 494 z "},"Ñ":{"ha":961,"x_min":81,"x_max":901,"o":"m 413 1074 l 381 1076 q 419 1178 386 1144 q 501 1208 451 1213 q 595 1163 543 1204 q 686 1118 647 1121 q 778 1203 768 1110 l 810 1199 q 772 1102 804 1135 q 690 1074 740 1069 q 618 1097 650 1076 q 559 1140 586 1118 q 506 1164 532 1161 q 413 1074 425 1172 m 901 958 l 771 26 q 742 0 767 0 l 671 0 q 640 24 649 0 l 333 806 q 294 907 299 896 l 263 907 q 249 793 254 835 l 138 0 l 81 0 l 211 932 q 240 958 215 958 l 308 958 q 339 935 331 958 l 639 171 q 683 51 660 119 l 719 51 q 736 175 735 171 l 844 958 l 901 958 z "},"Ò":{"ha":919,"x_min":110,"x_max":829,"o":"m 613 1046 l 586 1019 l 382 1210 l 418 1250 l 613 1046 m 536 975 q 801 863 735 975 q 829 476 868 750 q 698 92 792 201 q 406 -17 604 -17 q 139 95 207 -17 q 110 482 71 207 q 242 865 149 756 q 536 975 336 975 m 535 924 q 283 826 363 924 q 168 476 204 728 q 187 132 135 229 q 406 35 239 35 q 656 133 576 35 q 771 482 735 231 q 756 828 807 732 q 535 924 704 924 z "},"Ó":{"ha":919,"x_min":110,"x_max":829,"o":"m 757 1208 l 506 1019 l 482 1049 l 725 1251 l 757 1208 m 536 975 q 801 863 735 975 q 829 476 868 750 q 698 92 792 201 q 406 -17 604 -17 q 139 95 207 -17 q 110 482 71 207 q 242 865 149 756 q 536 975 336 975 m 535 924 q 283 826 363 924 q 168 476 204 728 q 187 132 135 229 q 406 35 239 35 q 656 133 576 35 q 771 482 735 231 q 756 828 807 732 q 535 924 704 924 z "},"Ô":{"ha":919,"x_min":110,"x_max":829,"o":"m 768 1060 l 744 1036 l 583 1176 l 571 1176 l 368 1035 l 349 1063 l 558 1228 l 599 1228 l 768 1060 m 536 975 q 801 863 735 975 q 829 476 868 750 q 698 92 792 201 q 406 -17 604 -17 q 139 95 207 -17 q 110 482 71 207 q 242 865 149 756 q 536 975 336 975 m 535 924 q 283 826 363 924 q 168 476 204 728 q 187 132 135 229 q 406 35 239 35 q 656 133 576 35 q 771 482 735 231 q 756 828 807 732 q 535 924 704 924 z "},"Õ":{"ha":919,"x_min":110,"x_max":829,"o":"m 386 1074 l 354 1076 q 392 1178 360 1144 q 475 1208 425 1213 q 569 1163 518 1204 q 658 1118 621 1121 q 751 1203 742 1110 l 783 1199 q 746 1102 778 1135 q 664 1074 714 1069 q 592 1097 624 1076 q 533 1140 560 1118 q 479 1164 506 1161 q 386 1074 399 1172 m 536 975 q 801 863 735 975 q 829 476 868 750 q 698 92 792 201 q 406 -17 604 -17 q 139 95 207 -17 q 110 482 71 207 q 242 865 149 756 q 536 975 336 975 m 535 924 q 283 826 363 924 q 168 476 204 728 q 187 132 135 229 q 406 35 239 35 q 656 133 576 35 q 771 482 735 231 q 756 828 807 732 q 535 924 704 924 z "},"Ö":{"ha":919,"x_min":110,"x_max":829,"o":"m 446 1194 l 464 1194 q 482 1172 483 1194 l 469 1099 q 447 1076 468 1076 l 431 1076 q 413 1097 408 1076 l 424 1172 q 446 1194 425 1194 m 689 1194 l 707 1194 q 725 1172 726 1194 l 713 1099 q 690 1076 711 1076 l 672 1076 q 654 1097 653 1076 l 667 1172 q 689 1194 668 1194 m 536 975 q 801 863 735 975 q 829 476 868 750 q 698 92 792 201 q 406 -17 604 -17 q 139 95 207 -17 q 110 482 71 207 q 242 865 149 756 q 536 975 336 975 m 535 924 q 283 826 363 924 q 168 476 204 728 q 187 132 135 229 q 406 35 239 35 q 656 133 576 35 q 771 482 735 231 q 756 828 807 732 q 535 924 704 924 z "},"×":{"ha":731,"x_min":74,"x_max":654,"o":"m 399 399 l 593 197 l 560 163 l 361 368 l 103 163 l 74 200 l 328 403 l 135 601 l 168 635 l 365 432 l 624 639 l 654 601 l 399 399 z "},"Ø":{"ha":919,"x_min":110,"x_max":838,"o":"m 818 1014 l 758 915 q 838 756 821 863 q 829 476 854 649 q 698 92 792 201 q 406 -17 604 -17 q 214 22 282 -17 l 156 -74 l 121 -54 l 182 44 q 110 482 63 146 q 242 865 149 756 q 536 975 336 975 q 725 938 658 975 l 783 1033 l 818 1014 m 213 96 l 696 890 q 535 924 640 924 q 283 826 363 924 q 168 476 204 728 q 158 236 147 329 q 213 96 168 143 m 728 865 l 243 71 q 406 35 301 35 q 656 133 576 35 q 771 482 735 231 q 783 726 793 632 q 728 865 774 819 z "},"Ù":{"ha":925,"x_min":124,"x_max":874,"o":"m 611 1046 l 585 1019 l 381 1210 l 417 1250 l 611 1046 m 874 958 l 789 356 q 674 68 760 153 q 410 -17 589 -17 q 162 70 228 -17 q 124 360 96 157 l 207 958 l 265 958 l 181 356 q 207 106 156 178 q 408 35 258 35 q 633 108 560 35 q 732 360 707 182 l 815 958 l 874 958 z "},"Ú":{"ha":925,"x_min":124,"x_max":874,"o":"m 756 1208 l 504 1019 l 481 1049 l 724 1251 l 756 1208 m 874 958 l 789 356 q 674 68 760 153 q 410 -17 589 -17 q 162 70 228 -17 q 124 360 96 157 l 207 958 l 265 958 l 181 356 q 207 106 156 178 q 408 35 258 35 q 633 108 560 35 q 732 360 707 182 l 815 958 l 874 958 z "},"Û":{"ha":925,"x_min":124,"x_max":874,"o":"m 767 1060 l 743 1036 l 582 1176 l 569 1176 l 367 1035 l 347 1063 l 557 1228 l 597 1228 l 767 1060 m 874 958 l 789 356 q 674 68 760 153 q 410 -17 589 -17 q 162 70 228 -17 q 124 360 96 157 l 207 958 l 265 958 l 181 356 q 207 106 156 178 q 408 35 258 35 q 633 108 560 35 q 732 360 707 182 l 815 958 l 874 958 z "},"Ü":{"ha":925,"x_min":124,"x_max":874,"o":"m 444 1194 l 463 1194 q 481 1172 482 1194 l 468 1099 q 446 1076 467 1076 l 429 1076 q 411 1097 407 1076 l 422 1172 q 444 1194 424 1194 m 688 1194 l 706 1194 q 724 1172 725 1194 l 711 1099 q 689 1076 710 1076 l 671 1076 q 653 1097 651 1076 l 665 1172 q 688 1194 667 1194 m 874 958 l 789 356 q 674 68 760 153 q 410 -17 589 -17 q 162 70 228 -17 q 124 360 96 157 l 207 958 l 265 958 l 181 356 q 207 106 156 178 q 408 35 258 35 q 633 108 560 35 q 732 360 707 182 l 815 958 l 874 958 z "},"Ý":{"ha":754,"x_min":99,"x_max":804,"o":"m 414 1019 l 390 1049 l 632 1251 l 665 1208 l 414 1019 m 396 351 l 346 0 l 288 0 l 339 353 l 99 958 l 157 958 l 332 510 q 368 410 357 444 l 378 410 q 440 511 406 460 l 742 958 l 804 958 l 396 351 z "},"Þ":{"ha":811,"x_min":81,"x_max":746,"o":"m 274 958 l 247 769 q 499 775 319 775 q 714 713 657 775 q 746 485 771 650 q 654 260 724 319 q 429 200 585 200 q 168 210 294 200 l 139 0 l 81 0 l 189 763 l 189 764 l 215 958 l 274 958 m 174 251 l 425 251 q 613 303 556 254 q 689 492 669 351 q 667 677 707 629 q 499 725 626 725 q 240 722 346 725 l 174 251 z "},"ß":{"ha":907,"x_min":-175,"x_max":813,"o":"m 536 401 l 703 318 q 794 248 769 285 q 811 143 819 211 q 735 15 797 46 q 549 -15 674 -15 q 333 0 436 -15 l 340 42 q 554 33 457 31 q 699 58 653 35 q 756 151 746 81 q 756 199 760 179 q 739 234 753 219 q 717 254 725 249 q 685 272 708 260 q 675 278 678 276 l 508 361 q 426 425 450 392 q 408 511 403 458 q 415 542 410 528 q 424 567 419 556 q 440 589 429 578 q 458 607 451 600 q 481 623 464 614 q 505 637 497 632 q 534 650 513 642 q 563 662 556 658 q 597 674 571 665 q 631 686 622 683 q 672 704 657 696 q 711 729 688 713 q 747 772 735 746 q 761 832 760 797 q 749 894 764 871 q 684 931 733 917 q 543 944 635 944 q 342 903 399 944 q 267 738 285 861 l 149 -101 q 88 -246 133 -203 q -51 -289 43 -289 q -175 -282 -106 -289 l -169 -240 l -61 -240 q 48 -208 14 -240 q 94 -94 82 -176 l 196 622 l 74 622 l 79 663 l 201 668 l 213 743 q 243 856 222 810 q 290 929 264 903 q 358 969 317 956 q 437 988 400 983 q 529 992 474 992 q 756 957 690 992 q 813 828 821 922 q 768 718 807 757 q 653 649 729 679 q 605 632 642 644 q 558 615 568 619 q 523 599 547 611 q 490 575 499 586 q 473 546 482 564 q 461 506 464 528 q 475 447 458 469 q 536 401 492 424 z "},"à":{"ha":786,"x_min":90,"x_max":700,"o":"m 486 767 l 282 957 l 318 997 l 511 793 l 486 767 m 607 0 l 564 0 l 582 164 q 417 31 507 79 q 251 -17 326 -17 q 94 65 129 -17 q 90 339 60 147 q 192 618 124 550 q 435 686 261 686 q 700 665 551 686 l 607 0 m 582 217 l 639 629 q 446 638 481 638 q 231 581 286 638 q 146 332 175 524 q 141 101 118 169 q 257 33 164 33 q 413 81 326 33 q 582 217 500 129 z "},"á":{"ha":786,"x_min":90,"x_max":700,"o":"m 406 767 l 381 796 l 624 999 l 657 956 l 406 767 m 607 0 l 564 0 l 582 164 q 417 31 507 79 q 251 -17 326 -17 q 94 65 129 -17 q 90 339 60 147 q 192 618 124 550 q 435 686 261 686 q 700 665 551 686 l 607 0 m 582 217 l 639 629 q 446 638 481 638 q 231 581 286 638 q 146 332 175 524 q 141 101 118 169 q 257 33 164 33 q 413 81 326 33 q 582 217 500 129 z "},"â":{"ha":786,"x_min":90,"x_max":700,"o":"m 268 783 l 249 810 l 458 976 l 499 976 l 668 808 l 644 783 l 483 925 l 471 925 l 268 783 m 607 0 l 564 0 l 582 164 q 417 31 507 79 q 251 -17 326 -17 q 94 65 129 -17 q 90 339 60 147 q 192 618 124 550 q 435 686 261 686 q 700 665 551 686 l 607 0 m 582 217 l 639 629 q 446 638 481 638 q 231 581 286 638 q 146 332 175 524 q 141 101 118 169 q 257 33 164 33 q 413 81 326 33 q 582 217 500 129 z "},"ã":{"ha":786,"x_min":90,"x_max":700,"o":"m 651 950 l 683 947 q 646 850 678 883 q 564 821 614 817 q 460 867 513 825 q 379 911 407 908 q 285 821 300 919 l 253 825 q 292 926 260 893 q 374 956 325 960 q 469 910 417 951 q 558 865 521 869 q 623 883 601 863 q 651 950 644 903 m 607 0 l 564 0 l 582 164 q 417 31 507 79 q 251 -17 326 -17 q 94 65 129 -17 q 90 339 60 147 q 192 618 124 550 q 435 686 261 686 q 700 665 551 686 l 607 0 m 582 217 l 639 629 q 446 638 481 638 q 231 581 286 638 q 146 332 175 524 q 141 101 118 169 q 257 33 164 33 q 413 81 326 33 q 582 217 500 129 z "},"ä":{"ha":786,"x_min":90,"x_max":700,"o":"m 347 825 l 329 825 q 311 846 310 825 l 324 921 q 346 942 325 942 l 364 942 q 381 921 385 942 l 369 847 q 347 825 368 825 m 590 825 l 572 825 q 554 846 553 825 l 565 921 q 589 942 569 942 l 607 942 q 624 921 628 942 l 613 847 q 590 825 611 825 m 607 0 l 564 0 l 582 164 q 417 31 507 79 q 251 -17 326 -17 q 94 65 129 -17 q 90 339 60 147 q 192 618 124 550 q 435 686 261 686 q 700 665 551 686 l 607 0 m 582 217 l 639 629 q 446 638 481 638 q 231 581 286 638 q 146 332 175 524 q 141 101 118 169 q 257 33 164 33 q 413 81 326 33 q 582 217 500 129 z "},"å":{"ha":786,"x_min":90,"x_max":700,"o":"m 456 744 q 359 785 394 744 q 331 883 324 825 q 378 978 338 939 q 479 1017 419 1017 q 575 976 539 1017 q 604 878 611 936 q 556 784 597 824 q 456 744 515 744 m 369 878 q 389 808 364 836 q 457 781 414 781 q 530 810 499 781 q 565 883 561 840 q 547 952 571 924 q 479 981 524 981 q 404 951 435 981 q 369 878 374 921 m 607 0 l 564 0 l 582 164 q 417 31 507 79 q 251 -17 326 -17 q 94 65 129 -17 q 90 339 60 147 q 192 618 124 550 q 435 686 261 686 q 700 665 551 686 l 607 0 m 582 217 l 639 629 q 446 638 481 638 q 231 581 286 638 q 146 332 175 524 q 141 101 118 169 q 257 33 164 33 q 413 81 326 33 q 582 217 500 129 z "},"æ":{"ha":1211,"x_min":88,"x_max":1138,"o":"m 1064 50 l 1069 11 q 804 -17 976 -17 q 626 24 686 -17 q 551 154 565 65 q 238 -17 406 -17 q 90 69 121 -17 q 88 339 60 156 q 189 617 119 549 q 426 686 258 686 q 722 656 556 686 q 907 686 792 686 q 1105 640 1046 686 q 1138 478 1164 593 q 1069 358 1119 393 q 908 313 1018 324 l 606 281 q 639 84 590 136 q 819 32 688 32 q 1064 50 932 32 m 244 33 q 546 201 389 33 q 557 343 544 258 q 668 619 585 542 q 438 638 493 638 q 307 625 356 638 q 225 576 258 613 q 175 484 192 539 q 143 332 158 429 q 138 104 117 175 q 244 33 158 33 m 611 325 l 908 358 q 1031 393 994 368 q 1083 482 1068 418 q 1091 542 1089 517 q 1081 584 1093 567 q 1055 612 1068 601 q 1017 628 1042 622 q 968 635 992 633 q 911 638 944 638 q 791 627 836 638 q 708 585 746 617 q 649 494 671 553 q 613 339 628 436 l 611 325 z "},"ç":{"ha":663,"x_min":79,"x_max":626,"o":"m 549 49 l 554 10 q 343 -17 451 -17 q 113 64 172 -17 q 79 338 53 144 q 186 608 106 529 q 433 686 267 686 q 626 660 549 686 l 615 622 q 443 636 553 636 q 228 572 296 636 q 138 332 161 507 q 160 96 113 158 q 351 33 207 33 q 549 49 469 33 m 271 -111 l 278 -82 q 368 -100 340 -78 q 388 -176 396 -122 q 315 -294 376 -251 q 164 -325 253 -336 l 175 -293 q 288 -260 242 -296 q 343 -172 335 -225 q 333 -125 349 -137 q 271 -111 318 -112 z "},"è":{"ha":735,"x_min":81,"x_max":663,"o":"m 472 767 l 268 957 l 304 997 l 499 793 l 472 767 m 590 50 l 596 11 q 329 -17 501 -17 q 108 66 164 -17 q 81 343 53 149 q 123 516 96 449 q 194 621 150 583 q 294 672 239 658 q 432 686 349 686 q 630 640 571 686 q 663 478 689 593 q 594 358 644 393 q 432 313 543 324 l 129 281 q 164 84 115 136 q 344 32 213 32 q 590 50 456 32 m 135 325 l 433 358 q 556 393 519 368 q 608 482 592 418 q 616 542 614 517 q 606 584 618 567 q 580 612 593 601 q 542 628 567 622 q 492 635 517 633 q 435 638 468 638 q 315 627 360 638 q 233 585 269 617 q 174 494 196 553 q 138 339 153 436 l 135 325 z "},"é":{"ha":735,"x_min":81,"x_max":663,"o":"m 392 767 l 368 796 l 610 999 l 643 956 l 392 767 m 590 50 l 596 11 q 329 -17 501 -17 q 108 66 164 -17 q 81 343 53 149 q 123 516 96 449 q 194 621 150 583 q 294 672 239 658 q 432 686 349 686 q 630 640 571 686 q 663 478 689 593 q 594 358 644 393 q 432 313 543 324 l 129 281 q 164 84 115 136 q 344 32 213 32 q 590 50 456 32 m 135 325 l 433 358 q 556 393 519 368 q 608 482 592 418 q 616 542 614 517 q 606 584 618 567 q 580 612 593 601 q 542 628 567 622 q 492 635 517 633 q 435 638 468 638 q 315 627 360 638 q 233 585 269 617 q 174 494 196 553 q 138 339 153 436 l 135 325 z "},"ê":{"ha":735,"x_min":81,"x_max":663,"o":"m 254 783 l 235 810 l 444 976 l 485 976 l 654 808 l 631 783 l 469 925 l 457 925 l 254 783 m 590 50 l 596 11 q 329 -17 501 -17 q 108 66 164 -17 q 81 343 53 149 q 123 516 96 449 q 194 621 150 583 q 294 672 239 658 q 432 686 349 686 q 630 640 571 686 q 663 478 689 593 q 594 358 644 393 q 432 313 543 324 l 129 281 q 164 84 115 136 q 344 32 213 32 q 590 50 456 32 m 135 325 l 433 358 q 556 393 519 368 q 608 482 592 418 q 616 542 614 517 q 606 584 618 567 q 580 612 593 601 q 542 628 567 622 q 492 635 517 633 q 435 638 468 638 q 315 627 360 638 q 233 585 269 617 q 174 494 196 553 q 138 339 153 436 l 135 325 z "},"ë":{"ha":735,"x_min":81,"x_max":663,"o":"m 333 825 l 315 825 q 297 846 296 825 l 310 921 q 332 942 311 942 l 350 942 q 368 921 369 942 l 356 847 q 333 825 354 825 m 576 825 l 558 825 q 540 846 539 825 l 553 921 q 575 942 556 942 l 593 942 q 610 921 614 942 l 599 847 q 576 825 597 825 m 590 50 l 596 11 q 329 -17 501 -17 q 108 66 164 -17 q 81 343 53 149 q 123 516 96 449 q 194 621 150 583 q 294 672 239 658 q 432 686 349 686 q 630 640 571 686 q 663 478 689 593 q 594 358 644 393 q 432 313 543 324 l 129 281 q 164 84 115 136 q 344 32 213 32 q 590 50 456 32 m 135 325 l 433 358 q 556 393 519 368 q 608 482 592 418 q 616 542 614 517 q 606 584 618 567 q 580 612 593 601 q 542 628 567 622 q 492 635 517 633 q 435 638 468 638 q 315 627 360 638 q 233 585 269 617 q 174 494 196 553 q 138 339 153 436 l 135 325 z "},"ì":{"ha":313,"x_min":38,"x_max":267,"o":"m 267 793 l 242 767 l 38 957 l 74 997 l 267 793 m 126 0 l 72 0 l 167 669 l 222 669 l 126 0 z "},"í":{"ha":313,"x_min":72,"x_max":411,"o":"m 411 956 l 160 767 l 136 796 l 379 999 l 411 956 m 126 0 l 72 0 l 167 669 l 222 669 l 126 0 z "},"î":{"ha":313,"x_min":4,"x_max":424,"o":"m 424 808 l 399 783 l 238 925 l 226 925 l 24 783 l 4 810 l 214 976 l 254 976 l 424 808 m 126 0 l 72 0 l 167 669 l 222 669 l 126 0 z "},"ï":{"ha":313,"x_min":67,"x_max":379,"o":"m 100 942 l 119 942 q 136 921 139 942 l 125 847 q 103 825 124 825 l 85 825 q 67 846 65 825 l 78 921 q 100 942 82 942 m 343 942 l 363 942 q 379 921 381 942 l 368 847 q 344 825 367 825 l 328 825 q 310 846 308 825 l 321 921 q 343 942 325 942 m 126 0 l 72 0 l 167 669 l 222 669 l 126 0 z "},"ð":{"ha":761,"x_min":76,"x_max":669,"o":"m 669 943 l 553 868 q 653 386 700 724 q 622 230 640 293 q 569 106 604 167 q 471 14 533 44 q 318 -17 408 -17 q 112 62 171 -17 q 76 310 53 140 q 388 621 119 621 q 610 522 535 621 q 510 840 614 739 l 372 751 l 356 781 l 482 864 q 235 929 393 929 l 246 969 q 525 892 422 972 l 651 974 l 669 943 m 318 32 q 515 122 456 32 q 600 401 575 213 q 608 478 606 454 q 390 572 533 572 q 210 501 269 572 q 133 301 150 431 q 158 94 113 156 q 318 32 203 32 z "},"ñ":{"ha":792,"x_min":67,"x_max":686,"o":"m 638 950 l 669 947 q 632 850 664 883 q 550 821 600 817 q 446 867 499 825 q 365 911 393 908 q 271 821 286 919 l 240 825 q 278 926 246 893 q 361 956 311 960 q 456 910 404 951 q 544 865 507 869 q 609 883 588 863 q 638 950 631 903 m 204 669 l 186 511 q 529 686 393 686 q 658 639 617 686 q 686 501 699 592 l 615 0 l 560 0 l 631 493 q 613 603 640 569 q 515 636 585 636 q 373 595 449 636 q 186 465 297 554 l 121 0 l 67 0 l 161 669 l 204 669 z "},"ò":{"ha":776,"x_min":79,"x_max":676,"o":"m 497 793 l 472 767 l 268 957 l 304 997 l 497 793 m 424 686 q 646 606 589 686 q 676 331 703 525 q 572 61 649 139 q 333 -17 496 -17 q 110 64 168 -17 q 79 338 53 144 q 183 608 107 529 q 424 686 260 686 m 424 636 q 224 570 288 636 q 138 331 161 504 q 157 97 114 161 q 333 32 200 32 q 532 99 468 32 q 619 338 596 165 q 600 572 643 507 q 424 636 557 636 z "},"ó":{"ha":776,"x_min":79,"x_max":676,"o":"m 642 956 l 390 767 l 367 796 l 610 999 l 642 956 m 424 686 q 646 606 589 686 q 676 331 703 525 q 572 61 649 139 q 333 -17 496 -17 q 110 64 168 -17 q 79 338 53 144 q 183 608 107 529 q 424 686 260 686 m 424 636 q 224 570 288 636 q 138 331 161 504 q 157 97 114 161 q 333 32 200 32 q 532 99 468 32 q 619 338 596 165 q 600 572 643 507 q 424 636 557 636 z "},"ô":{"ha":776,"x_min":79,"x_max":676,"o":"m 654 808 l 629 783 l 468 925 l 457 925 l 254 783 l 235 810 l 444 976 l 485 976 l 654 808 m 424 686 q 646 606 589 686 q 676 331 703 525 q 572 61 649 139 q 333 -17 496 -17 q 110 64 168 -17 q 79 338 53 144 q 183 608 107 529 q 424 686 260 686 m 424 636 q 224 570 288 636 q 138 331 161 504 q 157 97 114 161 q 333 32 200 32 q 532 99 468 32 q 619 338 596 165 q 600 572 643 507 q 424 636 557 636 z "},"õ":{"ha":776,"x_min":79,"x_max":676,"o":"m 271 821 l 239 825 q 278 926 244 892 q 360 956 311 960 q 455 910 403 951 q 544 865 507 869 q 638 950 625 860 l 669 947 q 632 850 664 883 q 550 821 600 817 q 446 867 499 825 q 365 911 393 908 q 300 893 322 915 q 271 821 278 871 m 424 686 q 646 606 589 686 q 676 331 703 525 q 572 61 649 139 q 333 -17 496 -17 q 110 64 168 -17 q 79 338 53 144 q 183 608 107 529 q 424 686 260 686 m 424 636 q 224 570 288 636 q 138 331 161 504 q 157 97 114 161 q 333 32 200 32 q 532 99 468 32 q 619 338 596 165 q 600 572 643 507 q 424 636 557 636 z "},"ö":{"ha":776,"x_min":79,"x_max":676,"o":"m 331 942 l 350 942 q 367 921 369 942 l 356 847 q 333 825 354 825 l 315 825 q 297 846 296 825 l 308 921 q 331 942 313 942 m 574 942 l 593 942 q 610 921 611 942 l 599 847 q 575 825 597 825 l 558 825 q 540 846 539 825 l 551 921 q 574 942 556 942 m 424 686 q 646 606 589 686 q 676 331 703 525 q 572 61 649 139 q 333 -17 496 -17 q 110 64 168 -17 q 79 338 53 144 q 183 608 107 529 q 424 686 260 686 m 424 636 q 224 570 288 636 q 138 331 161 504 q 157 97 114 161 q 333 32 200 32 q 532 99 468 32 q 619 338 596 165 q 600 572 643 507 q 424 636 557 636 z "},"÷":{"ha":810,"x_min":110,"x_max":703,"o":"m 435 706 l 453 706 q 475 681 479 704 l 464 599 q 438 576 460 576 l 419 576 q 397 601 394 576 l 410 682 q 435 706 413 706 m 696 388 l 110 388 l 115 433 l 703 433 l 696 388 m 371 243 l 390 243 q 411 218 415 243 l 399 136 q 374 115 397 115 l 356 115 q 333 140 332 115 l 346 219 q 371 243 347 243 z "},"ø":{"ha":776,"x_min":79,"x_max":676,"o":"m 651 740 l 597 650 q 676 331 711 582 q 572 61 649 139 q 333 -17 496 -17 q 203 0 256 -17 l 147 -90 l 115 -72 l 168 14 q 81 126 103 49 q 79 338 60 204 q 183 608 107 529 q 424 686 260 686 q 564 665 508 686 l 619 757 l 651 740 m 196 60 l 536 621 q 424 636 496 636 q 224 570 288 636 q 138 331 161 504 q 134 152 121 217 q 196 60 147 88 m 569 604 l 229 44 q 333 32 272 32 q 532 99 468 32 q 619 338 596 165 q 623 510 635 446 q 569 604 611 575 z "},"ù":{"ha":776,"x_min":85,"x_max":690,"o":"m 469 768 l 265 958 l 301 999 l 494 794 l 469 768 m 690 669 l 596 0 l 554 0 l 572 168 q 243 -17 388 -17 q 112 31 153 -17 q 85 168 71 78 l 156 669 l 211 669 l 140 176 q 158 67 131 101 q 257 33 186 33 q 398 77 326 33 q 572 218 469 121 l 636 669 l 690 669 z "},"ú":{"ha":776,"x_min":85,"x_max":690,"o":"m 388 768 l 364 797 l 607 1000 l 639 957 l 388 768 m 690 669 l 596 0 l 554 0 l 572 168 q 243 -17 388 -17 q 112 31 153 -17 q 85 168 71 78 l 156 669 l 211 669 l 140 176 q 158 67 131 101 q 257 33 186 33 q 398 77 326 33 q 572 218 469 121 l 636 669 l 690 669 z "},"û":{"ha":776,"x_min":85,"x_max":690,"o":"m 251 785 l 232 811 l 442 978 l 482 978 l 651 810 l 628 785 l 465 926 l 454 926 l 251 785 m 690 669 l 596 0 l 554 0 l 572 168 q 243 -17 388 -17 q 112 31 153 -17 q 85 168 71 78 l 156 669 l 211 669 l 140 176 q 158 67 131 101 q 257 33 186 33 q 398 77 326 33 q 572 218 469 121 l 636 669 l 690 669 z "},"ü":{"ha":776,"x_min":85,"x_max":690,"o":"m 331 826 l 313 826 q 294 847 293 826 l 306 922 q 328 943 310 943 l 347 943 q 364 922 368 943 l 353 849 q 331 826 351 826 m 574 826 l 556 826 q 538 847 536 826 l 549 922 q 571 943 553 943 l 590 943 q 607 922 608 943 l 596 849 q 574 826 594 826 m 690 669 l 596 0 l 554 0 l 572 168 q 243 -17 388 -17 q 112 31 153 -17 q 85 168 71 78 l 156 669 l 211 669 l 140 176 q 158 67 131 101 q 257 33 186 33 q 398 77 326 33 q 572 218 469 121 l 636 669 l 690 669 z "},"ý":{"ha":719,"x_min":53,"x_max":689,"o":"m 344 767 l 321 796 l 564 999 l 596 956 l 344 767 m 632 669 l 689 669 q 444 89 608 353 q 250 -180 335 -92 q 63 -290 165 -268 l 53 -253 q 193 -169 128 -229 q 329 0 258 -108 l 276 0 q 232 15 250 0 q 208 54 214 31 l 74 669 l 132 669 l 256 79 q 297 47 265 44 l 358 47 l 393 103 q 632 669 547 357 z "},"þ":{"ha":786,"x_min":28,"x_max":678,"o":"m 260 972 l 213 639 q 190 508 200 547 q 354 640 265 593 q 518 686 443 686 q 673 605 639 686 q 678 331 707 524 q 578 51 647 119 q 336 -17 508 -17 q 121 -1 235 -17 q 107 -121 119 -19 l 82 -289 l 28 -289 l 204 972 l 260 972 m 186 453 l 129 40 q 322 32 251 32 q 538 89 482 32 q 622 338 594 146 q 626 568 649 500 q 511 636 604 636 q 355 588 442 636 q 186 453 268 540 z "},"ÿ":{"ha":719,"x_min":53,"x_max":689,"o":"m 286 825 l 269 825 q 251 846 250 825 l 263 921 q 285 942 264 942 l 304 942 q 321 921 322 942 l 310 847 q 286 825 308 825 m 529 825 l 513 825 q 494 846 493 825 l 506 921 q 528 942 508 942 l 547 942 q 564 921 567 942 l 553 847 q 529 825 551 825 m 632 669 l 689 669 q 444 89 608 353 q 250 -180 335 -92 q 63 -290 165 -268 l 53 -253 q 193 -169 128 -229 q 329 0 258 -108 l 276 0 q 232 15 250 0 q 208 54 214 31 l 74 669 l 132 669 l 256 79 q 297 47 265 44 l 358 47 l 393 103 q 632 669 547 357 z "},"Ā":{"ha":839,"x_min":-33,"x_max":764,"o":"m 707 1110 l 339 1110 l 344 1157 l 713 1157 l 707 1110 m 636 336 l 194 336 l 29 0 l -33 0 l 435 942 q 460 958 440 958 l 538 958 q 561 939 558 958 l 764 0 l 706 0 l 636 336 m 625 388 l 532 833 q 525 869 531 843 q 517 911 519 896 l 475 911 l 438 832 l 218 388 l 625 388 z "},"ā":{"ha":786,"x_min":90,"x_max":700,"o":"m 649 858 l 281 858 l 288 904 l 654 904 l 649 858 m 607 0 l 564 0 l 582 164 q 417 31 507 79 q 251 -17 326 -17 q 94 65 129 -17 q 90 339 60 147 q 192 618 124 550 q 435 686 261 686 q 700 665 551 686 l 607 0 m 582 217 l 639 629 q 446 638 481 638 q 231 581 286 638 q 146 332 175 524 q 141 101 118 169 q 257 33 164 33 q 413 81 326 33 q 582 217 500 129 z "},"Ă":{"ha":839,"x_min":-33,"x_max":764,"o":"m 696 1218 l 729 1208 q 663 1089 719 1132 q 517 1046 606 1046 q 376 1091 424 1046 q 342 1211 329 1136 l 375 1215 q 405 1125 367 1157 q 517 1093 443 1093 q 640 1126 592 1093 q 696 1218 689 1160 m 636 336 l 194 336 l 29 0 l -33 0 l 435 942 q 460 958 440 958 l 538 958 q 561 939 558 958 l 764 0 l 706 0 l 636 336 m 625 388 l 532 833 q 525 869 531 843 q 517 911 519 896 l 475 911 l 438 832 l 218 388 l 625 388 z "},"ă":{"ha":786,"x_min":90,"x_max":700,"o":"m 638 967 l 671 956 q 605 837 661 881 q 460 793 549 793 q 319 838 367 793 q 283 960 272 883 l 318 963 q 347 872 308 904 q 458 840 385 840 q 582 874 533 840 q 638 967 631 908 m 607 0 l 564 0 l 582 164 q 417 31 507 79 q 251 -17 326 -17 q 94 65 129 -17 q 90 339 60 147 q 192 618 124 550 q 435 686 261 686 q 700 665 551 686 l 607 0 m 582 217 l 639 629 q 446 638 481 638 q 231 581 286 638 q 146 332 175 524 q 141 101 118 169 q 257 33 164 33 q 413 81 326 33 q 582 217 500 129 z "},"Ą":{"ha":839,"x_min":-33,"x_max":764,"o":"m 561 939 l 764 0 q 625 -174 667 -89 q 626 -252 594 -233 q 736 -244 657 -271 l 743 -269 q 583 -279 625 -314 q 581 -167 542 -244 q 729 0 619 -86 l 706 0 l 636 336 l 194 336 l 29 0 l -33 0 l 435 942 q 460 958 440 958 l 538 958 q 561 939 558 958 m 625 388 l 532 833 q 525 869 531 843 q 517 911 519 896 l 475 911 l 438 832 l 218 388 l 625 388 z "},"ą":{"ha":786,"x_min":90,"x_max":700,"o":"m 700 665 l 607 0 q 467 -174 510 -87 q 467 -252 436 -233 q 578 -244 499 -271 l 585 -269 q 425 -279 467 -314 q 422 -167 383 -244 q 571 0 465 -82 l 564 0 l 582 164 q 417 31 507 79 q 251 -17 326 -17 q 94 65 129 -17 q 90 339 60 147 q 192 618 124 550 q 435 686 261 686 q 700 665 551 686 m 582 217 l 639 629 q 446 638 481 638 q 231 581 286 638 q 146 332 175 524 q 141 101 118 169 q 257 33 164 33 q 413 81 326 33 q 582 217 500 129 z "},"Ć":{"ha":776,"x_min":110,"x_max":781,"o":"m 736 1208 l 485 1019 l 461 1049 l 704 1251 l 736 1208 m 664 53 l 671 10 q 404 -17 557 -17 q 138 97 204 -17 q 110 482 71 210 q 243 865 149 756 q 535 975 338 975 q 781 950 681 975 l 768 908 q 536 924 661 924 q 283 826 363 924 q 168 476 204 729 q 185 132 133 229 q 403 35 236 35 q 664 53 556 35 z "},"ć":{"ha":663,"x_min":79,"x_max":626,"o":"m 621 956 l 369 767 l 346 796 l 589 999 l 621 956 m 549 49 l 554 10 q 343 -17 451 -17 q 113 64 172 -17 q 79 338 53 144 q 186 608 106 529 q 433 686 267 686 q 626 660 549 686 l 615 622 q 443 636 553 636 q 228 572 296 636 q 138 332 161 507 q 160 96 113 158 q 351 33 207 33 q 549 49 469 33 z "},"Ċ":{"ha":776,"x_min":110,"x_max":781,"o":"m 544 1197 l 567 1197 q 585 1174 589 1197 l 574 1092 q 550 1069 572 1069 l 531 1069 q 511 1093 507 1069 l 522 1175 q 544 1197 524 1197 m 664 53 l 671 10 q 404 -17 557 -17 q 138 97 204 -17 q 110 482 71 210 q 243 865 149 756 q 535 975 338 975 q 781 950 681 975 l 768 908 q 536 924 661 924 q 283 826 363 924 q 168 476 204 729 q 185 132 133 229 q 403 35 236 35 q 664 53 556 35 z "},"ċ":{"ha":663,"x_min":79,"x_max":626,"o":"m 431 944 l 451 944 q 471 922 472 944 l 460 840 q 435 818 456 818 l 417 818 q 396 840 393 818 l 407 922 q 431 944 408 944 m 549 49 l 554 10 q 343 -17 451 -17 q 113 64 172 -17 q 79 338 53 144 q 186 608 106 529 q 433 686 267 686 q 626 660 549 686 l 615 622 q 443 636 553 636 q 228 572 296 636 q 138 332 161 507 q 160 96 113 158 q 351 33 207 33 q 549 49 469 33 z "},"Č":{"ha":776,"x_min":110,"x_max":781,"o":"m 768 1207 l 556 1040 l 515 1040 l 350 1208 l 374 1232 l 533 1092 l 544 1092 l 747 1232 l 768 1207 m 664 53 l 671 10 q 404 -17 557 -17 q 138 97 204 -17 q 110 482 71 210 q 243 865 149 756 q 535 975 338 975 q 781 950 681 975 l 768 908 q 536 924 661 924 q 283 826 363 924 q 168 476 204 729 q 185 132 133 229 q 403 35 236 35 q 664 53 556 35 z "},"č":{"ha":663,"x_min":79,"x_max":654,"o":"m 654 954 l 442 789 l 401 789 l 235 957 l 258 981 l 419 839 l 431 839 l 633 981 l 654 954 m 549 49 l 554 10 q 343 -17 451 -17 q 113 64 172 -17 q 79 338 53 144 q 186 608 106 529 q 433 686 267 686 q 626 660 549 686 l 615 622 q 443 636 553 636 q 228 572 296 636 q 138 332 161 507 q 160 96 113 158 q 351 33 207 33 q 549 49 469 33 z "},"Ď":{"ha":915,"x_min":81,"x_max":826,"o":"m 508 1040 l 342 1208 l 365 1232 l 526 1092 l 538 1092 l 740 1232 l 761 1207 l 549 1040 l 508 1040 m 81 0 l 215 958 q 532 971 383 971 q 798 860 732 971 q 826 476 864 750 q 694 92 788 196 q 399 -12 600 -12 q 81 0 250 -12 m 267 915 l 143 43 q 397 39 260 39 q 651 133 571 39 q 768 482 732 228 q 751 825 803 731 q 531 919 699 919 q 267 915 386 919 z "},"ď":{"ha":785,"x_min":88,"x_max":917,"o":"m 881 972 l 900 972 q 917 953 918 972 l 904 871 q 851 707 893 796 l 824 715 q 857 857 846 788 q 843 875 840 857 l 856 953 q 863 968 858 964 q 881 972 867 972 m 686 972 l 742 972 l 604 0 l 561 0 l 578 165 q 236 -17 413 -17 q 93 68 125 -17 q 88 339 61 153 q 188 617 118 549 q 431 686 258 686 q 649 671 533 686 q 661 800 650 724 l 686 972 m 581 217 l 638 631 q 444 638 503 638 q 227 581 283 638 q 143 332 171 524 q 139 106 118 178 q 247 33 160 33 q 581 217 404 33 z "},"Đ":{"ha":915,"x_min":40,"x_max":826,"o":"m 156 533 l 215 958 q 532 971 383 971 q 798 860 732 971 q 826 476 864 750 q 694 92 788 196 q 399 -12 600 -12 q 81 0 250 -12 l 150 494 l 40 494 l 46 533 l 156 533 m 207 494 l 143 43 q 397 39 260 39 q 651 133 571 39 q 768 482 732 228 q 751 825 803 731 q 531 919 699 919 q 267 915 386 919 l 213 533 l 453 533 l 449 494 l 207 494 z "},"đ":{"ha":785,"x_min":88,"x_max":831,"o":"m 825 814 l 719 814 l 604 0 l 561 0 l 578 165 q 236 -17 413 -17 q 93 68 125 -17 q 88 339 61 153 q 188 617 118 549 q 431 686 258 686 q 649 671 533 686 q 661 800 650 724 l 664 814 l 432 814 l 438 853 l 669 853 l 686 972 l 742 972 l 725 853 l 831 853 l 825 814 m 581 217 l 638 631 q 444 638 503 638 q 227 581 283 638 q 143 332 171 524 q 139 106 118 178 q 247 33 160 33 q 581 217 404 33 z "},"Ē":{"ha":765,"x_min":93,"x_max":765,"o":"m 707 1143 l 339 1143 l 346 1190 l 714 1190 l 707 1143 m 757 910 l 364 910 q 240 799 256 910 l 203 535 l 649 535 l 642 489 l 197 489 l 151 156 q 169 78 144 107 q 242 49 193 49 l 636 49 l 636 6 q 232 0 503 0 q 121 43 160 0 q 93 156 82 86 l 185 813 q 239 919 194 879 q 354 958 283 958 q 765 953 631 958 l 757 910 z "},"ē":{"ha":735,"x_min":81,"x_max":663,"o":"m 635 858 l 267 858 l 274 904 l 642 904 l 635 858 m 590 50 l 596 11 q 329 -17 501 -17 q 108 66 164 -17 q 81 343 53 149 q 123 516 96 449 q 194 621 150 583 q 294 672 239 658 q 432 686 349 686 q 630 640 571 686 q 663 478 689 593 q 594 358 644 393 q 432 313 543 324 l 129 281 q 164 84 115 136 q 344 32 213 32 q 590 50 456 32 m 135 325 l 433 358 q 556 393 519 368 q 608 482 592 418 q 616 542 614 517 q 606 584 618 567 q 580 612 593 601 q 542 628 567 622 q 492 635 517 633 q 435 638 468 638 q 315 627 360 638 q 233 585 269 617 q 174 494 196 553 q 138 339 153 436 l 135 325 z "},"Ė":{"ha":765,"x_min":93,"x_max":765,"o":"m 529 1103 l 510 1103 q 490 1126 486 1103 l 500 1208 q 524 1231 504 1231 l 544 1231 q 564 1207 568 1231 l 553 1125 q 529 1103 551 1103 m 757 910 l 364 910 q 240 799 256 910 l 203 535 l 649 535 l 642 489 l 197 489 l 151 156 q 169 78 144 107 q 242 49 193 49 l 636 49 l 636 6 q 232 0 503 0 q 121 43 160 0 q 93 156 82 86 l 185 813 q 239 919 194 879 q 354 958 283 958 q 765 953 631 958 l 757 910 z "},"ė":{"ha":735,"x_min":81,"x_max":663,"o":"m 457 818 l 438 818 q 418 840 414 818 l 428 922 q 451 944 432 944 l 472 944 q 492 922 493 944 l 481 840 q 457 818 479 818 m 590 50 l 596 11 q 329 -17 501 -17 q 108 66 164 -17 q 81 343 53 149 q 123 516 96 449 q 194 621 150 583 q 294 672 239 658 q 432 686 349 686 q 630 640 571 686 q 663 478 689 593 q 594 358 644 393 q 432 313 543 324 l 129 281 q 164 84 115 136 q 344 32 213 32 q 590 50 456 32 m 135 325 l 433 358 q 556 393 519 368 q 608 482 592 418 q 616 542 614 517 q 606 584 618 567 q 580 612 593 601 q 542 628 567 622 q 492 635 517 633 q 435 638 468 638 q 315 627 360 638 q 233 585 269 617 q 174 494 196 553 q 138 339 153 436 l 135 325 z "},"Ę":{"ha":765,"x_min":93,"x_max":765,"o":"m 757 910 l 364 910 q 240 799 256 910 l 203 535 l 649 535 l 642 489 l 197 489 l 151 156 q 169 78 144 107 q 242 49 193 49 l 636 49 l 636 6 q 496 -168 539 -82 q 497 -247 465 -228 q 608 -237 528 -265 l 614 -264 q 456 -273 497 -308 q 451 -161 414 -237 q 597 4 494 -78 q 232 0 476 0 q 121 43 160 0 q 93 156 82 86 l 185 813 q 239 919 194 879 q 354 958 283 958 q 765 953 631 958 l 757 910 z "},"ę":{"ha":735,"x_min":81,"x_max":663,"o":"m 567 -232 l 574 -258 q 415 -267 457 -303 q 411 -156 372 -232 q 546 0 453 -76 q 329 -17 433 -17 q 108 66 164 -17 q 81 343 53 149 q 123 516 96 449 q 194 621 150 583 q 294 672 239 658 q 432 686 349 686 q 630 640 571 686 q 663 478 689 593 q 594 358 644 393 q 432 313 543 324 l 129 281 q 164 84 115 136 q 344 32 213 32 q 590 50 456 32 l 596 11 q 456 -162 499 -76 q 456 -241 425 -222 q 567 -232 488 -260 m 135 325 l 433 358 q 556 393 519 368 q 608 482 592 418 q 616 542 614 517 q 606 584 618 567 q 580 612 593 601 q 542 628 567 622 q 492 635 517 633 q 435 638 468 638 q 315 627 360 638 q 233 585 269 617 q 174 494 196 553 q 138 339 153 436 l 135 325 z "},"Ě":{"ha":765,"x_min":93,"x_max":765,"o":"m 494 1074 l 329 1242 l 353 1265 l 513 1125 l 524 1125 l 726 1265 l 747 1240 l 535 1074 l 494 1074 m 757 910 l 364 910 q 240 799 256 910 l 203 535 l 649 535 l 642 489 l 197 489 l 151 156 q 169 78 144 107 q 242 49 193 49 l 636 49 l 636 6 q 232 0 503 0 q 121 43 160 0 q 93 156 82 86 l 185 813 q 239 919 194 879 q 354 958 283 958 q 765 953 631 958 l 757 910 z "},"ě":{"ha":735,"x_min":81,"x_max":675,"o":"m 422 789 l 257 957 l 281 981 l 440 839 l 451 839 l 654 981 l 675 954 l 463 789 l 422 789 m 590 50 l 596 11 q 329 -17 501 -17 q 108 66 164 -17 q 81 343 53 149 q 123 516 96 449 q 194 621 150 583 q 294 672 239 658 q 432 686 349 686 q 630 640 571 686 q 663 478 689 593 q 594 358 644 393 q 432 313 543 324 l 129 281 q 164 84 115 136 q 344 32 213 32 q 590 50 456 32 m 135 325 l 433 358 q 556 393 519 368 q 608 482 592 418 q 616 542 614 517 q 606 584 618 567 q 580 612 593 601 q 542 628 567 622 q 492 635 517 633 q 435 638 468 638 q 315 627 360 638 q 233 585 269 617 q 174 494 196 553 q 138 339 153 436 l 135 325 z "},"Ğ":{"ha":863,"x_min":108,"x_max":814,"o":"m 735 1218 l 767 1208 q 701 1089 757 1132 q 556 1046 644 1046 q 415 1091 463 1046 q 379 1211 368 1136 l 414 1215 q 444 1125 406 1157 q 556 1093 482 1093 q 678 1126 631 1093 q 735 1218 726 1160 m 814 950 l 801 908 q 546 924 683 924 q 283 828 364 924 q 168 476 203 732 q 182 135 138 235 q 367 35 226 35 q 517 76 447 35 q 672 197 586 118 l 722 556 l 778 556 l 699 0 l 658 0 l 669 144 q 356 -17 519 -17 q 133 100 190 -17 q 108 482 76 217 q 244 867 146 758 q 542 975 342 975 q 814 950 700 975 z "},"ğ":{"ha":793,"x_min":28,"x_max":710,"o":"m 640 967 l 674 956 q 607 837 664 881 q 461 793 550 793 q 321 838 368 793 q 286 960 274 883 l 319 963 q 349 872 311 904 q 461 840 388 840 q 585 874 536 840 q 640 967 633 908 m 710 665 l 607 -3 q 283 -303 565 -282 q 28 -294 154 -312 l 35 -256 q 275 -254 167 -262 q 463 -184 394 -243 q 551 -7 532 -125 q 592 175 576 136 q 422 34 515 85 q 250 -17 329 -17 q 96 65 131 -17 q 90 339 61 147 q 192 618 124 550 q 432 686 261 686 q 701 665 551 686 l 710 665 m 585 218 l 649 629 q 446 638 479 638 q 231 581 286 638 q 146 332 176 525 q 141 102 118 171 q 258 33 164 33 q 415 82 326 33 q 585 218 503 131 z "},"Ġ":{"ha":863,"x_min":108,"x_max":814,"o":"m 567 1069 l 547 1069 q 528 1093 524 1069 l 538 1175 q 561 1197 542 1197 l 582 1197 q 601 1174 606 1197 l 590 1092 q 567 1069 589 1069 m 814 950 l 801 908 q 546 924 683 924 q 283 828 364 924 q 168 476 203 732 q 182 135 138 235 q 367 35 226 35 q 517 76 447 35 q 672 197 586 118 l 722 556 l 778 556 l 699 0 l 658 0 l 669 144 q 356 -17 519 -17 q 133 100 190 -17 q 108 482 76 217 q 244 867 146 758 q 542 975 342 975 q 814 950 700 975 z "},"ġ":{"ha":793,"x_min":28,"x_max":710,"o":"m 472 818 l 453 818 q 433 840 431 818 l 444 922 q 467 944 446 944 l 489 944 q 508 922 510 944 l 497 840 q 472 818 493 818 m 710 665 l 607 -3 q 283 -303 565 -282 q 28 -294 154 -312 l 35 -256 q 275 -254 167 -262 q 463 -184 394 -243 q 551 -7 532 -125 q 592 175 576 136 q 422 34 515 85 q 250 -17 329 -17 q 96 65 131 -17 q 90 339 61 147 q 192 618 124 550 q 432 686 261 686 q 701 665 551 686 l 710 665 m 585 218 l 649 629 q 446 638 479 638 q 231 581 286 638 q 146 332 176 525 q 141 102 118 171 q 258 33 164 33 q 415 82 326 33 q 585 218 503 131 z "},"Ģ":{"ha":863,"x_min":108,"x_max":814,"o":"m 814 950 l 801 908 q 546 924 683 924 q 283 828 364 924 q 168 476 203 732 q 182 135 138 235 q 367 35 226 35 q 517 76 447 35 q 672 197 586 118 l 722 556 l 778 556 l 699 0 l 658 0 l 669 144 q 356 -17 519 -17 q 133 100 190 -17 q 108 482 76 217 q 244 867 146 758 q 542 975 342 975 q 814 950 700 975 m 374 -87 l 393 -87 q 410 -108 414 -87 l 397 -190 q 344 -354 388 -261 l 317 -344 q 351 -203 338 -275 q 340 -199 344 -204 q 338 -185 336 -193 l 349 -107 q 356 -92 351 -96 q 374 -87 360 -87 z "},"ģ":{"ha":793,"x_min":28,"x_max":710,"o":"m 467 782 l 446 782 q 431 803 426 782 l 442 885 q 496 1050 451 954 l 522 1040 q 489 899 500 968 q 503 881 506 899 l 490 803 q 467 782 489 782 m 710 665 l 607 -3 q 283 -303 565 -282 q 28 -294 154 -312 l 35 -256 q 275 -254 167 -262 q 463 -184 394 -243 q 551 -7 532 -125 q 592 175 576 136 q 422 34 515 85 q 250 -17 329 -17 q 96 65 131 -17 q 90 339 61 147 q 192 618 124 550 q 432 686 261 686 q 701 665 551 686 l 710 665 m 585 218 l 649 629 q 446 638 479 638 q 231 581 286 638 q 146 332 176 525 q 141 102 118 171 q 258 33 164 33 q 415 82 326 33 q 585 218 503 131 z "},"Ħ":{"ha":915,"x_min":76,"x_max":939,"o":"m 933 726 l 824 726 l 722 0 l 665 0 l 733 488 l 206 488 l 138 0 l 81 0 l 182 726 l 76 726 l 82 764 l 188 764 l 215 958 l 272 958 l 244 764 l 772 764 l 800 958 l 857 958 l 829 764 l 939 764 l 933 726 m 767 726 l 240 726 l 214 538 l 740 538 l 767 726 z "},"ħ":{"ha":792,"x_min":67,"x_max":686,"o":"m 238 814 l 218 679 q 188 511 207 599 q 529 686 394 686 q 658 639 617 686 q 686 501 699 592 l 615 0 l 560 0 l 631 493 q 613 603 640 569 q 515 636 585 636 q 372 594 447 636 q 188 463 297 553 l 121 0 l 67 0 l 182 814 l 72 814 l 78 853 l 186 853 l 204 972 l 258 972 l 242 853 l 471 853 l 465 814 l 238 814 z "},"Ī":{"ha":332,"x_min":81,"x_max":454,"o":"m 449 1110 l 81 1110 l 86 1157 l 454 1157 l 449 1110 m 138 0 l 81 0 l 215 958 l 272 958 l 138 0 z "},"ī":{"ha":313,"x_min":36,"x_max":410,"o":"m 404 858 l 36 858 l 42 904 l 410 904 l 404 858 m 126 0 l 72 0 l 167 669 l 222 669 l 126 0 z "},"Į":{"ha":332,"x_min":-50,"x_max":272,"o":"m 272 958 l 138 0 l 133 0 q -6 -174 36 -89 q -5 -252 -36 -233 q 106 -244 26 -271 l 113 -269 q -47 -279 -6 -314 q -50 -167 -89 -244 q 99 0 -7 -82 l 81 0 l 215 958 l 272 958 z "},"į":{"ha":313,"x_min":-60,"x_max":261,"o":"m 221 944 l 242 944 q 261 922 263 944 l 250 840 q 225 818 246 818 l 207 818 q 186 840 183 818 l 197 922 q 221 944 199 944 m 167 669 l 222 669 l 126 0 l 125 0 q -15 -174 25 -92 q -15 -252 -46 -233 q 97 -244 17 -271 l 103 -269 q -56 -279 -14 -314 q -60 -167 -97 -244 q 89 0 -18 -85 l 72 0 l 167 669 z "},"İ":{"ha":332,"x_min":81,"x_max":306,"o":"m 265 1197 l 286 1197 q 306 1174 308 1197 l 294 1092 q 269 1069 290 1069 l 251 1069 q 231 1093 228 1069 l 242 1175 q 265 1197 243 1197 m 138 0 l 81 0 l 215 958 l 272 958 l 138 0 z "},"ı":{"ha":313,"x_min":72,"x_max":222,"o":"m 126 0 l 72 0 l 167 669 l 222 669 l 126 0 z "},"Ĳ":{"ha":785,"x_min":81,"x_max":731,"o":"m 138 0 l 81 0 l 215 958 l 272 958 l 138 0 m 731 958 l 619 169 q 425 -10 594 -12 q 325 1 378 -10 l 336 40 l 413 40 q 564 172 544 40 l 674 958 l 731 958 z "},"ĳ":{"ha":626,"x_min":72,"x_max":576,"o":"m 219 949 l 244 949 q 264 925 267 949 l 251 840 q 229 821 250 821 l 206 821 q 183 844 181 821 l 196 928 q 219 949 197 949 m 532 949 l 557 949 q 576 925 579 949 l 564 840 q 542 821 563 821 l 518 821 q 497 844 493 821 l 508 928 q 532 949 513 949 m 126 0 l 72 0 l 167 669 l 221 669 l 126 0 m 535 669 l 433 -54 q 299 -289 414 -190 l 271 -265 q 378 -50 363 -162 l 479 669 l 535 669 z "},"Ķ":{"ha":789,"x_min":81,"x_max":807,"o":"m 394 501 l 394 497 q 426 451 404 486 l 694 0 l 629 0 l 346 476 l 199 476 q 186 360 197 418 l 136 0 l 81 0 l 215 958 l 271 958 l 226 636 q 206 524 215 567 l 350 524 l 736 958 l 807 958 l 446 550 q 394 501 419 521 m 361 -87 l 381 -87 q 397 -108 401 -87 l 385 -190 q 332 -354 375 -261 l 304 -344 q 339 -203 325 -275 q 328 -199 332 -204 q 325 -185 324 -193 l 336 -107 q 343 -92 339 -96 q 361 -87 347 -87 z "},"ķ":{"ha":689,"x_min":67,"x_max":653,"o":"m 596 669 l 653 669 q 397 369 582 483 l 435 299 l 581 0 l 519 0 l 353 344 q 160 265 274 303 l 121 0 l 67 0 l 204 972 l 258 972 l 188 449 q 158 315 179 386 q 596 669 497 424 m 297 -87 l 317 -87 q 333 -108 338 -87 l 321 -190 q 268 -354 311 -261 l 240 -344 q 275 -203 261 -275 q 263 -199 267 -204 q 260 -185 258 -193 l 272 -107 q 279 -92 275 -96 q 297 -87 283 -87 z "},"Ĺ":{"ha":699,"x_min":99,"x_max":618,"o":"m 453 1208 l 203 1019 l 178 1049 l 421 1251 l 453 1208 m 268 958 l 156 156 q 173 78 149 107 q 247 49 197 49 l 618 49 l 617 6 q 235 0 489 0 q 127 44 165 0 q 99 157 89 88 l 211 958 l 268 958 z "},"ĺ":{"ha":378,"x_min":88,"x_max":450,"o":"m 450 1239 l 199 1051 l 175 1079 l 418 1282 l 450 1239 m 260 972 l 144 146 q 233 42 128 42 l 313 42 l 314 1 q 217 -10 283 -10 q 113 30 149 -10 q 88 140 78 69 l 206 972 l 260 972 z "},"Ļ":{"ha":699,"x_min":99,"x_max":618,"o":"m 268 958 l 156 156 q 173 78 149 107 q 247 49 197 49 l 618 49 l 617 6 q 235 0 489 0 q 127 44 165 0 q 99 157 89 88 l 211 958 l 268 958 m 342 -99 l 361 -99 q 378 -119 382 -99 l 365 -201 q 313 -365 358 -267 l 285 -357 q 319 -214 306 -289 q 308 -210 313 -215 q 306 -196 304 -204 l 318 -118 q 342 -99 319 -99 z "},"ļ":{"ha":378,"x_min":88,"x_max":314,"o":"m 260 972 l 144 146 q 233 42 128 42 l 313 42 l 314 1 q 217 -10 283 -10 q 113 30 149 -10 q 88 140 78 69 l 206 972 l 260 972 m 163 -99 l 182 -99 q 199 -119 200 -99 l 186 -201 q 133 -365 176 -272 l 106 -357 q 139 -214 126 -286 q 128 -210 132 -215 q 125 -196 124 -204 l 138 -118 q 163 -99 142 -99 z "},"Ľ":{"ha":699,"x_min":99,"x_max":618,"o":"m 268 958 l 156 156 q 173 78 149 107 q 247 49 197 49 l 618 49 l 617 6 q 235 0 489 0 q 127 44 165 0 q 99 157 89 88 l 211 958 l 268 958 m 443 956 l 463 956 q 479 935 483 956 l 467 853 q 414 688 457 781 l 386 697 q 421 839 407 767 q 406 857 403 839 l 418 935 q 426 951 421 947 q 443 956 431 956 z "},"ľ":{"ha":378,"x_min":88,"x_max":447,"o":"m 411 972 l 431 972 q 447 953 451 972 l 435 871 q 382 706 425 799 l 354 715 q 389 857 375 785 q 374 875 371 857 l 386 953 q 393 968 389 964 q 411 972 397 972 m 260 972 l 144 146 q 233 42 128 42 l 313 42 l 314 1 q 217 -10 283 -10 q 113 30 149 -10 q 88 140 78 69 l 206 972 l 260 972 z "},"Ŀ":{"ha":699,"x_min":99,"x_max":618,"o":"m 268 958 l 156 156 q 173 78 149 107 q 247 49 197 49 l 618 49 l 617 6 q 235 0 489 0 q 127 44 165 0 q 99 157 89 88 l 211 958 l 268 958 m 521 463 l 499 463 q 481 486 476 463 l 492 568 q 515 590 493 590 l 535 590 q 554 567 557 590 l 543 485 q 521 463 542 463 z "},"ŀ":{"ha":418,"x_min":88,"x_max":438,"o":"m 260 972 l 144 146 q 233 42 128 42 l 313 42 l 314 1 q 217 -10 283 -10 q 113 30 149 -10 q 88 140 78 69 l 206 972 l 260 972 m 404 456 l 383 456 q 364 479 360 456 l 375 561 q 399 583 376 583 l 418 583 q 438 560 442 583 l 426 478 q 404 456 425 456 z "},"Ł":{"ha":699,"x_min":40,"x_max":618,"o":"m 618 49 l 615 6 q 235 0 489 0 q 126 43 164 0 q 99 157 89 86 l 144 485 l 40 442 l 43 482 l 150 525 l 210 958 l 268 958 l 211 550 l 401 628 l 396 589 l 206 510 l 156 156 q 173 78 149 107 q 247 49 197 49 l 618 49 z "},"ł":{"ha":404,"x_min":42,"x_max":404,"o":"m 194 506 l 144 146 q 233 42 128 42 l 313 42 l 314 1 q 217 -10 283 -10 q 113 30 149 -10 q 88 140 78 69 l 136 481 l 42 442 l 46 482 l 142 521 l 206 972 l 260 972 l 200 544 l 404 628 l 399 589 l 194 506 z "},"Ń":{"ha":961,"x_min":81,"x_max":901,"o":"m 783 1208 l 532 1019 l 508 1049 l 751 1251 l 783 1208 m 901 958 l 771 26 q 742 0 767 0 l 671 0 q 640 24 649 0 l 333 806 q 294 907 299 896 l 263 907 q 249 793 254 835 l 138 0 l 81 0 l 211 932 q 240 958 215 958 l 308 958 q 339 935 331 958 l 639 171 q 683 51 660 119 l 719 51 q 736 175 735 171 l 844 958 l 901 958 z "},"ń":{"ha":792,"x_min":67,"x_max":686,"o":"m 392 767 l 368 796 l 610 999 l 643 956 l 392 767 m 204 669 l 186 511 q 529 686 393 686 q 658 639 617 686 q 686 501 699 592 l 615 0 l 560 0 l 631 493 q 613 603 640 569 q 515 636 585 636 q 373 595 449 636 q 186 465 297 554 l 121 0 l 67 0 l 161 669 l 204 669 z "},"Ņ":{"ha":961,"x_min":81,"x_max":901,"o":"m 901 958 l 771 26 q 742 0 767 0 l 671 0 q 640 24 649 0 l 333 806 q 294 907 299 896 l 263 907 q 249 793 254 835 l 138 0 l 81 0 l 211 932 q 240 958 215 958 l 308 958 q 339 935 331 958 l 639 171 q 683 51 660 119 l 719 51 q 736 175 735 171 l 844 958 l 901 958 m 415 -87 l 435 -87 q 451 -108 453 -87 l 439 -190 q 386 -354 429 -261 l 358 -344 q 392 -203 381 -272 q 381 -199 385 -204 q 378 -185 376 -193 l 390 -107 q 397 -92 393 -96 q 415 -87 401 -87 z "},"ņ":{"ha":792,"x_min":67,"x_max":686,"o":"m 204 669 l 186 511 q 529 686 393 686 q 658 639 617 686 q 686 501 699 592 l 615 0 l 560 0 l 631 493 q 613 603 640 569 q 515 636 585 636 q 373 595 449 636 q 186 465 297 554 l 121 0 l 67 0 l 161 669 l 204 669 m 333 -87 l 353 -87 q 369 -108 371 -87 l 357 -190 q 304 -354 347 -261 l 276 -344 q 311 -203 297 -275 q 299 -199 303 -204 q 296 -185 294 -193 l 308 -107 q 315 -92 311 -96 q 333 -87 319 -87 z "},"Ň":{"ha":961,"x_min":81,"x_max":901,"o":"m 815 1207 l 603 1040 l 563 1040 l 397 1208 l 421 1232 l 581 1092 l 592 1092 l 794 1232 l 815 1207 m 901 958 l 771 26 q 742 0 767 0 l 671 0 q 640 24 649 0 l 333 806 q 294 907 299 896 l 263 907 q 249 793 254 835 l 138 0 l 81 0 l 211 932 q 240 958 215 958 l 308 958 q 339 935 331 958 l 639 171 q 683 51 660 119 l 719 51 q 736 175 735 171 l 844 958 l 901 958 z "},"ň":{"ha":792,"x_min":67,"x_max":686,"o":"m 422 789 l 257 957 l 281 981 l 440 839 l 451 839 l 654 981 l 675 954 l 463 789 l 422 789 m 204 669 l 186 511 q 529 686 393 686 q 658 639 617 686 q 686 501 699 592 l 615 0 l 560 0 l 631 493 q 613 603 640 569 q 515 636 585 636 q 373 595 449 636 q 186 465 297 554 l 121 0 l 67 0 l 161 669 l 204 669 z "},"Ŋ":{"ha":961,"x_min":81,"x_max":901,"o":"m 901 958 l 749 -135 q 554 -306 724 -308 q 456 -296 501 -306 l 465 -260 l 542 -260 q 693 -128 676 -260 l 711 0 l 671 0 q 644 22 653 0 l 332 800 q 294 901 304 871 l 263 901 q 250 800 263 897 l 138 0 l 81 0 l 211 932 q 240 958 215 958 l 304 958 q 336 935 328 958 l 639 176 q 685 57 646 158 l 719 57 q 735 179 724 103 l 844 958 l 901 958 z "},"ŋ":{"ha":792,"x_min":67,"x_max":686,"o":"m 203 669 l 186 511 q 372 643 294 600 q 528 686 450 686 q 658 639 617 686 q 686 501 699 592 l 600 -112 q 419 -290 575 -290 q 333 -279 379 -290 l 343 -243 l 406 -243 q 544 -111 526 -243 l 631 493 q 612 601 640 567 q 514 635 583 635 q 405 608 464 635 q 308 556 346 582 q 188 467 271 529 l 121 0 l 67 0 l 161 669 l 203 669 z "},"Ō":{"ha":919,"x_min":110,"x_max":829,"o":"m 749 1110 l 381 1110 l 388 1157 l 756 1157 l 749 1110 m 536 975 q 801 863 735 975 q 829 476 868 750 q 698 92 792 201 q 406 -17 604 -17 q 139 95 207 -17 q 110 482 71 207 q 242 865 149 756 q 536 975 336 975 m 535 924 q 283 826 363 924 q 168 476 204 728 q 187 132 135 229 q 406 35 239 35 q 656 133 576 35 q 771 482 735 231 q 756 828 807 732 q 535 924 704 924 z "},"ō":{"ha":776,"x_min":79,"x_max":676,"o":"m 635 858 l 267 858 l 272 904 l 640 904 l 635 858 m 424 686 q 646 606 589 686 q 676 331 703 525 q 572 61 649 139 q 333 -17 496 -17 q 110 64 168 -17 q 79 338 53 144 q 183 608 107 529 q 424 686 260 686 m 424 636 q 224 570 288 636 q 138 331 161 504 q 157 97 114 161 q 333 32 200 32 q 532 99 468 32 q 619 338 596 165 q 600 572 643 507 q 424 636 557 636 z "},"Ő":{"ha":919,"x_min":110,"x_max":838,"o":"m 635 1228 l 435 1015 l 408 1038 l 596 1258 l 635 1228 m 838 1228 l 638 1015 l 611 1038 l 799 1258 l 838 1228 m 536 975 q 801 863 735 975 q 829 476 868 750 q 698 92 792 201 q 406 -17 604 -17 q 139 95 207 -17 q 110 482 71 207 q 242 865 149 756 q 536 975 336 975 m 535 924 q 283 826 363 924 q 168 476 204 728 q 187 132 135 229 q 406 35 239 35 q 656 133 576 35 q 771 482 735 231 q 756 828 807 732 q 535 924 704 924 z "},"ő":{"ha":776,"x_min":79,"x_max":724,"o":"m 724 976 l 524 764 l 496 785 l 683 1006 l 724 976 m 521 976 l 321 764 l 293 785 l 481 1006 l 521 976 m 424 686 q 646 606 589 686 q 676 331 703 525 q 572 61 649 139 q 333 -17 496 -17 q 110 64 168 -17 q 79 338 53 144 q 183 608 107 529 q 424 686 260 686 m 424 636 q 224 570 288 636 q 138 331 161 504 q 157 97 114 161 q 333 32 200 32 q 532 99 468 32 q 619 338 596 165 q 600 572 643 507 q 424 636 557 636 z "},"Œ":{"ha":1243,"x_min":111,"x_max":1243,"o":"m 1238 910 l 865 910 q 782 879 817 910 q 742 799 747 849 l 704 535 l 1126 535 l 1121 488 l 699 488 l 651 156 q 669 78 644 107 q 743 49 694 49 l 1117 49 l 1114 6 q 733 0 988 0 q 635 31 674 0 q 530 -6 575 4 q 415 -17 485 -17 q 139 92 206 -17 q 111 482 72 201 q 244 867 150 758 q 549 975 339 975 q 757 931 663 975 q 856 958 800 958 q 1243 953 1117 958 l 1238 910 m 594 156 l 686 813 q 718 893 693 858 q 547 924 643 924 q 287 827 368 924 q 169 476 206 731 q 186 131 133 228 q 418 35 239 35 q 606 69 514 35 q 594 156 586 106 z "},"œ":{"ha":1272,"x_min":78,"x_max":1200,"o":"m 1126 50 l 1132 11 q 867 -17 1039 -17 q 697 18 757 -17 q 618 128 638 53 q 510 17 579 51 q 332 -17 442 -17 q 109 64 167 -17 q 78 338 51 144 q 182 608 106 529 q 422 686 258 686 q 592 652 532 686 q 674 543 653 618 q 783 656 714 625 q 969 686 853 686 q 1167 640 1108 686 q 1200 478 1226 593 q 1131 358 1182 393 q 969 313 1081 324 l 667 281 q 701 86 653 139 q 885 33 750 33 q 1126 50 1001 33 m 332 32 q 527 95 464 32 q 615 318 590 158 l 618 343 q 619 353 619 346 q 597 575 640 514 q 422 636 553 636 q 223 570 286 636 q 136 331 160 504 q 156 97 113 161 q 332 32 199 32 m 675 326 l 971 358 q 1094 394 1057 369 q 1146 482 1131 419 q 1153 535 1156 513 q 1147 574 1150 557 q 1128 601 1143 590 q 1100 619 1114 613 q 1063 630 1086 626 q 1019 635 1040 633 q 969 636 999 636 q 772 584 833 636 q 681 371 710 532 l 675 331 l 675 326 z "},"Ŕ":{"ha":846,"x_min":81,"x_max":776,"o":"m 454 1019 l 429 1049 l 672 1251 l 704 1208 l 454 1019 m 81 0 l 215 958 q 525 969 329 969 q 740 910 682 969 q 776 694 797 851 q 709 515 758 572 q 563 446 660 458 l 563 439 q 654 304 633 417 l 717 0 l 657 0 l 596 304 q 552 395 583 368 q 467 422 521 422 q 357 424 418 424 q 258 426 296 425 q 197 428 221 426 l 136 0 l 81 0 m 203 474 l 457 474 q 643 524 586 476 q 718 700 700 571 q 694 874 736 828 q 525 919 651 919 q 265 917 374 919 l 203 474 z "},"ŕ":{"ha":538,"x_min":67,"x_max":565,"o":"m 314 767 l 290 796 l 533 999 l 565 956 l 314 767 m 203 669 l 186 507 q 518 686 379 686 l 547 686 l 532 633 l 506 633 q 369 592 440 633 q 186 461 297 551 l 121 0 l 67 0 l 161 669 l 203 669 z "},"Ŗ":{"ha":846,"x_min":81,"x_max":776,"o":"m 81 0 l 215 958 q 525 969 329 969 q 740 910 682 969 q 776 694 797 851 q 709 515 758 572 q 563 446 660 458 l 563 439 q 654 304 633 417 l 717 0 l 657 0 l 596 304 q 552 395 583 368 q 467 422 521 422 q 357 424 418 424 q 258 426 296 425 q 197 428 221 426 l 136 0 l 81 0 m 203 474 l 457 474 q 643 524 586 476 q 718 700 700 571 q 694 874 736 828 q 525 919 651 919 q 265 917 374 919 l 203 474 m 389 -87 l 408 -87 q 425 -108 426 -87 l 413 -190 q 360 -354 403 -261 l 332 -344 q 365 -203 354 -272 q 354 -199 358 -204 q 351 -185 350 -193 l 364 -107 q 371 -92 367 -96 q 389 -87 375 -87 z "},"ŗ":{"ha":538,"x_min":14,"x_max":547,"o":"m 547 686 l 532 633 l 506 633 q 369 592 440 633 q 186 461 297 551 l 121 0 l 67 0 l 161 669 l 203 669 l 186 507 q 518 686 379 686 l 547 686 m 71 -87 l 90 -87 q 107 -108 111 -87 l 94 -190 q 42 -354 88 -256 l 14 -344 q 49 -203 35 -275 q 38 -199 42 -204 q 35 -185 33 -193 l 47 -107 q 71 -87 49 -87 z "},"Ř":{"ha":846,"x_min":81,"x_max":776,"o":"m 485 1040 l 318 1208 l 342 1232 l 503 1092 l 514 1092 l 717 1232 l 738 1207 l 525 1040 l 485 1040 m 81 0 l 215 958 q 525 969 329 969 q 740 910 682 969 q 776 694 797 851 q 709 515 758 572 q 563 446 660 458 l 563 439 q 654 304 633 417 l 717 0 l 657 0 l 596 304 q 552 395 583 368 q 467 422 521 422 q 357 424 418 424 q 258 426 296 425 q 197 428 221 426 l 136 0 l 81 0 m 203 474 l 457 474 q 643 524 586 476 q 718 700 700 571 q 694 874 736 828 q 525 919 651 919 q 265 917 374 919 l 203 474 z "},"ř":{"ha":538,"x_min":67,"x_max":597,"o":"m 344 789 l 179 957 l 203 981 l 363 839 l 374 839 l 576 981 l 597 954 l 385 789 l 344 789 m 203 669 l 186 507 q 518 686 379 686 l 547 686 l 532 633 l 506 633 q 369 592 440 633 q 186 461 297 551 l 121 0 l 67 0 l 161 669 l 203 669 z "},"Ś":{"ha":771,"x_min":47,"x_max":722,"o":"m 668 1208 l 417 1019 l 393 1049 l 636 1251 l 668 1208 m 489 415 l 286 499 q 153 597 186 540 q 131 753 119 654 q 168 875 142 828 q 242 943 194 922 q 335 969 289 964 q 458 974 382 975 q 722 954 606 971 l 715 913 q 439 922 551 922 q 365 921 390 922 q 303 910 339 919 q 249 883 268 901 q 213 831 231 865 q 189 744 196 796 q 203 626 181 667 q 303 553 226 585 l 506 469 q 647 370 614 425 q 667 211 681 315 q 637 110 657 151 q 590 43 617 68 q 519 6 563 18 q 431 -11 475 -7 q 318 -15 386 -15 q 47 3 176 -15 l 56 46 q 333 36 217 35 q 444 44 403 38 q 523 68 486 50 q 579 122 560 86 q 608 218 599 158 q 596 342 619 303 q 489 415 572 381 z "},"ś":{"ha":694,"x_min":42,"x_max":632,"o":"m 606 956 l 354 767 l 331 796 l 574 999 l 606 956 m 431 274 l 218 357 q 115 422 144 386 q 96 536 85 458 q 172 660 111 632 q 367 686 232 689 q 632 668 500 685 l 624 628 q 368 638 461 636 q 205 622 249 640 q 150 531 161 604 q 161 451 142 476 q 238 403 181 425 l 451 319 q 560 253 529 289 q 581 142 592 217 q 551 56 574 89 q 488 8 529 24 q 402 -12 446 -8 q 283 -17 358 -17 q 42 1 172 -17 l 49 42 q 281 32 164 31 q 466 56 415 35 q 526 149 517 78 q 512 227 533 204 q 431 274 490 250 z "},"Ş":{"ha":771,"x_min":47,"x_max":722,"o":"m 489 415 l 286 499 q 153 597 186 540 q 131 753 119 654 q 168 875 142 828 q 242 943 194 922 q 335 969 289 964 q 458 974 382 975 q 722 954 606 971 l 715 913 q 439 922 551 922 q 365 921 390 922 q 303 910 339 919 q 249 883 268 901 q 213 831 231 865 q 189 744 196 796 q 203 626 181 667 q 303 553 226 585 l 506 469 q 647 370 614 425 q 667 211 681 315 q 637 110 657 151 q 590 43 617 68 q 519 6 563 18 q 431 -11 475 -7 q 318 -15 386 -15 q 47 3 176 -15 l 56 46 q 333 36 217 35 q 444 44 403 38 q 523 68 486 50 q 579 122 560 86 q 608 218 599 158 q 596 342 619 303 q 489 415 572 381 m 292 -110 l 299 -82 q 389 -100 361 -78 q 408 -175 417 -122 q 335 -292 397 -250 q 185 -324 274 -335 l 196 -292 q 309 -259 263 -294 q 364 -171 356 -224 q 354 -124 369 -137 q 292 -110 339 -111 z "},"ş":{"ha":694,"x_min":42,"x_max":632,"o":"m 431 274 l 218 357 q 115 422 144 386 q 96 536 85 458 q 172 660 111 632 q 367 686 232 689 q 632 668 500 685 l 624 628 q 368 638 461 636 q 205 622 249 640 q 150 531 161 604 q 161 451 142 476 q 238 403 181 425 l 451 319 q 560 253 529 289 q 581 142 592 217 q 551 56 574 89 q 488 8 529 24 q 402 -12 446 -8 q 283 -17 358 -17 q 42 1 172 -17 l 49 42 q 281 32 164 31 q 466 56 415 35 q 526 149 517 78 q 512 227 533 204 q 431 274 490 250 m 246 -110 l 253 -81 q 363 -175 381 -72 q 290 -292 351 -250 q 140 -324 228 -335 l 150 -292 q 264 -259 217 -294 q 319 -171 311 -224 q 308 -124 324 -136 q 246 -110 293 -111 z "},"Š":{"ha":771,"x_min":47,"x_max":722,"o":"m 700 1207 l 488 1040 l 447 1040 l 282 1208 l 306 1232 l 465 1092 l 476 1092 l 679 1232 l 700 1207 m 489 415 l 286 499 q 153 597 186 540 q 131 753 119 654 q 168 875 142 828 q 242 943 194 922 q 335 969 289 964 q 458 974 382 975 q 722 954 606 971 l 715 913 q 439 922 551 922 q 365 921 390 922 q 303 910 339 919 q 249 883 268 901 q 213 831 231 865 q 189 744 196 796 q 203 626 181 667 q 303 553 226 585 l 506 469 q 647 370 614 425 q 667 211 681 315 q 637 110 657 151 q 590 43 617 68 q 519 6 563 18 q 431 -11 475 -7 q 318 -15 386 -15 q 47 3 176 -15 l 56 46 q 333 36 217 35 q 444 44 403 38 q 523 68 486 50 q 579 122 560 86 q 608 218 599 158 q 596 342 619 303 q 489 415 572 381 z "},"š":{"ha":694,"x_min":42,"x_max":638,"o":"m 638 954 l 426 789 l 385 789 l 219 957 l 243 981 l 403 839 l 414 839 l 617 981 l 638 954 m 431 274 l 218 357 q 115 422 144 386 q 96 536 85 458 q 172 660 111 632 q 367 686 232 689 q 632 668 500 685 l 624 628 q 368 638 461 636 q 205 622 249 640 q 150 531 161 604 q 161 451 142 476 q 238 403 181 425 l 451 319 q 560 253 529 289 q 581 142 592 217 q 551 56 574 89 q 488 8 529 24 q 402 -12 446 -8 q 283 -17 358 -17 q 42 1 172 -17 l 49 42 q 281 32 164 31 q 466 56 415 35 q 526 149 517 78 q 512 227 533 204 q 431 274 490 250 z "},"Ţ":{"ha":781,"x_min":103,"x_max":826,"o":"m 819 908 l 489 908 l 361 0 l 304 0 l 432 908 l 103 908 l 110 958 l 826 958 l 819 908 m 268 -94 l 275 -65 q 385 -160 403 -57 q 312 -277 374 -235 q 163 -308 250 -319 l 174 -276 q 286 -244 239 -279 q 342 -156 333 -208 q 331 -108 346 -121 q 268 -94 315 -96 z "},"ţ":{"ha":486,"x_min":51,"x_max":493,"o":"m 247 622 l 181 146 q 269 42 164 42 l 389 42 l 390 1 q 264 -10 328 -10 q 149 30 185 -10 q 125 143 114 69 l 192 622 l 69 622 l 75 663 l 199 668 l 228 876 l 282 876 l 254 669 l 493 669 l 485 622 l 247 622 m 158 -104 l 165 -75 q 256 -93 228 -71 q 274 -169 283 -115 q 201 -287 263 -244 q 51 -317 140 -329 l 63 -286 q 176 -252 129 -287 q 231 -165 222 -217 q 221 -118 236 -131 q 158 -104 206 -106 z "},"Ť":{"ha":781,"x_min":103,"x_max":826,"o":"m 461 1040 l 296 1208 l 319 1232 l 479 1092 l 490 1092 l 693 1232 l 714 1207 l 503 1040 l 461 1040 m 819 908 l 489 908 l 361 0 l 304 0 l 432 908 l 103 908 l 110 958 l 826 958 l 819 908 z "},"ť":{"ha":486,"x_min":69,"x_max":493,"o":"m 399 779 l 371 788 q 406 929 392 857 q 392 947 389 929 l 403 1026 q 428 1046 407 1046 l 447 1046 q 464 1025 468 1046 l 451 943 q 399 779 443 874 m 247 622 l 181 146 q 269 42 164 42 l 389 42 l 390 1 q 264 -10 328 -10 q 149 30 185 -10 q 125 143 114 69 l 192 622 l 69 622 l 75 663 l 199 668 l 228 876 l 282 876 l 254 669 l 493 669 l 485 622 l 247 622 z "},"Ŧ":{"ha":781,"x_min":103,"x_max":826,"o":"m 489 908 l 443 588 l 661 588 l 656 549 l 439 549 l 361 0 l 304 0 l 381 549 l 183 549 l 189 588 l 386 588 l 432 908 l 103 908 l 110 958 l 826 958 l 819 908 l 489 908 z "},"ŧ":{"ha":486,"x_min":69,"x_max":493,"o":"m 247 622 l 225 468 l 439 468 l 433 431 l 219 431 l 181 146 q 269 42 164 42 l 389 42 l 390 1 q 264 -10 328 -10 q 149 30 185 -10 q 125 143 114 69 l 165 431 l 69 431 l 75 468 l 171 468 l 192 622 l 69 622 l 75 663 l 199 668 l 228 876 l 282 876 l 254 669 l 493 669 l 485 622 l 247 622 z "},"Ū":{"ha":925,"x_min":124,"x_max":874,"o":"m 747 1110 l 379 1110 l 386 1157 l 754 1157 l 747 1110 m 874 958 l 789 356 q 674 68 760 153 q 410 -17 589 -17 q 162 70 228 -17 q 124 360 96 157 l 207 958 l 265 958 l 181 356 q 207 106 156 178 q 408 35 258 35 q 633 108 560 35 q 732 360 707 182 l 815 958 l 874 958 z "},"ū":{"ha":776,"x_min":85,"x_max":690,"o":"m 632 860 l 264 860 l 269 906 l 638 906 l 632 860 m 690 669 l 596 0 l 554 0 l 572 168 q 243 -17 388 -17 q 112 31 153 -17 q 85 168 71 78 l 156 669 l 211 669 l 140 176 q 158 67 131 101 q 257 33 186 33 q 398 77 326 33 q 572 218 469 121 l 636 669 l 690 669 z "},"Ů":{"ha":925,"x_min":124,"x_max":874,"o":"m 578 1268 q 675 1228 639 1268 q 703 1129 711 1188 q 656 1036 696 1075 q 556 997 615 997 q 458 1038 493 997 q 429 1136 422 1078 q 477 1229 436 1190 q 578 1268 518 1268 m 578 1233 q 503 1203 533 1233 q 468 1131 474 1174 q 488 1060 463 1088 q 556 1032 513 1032 q 629 1062 599 1032 q 665 1135 660 1092 q 645 1205 669 1176 q 578 1233 621 1233 m 874 958 l 789 356 q 674 68 760 153 q 410 -17 589 -17 q 162 70 228 -17 q 124 360 96 157 l 207 958 l 265 958 l 181 356 q 207 106 156 178 q 408 35 258 35 q 633 108 560 35 q 732 360 707 182 l 815 958 l 874 958 z "},"ů":{"ha":776,"x_min":85,"x_max":690,"o":"m 439 746 q 342 786 378 746 q 314 885 307 826 q 362 978 321 940 q 461 1017 403 1017 q 558 976 522 1017 q 588 878 594 936 q 540 785 581 824 q 439 746 499 746 m 353 879 q 372 810 347 838 q 439 782 396 782 q 513 812 482 782 q 549 885 544 842 q 531 953 554 925 q 463 982 507 982 q 388 952 418 982 q 353 879 357 922 m 690 669 l 596 0 l 554 0 l 572 168 q 243 -17 388 -17 q 112 31 153 -17 q 85 168 71 78 l 156 669 l 211 669 l 140 176 q 158 67 131 101 q 257 33 186 33 q 398 77 326 33 q 572 218 469 121 l 636 669 l 690 669 z "},"Ű":{"ha":925,"x_min":124,"x_max":874,"o":"m 836 1228 l 636 1015 l 610 1038 l 797 1258 l 836 1228 m 633 1228 l 433 1015 l 407 1038 l 594 1258 l 633 1228 m 874 958 l 789 356 q 674 68 760 153 q 410 -17 589 -17 q 162 70 228 -17 q 124 360 96 157 l 207 958 l 265 958 l 181 356 q 207 106 156 178 q 408 35 258 35 q 633 108 560 35 q 732 360 707 182 l 815 958 l 874 958 z "},"ű":{"ha":776,"x_min":85,"x_max":721,"o":"m 318 764 l 290 786 l 478 1007 l 518 978 l 318 764 m 494 786 l 682 1007 l 721 978 l 521 764 l 494 786 m 636 669 l 690 669 l 596 0 l 554 0 l 572 168 q 243 -17 388 -17 q 112 31 153 -17 q 85 168 71 78 l 156 669 l 211 669 l 140 176 q 158 67 131 101 q 257 33 186 33 q 398 77 326 33 q 572 218 469 121 l 636 669 z "},"Ų":{"ha":925,"x_min":124,"x_max":874,"o":"m 874 958 l 789 356 q 685 80 761 165 q 457 -15 610 -6 q 321 -186 365 -100 q 322 -265 290 -246 q 432 -257 353 -283 l 439 -282 q 279 -292 321 -326 q 276 -179 238 -257 q 419 -17 315 -100 l 410 -17 q 162 70 228 -17 q 124 360 96 157 l 207 958 l 265 958 l 181 356 q 207 106 156 178 q 408 35 258 35 q 633 108 560 35 q 732 360 707 182 l 815 958 l 874 958 z "},"ų":{"ha":776,"x_min":85,"x_max":690,"o":"m 690 669 l 596 0 q 456 -174 500 -89 q 457 -252 425 -233 q 568 -244 489 -271 l 575 -269 q 415 -279 457 -314 q 413 -167 374 -244 q 560 0 451 -86 l 554 0 l 572 168 q 243 -17 388 -17 q 112 31 153 -17 q 85 168 71 78 l 156 669 l 211 669 l 140 176 q 158 67 131 101 q 257 33 186 33 q 398 77 326 33 q 572 218 469 121 l 636 669 l 690 669 z "},"Ŵ":{"ha":1292,"x_min":118,"x_max":1325,"o":"m 947 1060 l 924 1035 l 761 1176 l 750 1176 l 547 1035 l 528 1061 l 738 1228 l 778 1228 l 947 1060 m 1325 958 l 954 18 q 926 0 949 0 l 847 0 q 824 22 826 0 l 743 807 q 738 859 742 825 q 732 911 735 893 l 699 911 l 657 803 l 358 19 q 331 0 351 0 l 251 0 q 226 21 229 0 l 118 958 l 176 958 l 267 147 q 275 44 269 114 l 314 44 q 326 77 318 56 q 340 116 333 99 q 351 149 346 133 l 654 938 q 681 958 661 958 l 756 958 q 781 935 778 958 l 864 146 q 872 44 864 140 l 911 44 l 949 149 l 1265 958 l 1325 958 z "},"ŵ":{"ha":1143,"x_min":76,"x_max":1108,"o":"m 846 808 l 822 783 l 661 925 l 649 925 l 446 783 l 428 810 l 638 976 l 678 976 l 846 808 m 246 46 l 264 46 q 318 81 293 46 q 428 289 375 161 q 543 654 492 438 q 564 669 546 672 l 622 669 q 643 653 640 669 l 732 46 l 749 46 q 801 82 776 46 q 924 288 881 199 q 1050 669 1007 457 l 1108 669 q 967 263 1053 432 q 831 40 886 110 q 749 0 794 0 l 710 0 q 688 18 690 0 l 600 628 l 585 628 q 475 275 544 436 q 413 144 450 213 q 349 43 375 75 q 263 0 317 0 l 224 0 q 201 18 207 0 l 76 669 l 133 669 l 246 46 z "},"Ŷ":{"ha":754,"x_min":99,"x_max":804,"o":"m 276 1035 l 257 1063 l 467 1228 l 507 1228 l 676 1060 l 653 1036 l 492 1176 l 479 1176 l 276 1035 m 396 351 l 346 0 l 288 0 l 339 353 l 99 958 l 157 958 l 332 510 q 368 410 357 444 l 378 410 q 440 511 406 460 l 742 958 l 804 958 l 396 351 z "},"ŷ":{"ha":719,"x_min":53,"x_max":689,"o":"m 207 783 l 189 810 l 399 976 l 439 976 l 607 808 l 583 783 l 422 925 l 410 925 l 207 783 m 632 669 l 689 669 q 444 89 608 353 q 250 -180 335 -92 q 63 -290 165 -268 l 53 -253 q 193 -169 128 -229 q 329 0 258 -108 l 276 0 q 232 15 250 0 q 208 54 214 31 l 74 669 l 132 669 l 256 79 q 297 47 265 44 l 358 47 l 393 103 q 632 669 547 357 z "},"Ÿ":{"ha":754,"x_min":99,"x_max":804,"o":"m 356 1076 l 339 1076 q 319 1097 318 1076 l 332 1172 q 354 1194 333 1194 l 372 1194 q 390 1172 392 1194 l 378 1099 q 356 1076 376 1076 m 599 1076 l 581 1076 q 563 1097 561 1076 l 575 1172 q 597 1194 576 1194 l 615 1194 q 632 1172 636 1194 l 621 1099 q 599 1076 619 1076 m 396 351 l 346 0 l 288 0 l 339 353 l 99 958 l 157 958 l 332 510 q 368 410 357 444 l 378 410 q 440 511 406 460 l 742 958 l 804 958 l 396 351 z "},"Ź":{"ha":771,"x_min":10,"x_max":775,"o":"m 426 1019 l 401 1049 l 644 1251 l 676 1208 l 426 1019 m 83 50 l 656 50 l 647 0 l 10 0 l 18 50 l 701 908 l 143 908 l 150 958 l 775 958 l 768 908 l 83 50 z "},"ź":{"ha":681,"x_min":13,"x_max":644,"o":"m 335 767 l 311 796 l 554 999 l 586 956 l 335 767 m 638 621 l 88 47 l 561 47 l 554 0 l 13 0 l 19 47 l 568 621 l 106 621 l 111 669 l 644 669 l 638 621 z "},"Ż":{"ha":771,"x_min":10,"x_max":775,"o":"m 490 1069 l 472 1069 q 451 1093 449 1069 l 463 1175 q 486 1197 464 1197 l 507 1197 q 526 1174 529 1197 l 515 1092 q 490 1069 511 1069 m 83 50 l 656 50 l 647 0 l 10 0 l 18 50 l 701 908 l 143 908 l 150 958 l 775 958 l 768 908 l 83 50 z "},"ż":{"ha":681,"x_min":13,"x_max":644,"o":"m 400 818 l 381 818 q 361 840 358 818 l 372 922 q 394 944 374 944 l 417 944 q 435 922 439 944 l 424 840 q 400 818 422 818 m 638 621 l 88 47 l 561 47 l 554 0 l 13 0 l 19 47 l 568 621 l 106 621 l 111 669 l 644 669 l 638 621 z "},"Ž":{"ha":771,"x_min":10,"x_max":775,"o":"m 457 1040 l 290 1208 l 314 1232 l 475 1092 l 486 1092 l 689 1232 l 710 1207 l 497 1040 l 457 1040 m 83 50 l 656 50 l 647 0 l 10 0 l 18 50 l 701 908 l 143 908 l 150 958 l 775 958 l 768 908 l 83 50 z "},"ž":{"ha":681,"x_min":13,"x_max":644,"o":"m 365 789 l 200 957 l 224 981 l 383 839 l 394 839 l 599 981 l 619 954 l 407 789 l 365 789 m 638 621 l 88 47 l 561 47 l 554 0 l 13 0 l 19 47 l 568 621 l 106 621 l 111 669 l 644 669 l 638 621 z "},"ƒ":{"ha":574,"x_min":-161,"x_max":628,"o":"m 233 539 l 292 785 q 365 925 313 879 q 511 971 417 971 q 628 965 585 971 l 618 924 l 522 924 q 403 891 443 924 q 346 778 364 858 l 289 539 l 513 539 l 500 492 l 278 492 l 163 0 q 92 -140 140 -94 q -44 -186 43 -186 q -161 -179 -122 -186 l -153 -139 l -58 -139 q 51 -106 14 -139 q 108 7 89 -72 l 222 492 l 89 492 l 99 532 l 233 539 z "},"Ș":{"ha":771,"x_min":47,"x_max":722,"o":"m 489 415 l 286 499 q 153 597 186 540 q 131 753 119 654 q 168 875 142 828 q 242 943 194 922 q 335 969 289 964 q 458 974 382 975 q 722 954 606 971 l 715 913 q 439 922 551 922 q 365 921 390 922 q 303 910 339 919 q 249 883 268 901 q 213 831 231 865 q 189 744 196 796 q 203 626 181 667 q 303 553 226 585 l 506 469 q 647 370 614 425 q 667 211 681 315 q 637 110 657 151 q 590 43 617 68 q 519 6 563 18 q 431 -11 475 -7 q 318 -15 386 -15 q 47 3 176 -15 l 56 46 q 333 36 217 35 q 444 44 403 38 q 523 68 486 50 q 579 122 560 86 q 608 218 599 158 q 596 342 619 303 q 489 415 572 381 m 351 -87 l 371 -87 q 388 -108 389 -87 l 375 -190 q 322 -354 365 -261 l 294 -344 q 328 -203 317 -272 q 317 -199 321 -204 q 314 -185 313 -193 l 326 -107 q 333 -92 329 -96 q 351 -87 338 -87 z "},"ș":{"ha":694,"x_min":42,"x_max":632,"o":"m 431 274 l 218 357 q 115 422 144 386 q 96 536 85 458 q 172 660 111 632 q 367 686 232 689 q 632 668 500 685 l 624 628 q 368 638 461 636 q 205 622 249 640 q 150 531 161 604 q 161 451 142 476 q 238 403 181 425 l 451 319 q 560 253 529 289 q 581 142 592 217 q 551 56 574 89 q 488 8 529 24 q 402 -12 446 -8 q 283 -17 358 -17 q 42 1 172 -17 l 49 42 q 281 32 164 31 q 466 56 415 35 q 526 149 517 78 q 512 227 533 204 q 431 274 490 250 m 292 -87 l 311 -87 q 328 -108 329 -87 l 315 -190 q 263 -354 306 -261 l 235 -344 q 268 -203 257 -272 q 257 -199 261 -204 q 254 -185 253 -193 l 267 -107 q 274 -92 269 -96 q 292 -87 278 -87 z "},"Ț":{"ha":781,"x_min":103,"x_max":826,"o":"m 819 908 l 489 908 l 361 0 l 304 0 l 432 908 l 103 908 l 110 958 l 826 958 l 819 908 m 310 -87 l 329 -87 q 346 -108 350 -87 l 333 -190 q 281 -354 326 -256 l 253 -344 q 288 -203 274 -275 q 276 -199 281 -204 q 274 -185 272 -193 l 286 -107 q 310 -87 288 -87 z "},"ț":{"ha":486,"x_min":69,"x_max":493,"o":"m 247 622 l 181 146 q 269 42 164 42 l 389 42 l 390 1 q 264 -10 328 -10 q 149 30 185 -10 q 125 143 114 69 l 192 622 l 69 622 l 75 663 l 199 668 l 228 876 l 282 876 l 254 669 l 493 669 l 485 622 l 247 622 m 226 -87 l 247 -87 q 263 -108 267 -87 l 251 -190 q 199 -354 243 -253 l 171 -344 q 204 -203 193 -272 q 193 -199 197 -204 q 190 -185 189 -193 l 203 -107 q 226 -87 204 -87 z "},"ˆ":{"ha":554,"x_min":138,"x_max":557,"o":"m 557 813 l 533 789 l 372 929 l 360 929 l 157 788 l 138 815 l 347 981 l 388 981 l 557 813 z "},"ˇ":{"ha":554,"x_min":156,"x_max":575,"o":"m 575 960 l 363 793 l 322 793 l 156 961 l 181 985 l 340 844 l 351 844 l 554 985 l 575 960 z "},"˘":{"ha":503,"x_min":144,"x_max":532,"o":"m 499 960 l 532 950 q 465 830 522 874 q 319 786 408 786 q 180 831 228 786 q 144 953 132 876 l 179 956 q 208 865 169 897 q 319 833 246 833 q 443 867 394 833 q 499 960 492 901 z "},"˙":{"ha":292,"x_min":185,"x_max":260,"o":"m 218 942 l 240 942 q 260 919 261 942 l 249 838 q 224 815 244 815 l 204 815 q 185 838 182 815 l 196 919 q 218 942 197 942 z "},"˚":{"ha":408,"x_min":144,"x_max":419,"o":"m 293 1021 q 390 981 354 1021 q 419 882 426 940 q 370 789 411 828 q 271 750 329 750 q 174 790 210 750 q 144 889 138 831 q 192 983 151 944 q 293 1021 233 1021 m 361 958 q 349 972 361 958 q 293 986 338 986 q 219 956 249 986 q 183 883 189 926 q 203 814 178 842 q 271 786 228 786 q 344 816 314 786 q 381 889 375 846 q 361 958 385 931 z "},"˛":{"ha":351,"x_min":4,"x_max":188,"o":"m 156 3 l 188 0 q 47 -174 92 -89 q 49 -252 17 -233 q 160 -244 81 -271 l 167 -269 q 7 -279 49 -314 q 4 -167 -35 -244 q 156 3 46 -83 z "},"˜":{"ha":563,"x_min":144,"x_max":574,"o":"m 176 824 l 144 828 q 183 929 150 896 q 265 958 215 963 q 360 913 308 954 q 449 868 411 872 q 542 953 532 863 l 574 950 q 536 853 568 886 q 454 824 504 819 q 351 869 404 828 q 269 914 299 911 q 176 824 189 922 z "},"˝":{"ha":585,"x_min":149,"x_max":579,"o":"m 375 968 l 175 756 l 149 776 l 336 999 l 375 968 m 579 968 l 379 756 l 351 776 l 539 999 l 579 968 z "},"Δ":{"ha":853,"x_min":-11,"x_max":757,"o":"m 757 36 l 751 0 l -11 0 l -7 36 l 475 958 l 535 958 l 757 36 m 696 49 l 519 804 q 513 835 517 815 q 505 870 508 854 q 499 900 501 886 q 474 847 490 881 q 451 800 457 814 l 61 49 l 696 49 z "},"Ω":{"ha":993,"x_min":18,"x_max":890,"o":"m 25 50 l 200 50 q 289 49 258 50 q 149 237 186 129 q 135 506 111 344 q 272 859 167 743 q 576 975 378 975 q 848 856 772 975 q 890 497 924 738 q 801 231 867 333 q 610 49 736 128 q 693 50 638 50 l 871 50 l 865 0 l 540 0 l 544 50 q 742 233 678 131 q 829 499 807 336 q 801 822 861 719 q 575 924 740 924 q 313 820 403 924 q 192 490 224 717 q 205 229 168 324 q 349 49 242 135 l 343 0 l 18 0 l 25 50 z "},"μ":{"ha":804,"x_min":35,"x_max":704,"o":"m 704 669 l 610 0 l 568 0 l 578 115 q 263 -17 401 -17 q 125 40 167 -17 q 115 -78 125 -7 l 86 -289 l 35 -289 l 99 174 l 169 669 l 224 669 l 154 176 q 174 70 144 104 q 275 36 203 36 q 408 65 340 36 q 578 160 475 94 l 649 669 l 704 669 z "},"π":{"ha":886,"x_min":71,"x_max":883,"o":"m 876 622 l 729 622 l 640 0 l 585 0 l 674 622 l 274 622 l 186 0 l 131 0 l 218 622 l 71 622 l 76 669 l 883 669 l 876 622 z "},"Ё":{"ha":765,"x_min":93,"x_max":765,"o":"m 406 1110 l 389 1110 q 371 1131 367 1110 l 382 1206 q 404 1226 383 1226 l 422 1226 q 440 1206 442 1226 l 428 1132 q 406 1110 426 1110 m 649 1110 l 632 1110 q 614 1131 610 1110 l 625 1206 q 647 1226 626 1226 l 665 1226 q 683 1206 685 1226 l 671 1132 q 649 1110 669 1110 m 757 910 l 364 910 q 240 799 256 910 l 203 535 l 649 535 l 642 489 l 197 489 l 151 156 q 169 78 144 107 q 242 49 193 49 l 636 49 l 636 6 q 232 0 503 0 q 121 43 160 0 q 93 156 82 86 l 185 813 q 239 919 194 879 q 354 958 283 958 q 765 953 631 958 l 757 910 z "},"Ђ":{"ha":1033,"x_min":103,"x_max":949,"o":"m 489 908 l 431 496 q 754 604 597 604 q 921 537 871 604 q 949 313 971 469 q 824 67 924 140 q 554 0 724 -6 l 551 40 q 787 107 704 49 q 892 314 869 165 q 874 501 911 450 q 743 553 836 553 q 589 528 656 553 q 424 443 522 504 l 361 0 l 304 0 l 432 908 l 103 908 l 110 958 l 826 958 l 819 908 l 489 908 z "},"Ѓ":{"ha":714,"x_min":76,"x_max":756,"o":"m 701 1208 l 450 1019 l 426 1049 l 669 1251 l 701 1208 m 76 0 l 190 808 q 246 920 200 882 q 357 958 292 958 q 756 951 625 958 l 747 910 l 372 910 q 246 797 261 910 l 133 0 l 76 0 z "},"Є":{"ha":788,"x_min":108,"x_max":796,"o":"m 796 950 l 783 907 q 554 924 679 924 q 298 838 382 924 q 176 535 214 753 l 607 535 l 601 489 l 168 489 l 167 475 q 159 215 140 313 q 238 77 178 118 q 415 35 297 36 q 669 53 557 35 l 676 10 q 415 -17 553 -18 q 139 97 207 -15 q 108 482 71 208 q 246 866 147 757 q 551 975 344 975 q 796 950 694 975 z "},"Ѕ":{"ha":771,"x_min":47,"x_max":722,"o":"m 489 415 l 286 499 q 153 597 186 540 q 131 753 119 654 q 168 875 142 828 q 242 943 194 922 q 335 969 289 964 q 458 974 382 975 q 722 954 606 971 l 715 913 q 439 922 551 922 q 365 921 390 922 q 303 910 339 919 q 249 883 268 901 q 213 831 231 865 q 189 744 196 796 q 203 626 181 667 q 303 553 226 585 l 506 469 q 647 370 614 425 q 667 211 681 315 q 637 110 657 151 q 590 43 617 68 q 519 6 563 18 q 431 -11 475 -7 q 318 -15 386 -15 q 47 3 176 -15 l 56 46 q 333 36 217 35 q 444 44 403 38 q 523 68 486 50 q 579 122 560 86 q 608 218 599 158 q 596 342 619 303 q 489 415 572 381 z "},"І":{"ha":331,"x_min":81,"x_max":272,"o":"m 138 0 l 81 0 l 215 958 l 272 958 l 138 0 z "},"Ї":{"ha":332,"x_min":81,"x_max":424,"o":"m 144 1194 l 164 1194 q 181 1172 182 1194 l 169 1099 q 147 1076 168 1076 l 129 1076 q 111 1097 110 1076 l 122 1172 q 144 1194 126 1194 m 388 1194 l 407 1194 q 424 1172 425 1194 l 413 1099 q 389 1076 411 1076 l 372 1076 q 354 1097 353 1076 l 365 1172 q 388 1194 369 1194 m 138 0 l 81 0 l 215 958 l 272 958 l 138 0 z "},"Ј":{"ha":453,"x_min":-7,"x_max":399,"o":"m 399 958 l 288 169 q 93 -10 264 -12 q -7 1 46 -10 l 6 40 l 81 40 q 232 172 213 40 l 342 958 l 399 958 z "},"Љ":{"ha":1342,"x_min":-15,"x_max":1249,"o":"m 753 543 l 992 543 q 1213 480 1157 543 q 1249 263 1269 417 q 1155 47 1226 104 q 924 -11 1083 -11 q 619 0 731 -11 l 747 910 l 533 910 q 444 885 475 910 q 400 796 414 861 q 300 370 333 479 q 194 160 267 261 q -11 0 96 19 l -15 50 q 63 94 26 64 q 144 183 99 125 q 244 379 213 278 q 346 810 275 481 q 406 924 363 890 q 522 958 449 958 l 811 958 l 753 543 m 746 493 l 682 43 q 878 40 736 40 q 1107 83 1043 40 q 1190 269 1171 125 q 1167 444 1210 396 q 989 493 1125 493 l 746 493 z "},"Њ":{"ha":1360,"x_min":81,"x_max":1267,"o":"m 771 542 l 1011 542 q 1233 478 1176 542 q 1267 263 1289 415 q 1174 47 1246 104 q 943 -11 1103 -11 q 639 0 750 -11 l 707 492 l 207 492 l 138 0 l 81 0 l 215 958 l 272 958 l 214 540 l 714 540 l 774 958 l 831 958 l 771 542 m 764 492 l 701 43 q 938 40 801 40 q 1132 88 1074 40 q 1210 269 1190 135 q 1185 443 1228 394 q 1007 492 1143 492 l 764 492 z "},"Ћ":{"ha":1083,"x_min":103,"x_max":994,"o":"m 489 908 l 428 472 q 815 604 614 604 q 994 397 1024 604 l 939 0 l 882 0 l 936 390 q 915 515 947 476 q 800 553 883 553 q 618 523 701 553 q 419 418 535 493 l 361 0 l 304 0 l 432 908 l 103 908 l 110 958 l 826 958 l 819 908 l 489 908 z "},"Ќ":{"ha":803,"x_min":81,"x_max":804,"o":"m 456 1019 l 432 1049 l 675 1251 l 707 1208 l 456 1019 m 415 501 l 413 497 q 465 486 440 494 q 510 458 490 478 q 547 421 531 438 q 578 367 563 404 q 604 310 594 331 q 628 239 614 289 q 649 166 643 189 q 671 82 656 143 q 692 -1 686 21 l 633 1 q 614 78 626 28 q 594 153 601 129 q 576 220 588 178 q 556 283 564 263 q 533 337 547 304 q 506 385 518 369 q 474 422 493 401 q 435 453 456 443 q 390 469 415 463 q 335 476 364 476 l 199 476 q 186 360 197 424 l 136 0 l 81 0 l 215 958 l 271 958 l 226 636 q 206 524 215 567 l 336 524 q 453 556 397 524 q 554 648 508 589 q 640 772 600 707 q 724 919 679 838 q 744 960 738 946 l 804 957 q 642 675 686 740 q 415 501 528 513 z "},"Ѝ":{"ha":946,"x_min":81,"x_max":886,"o":"m 617 1046 l 592 1019 l 388 1210 l 424 1250 l 617 1046 m 751 0 l 696 0 l 800 742 l 821 876 l 818 875 l 794 839 q 757 788 769 803 l 139 0 l 81 0 l 215 958 l 271 958 l 168 222 q 146 82 151 113 l 149 83 q 218 179 197 151 l 828 958 l 886 958 l 751 0 z "},"Ў":{"ha":751,"x_min":64,"x_max":799,"o":"m 647 1218 l 681 1208 q 614 1089 671 1132 q 468 1046 557 1046 q 328 1091 376 1046 q 293 1211 281 1136 l 328 1215 q 356 1125 318 1157 q 468 1093 394 1093 q 592 1126 543 1093 q 647 1218 640 1160 m 799 958 l 424 225 q 378 140 396 169 q 333 71 361 110 q 274 13 306 32 q 207 -8 243 -6 q 64 10 131 -14 l 72 49 q 148 39 119 42 q 205 43 176 36 q 249 59 233 50 q 285 96 264 68 q 322 151 307 124 q 367 232 338 178 l 394 283 l 338 283 q 267 338 281 283 l 118 958 l 176 958 l 315 360 q 350 332 322 332 l 418 332 l 738 958 l 799 958 z "},"Џ":{"ha":928,"x_min":81,"x_max":868,"o":"m 868 958 l 733 0 l 443 0 l 410 -210 l 369 -210 l 393 0 l 81 0 l 215 958 l 272 958 l 144 49 l 683 49 l 811 958 l 868 958 z "},"А":{"ha":839,"x_min":-33,"x_max":764,"o":"m 636 336 l 194 336 l 29 0 l -33 0 l 435 942 q 460 958 440 958 l 538 958 q 561 939 558 958 l 764 0 l 706 0 l 636 336 m 625 388 l 532 833 q 525 869 531 843 q 517 911 519 896 l 475 911 l 438 832 l 218 388 l 625 388 z "},"Б":{"ha":822,"x_min":81,"x_max":772,"o":"m 265 913 l 211 522 l 461 522 q 684 462 628 522 q 719 253 740 401 q 627 44 699 99 q 396 -11 556 -11 q 81 0 194 -11 l 215 958 q 492 965 329 965 q 772 958 615 965 l 761 913 l 265 913 m 204 474 l 143 42 q 392 39 249 39 q 585 84 526 39 q 663 260 644 129 q 637 428 679 382 q 458 474 594 474 l 204 474 z "},"В":{"ha":850,"x_min":81,"x_max":772,"o":"m 81 0 l 215 958 q 494 969 317 969 q 731 916 668 969 q 772 717 793 863 q 712 560 757 613 q 579 500 667 508 l 579 494 q 716 420 681 485 q 733 236 751 356 q 642 40 713 90 q 406 -11 571 -11 q 81 0 194 -11 m 210 519 l 457 519 q 642 562 586 521 q 715 719 699 603 q 684 879 732 839 q 493 919 636 919 l 265 918 l 210 519 m 203 474 l 143 42 q 400 39 251 39 q 600 81 540 39 q 676 247 660 124 q 647 424 694 378 q 454 474 599 471 l 203 474 z "},"Г":{"ha":714,"x_min":76,"x_max":756,"o":"m 76 0 l 190 808 q 246 920 200 882 q 357 958 292 958 q 756 951 625 958 l 747 910 l 372 910 q 246 797 261 910 l 133 0 l 76 0 z "},"Д":{"ha":915,"x_min":-56,"x_max":833,"o":"m 819 49 l 815 10 l 785 -210 l 742 -210 l 761 0 l 26 0 l -12 -210 l -56 -210 l -25 0 l -19 49 l 60 49 q 328 810 246 317 q 383 924 342 889 q 500 958 425 958 l 833 958 l 706 49 l 819 49 m 649 49 l 769 910 l 508 910 q 422 885 453 910 q 382 799 392 860 q 122 49 296 307 l 649 49 z "},"Е":{"ha":765,"x_min":93,"x_max":765,"o":"m 757 910 l 364 910 q 240 799 256 910 l 203 535 l 649 535 l 642 489 l 197 489 l 151 156 q 169 78 144 107 q 242 49 193 49 l 636 49 l 636 6 q 232 0 503 0 q 121 43 160 0 q 93 156 82 86 l 185 813 q 239 919 194 879 q 354 958 283 958 q 765 953 631 958 l 757 910 z "},"Ж":{"ha":1240,"x_min":3,"x_max":1239,"o":"m 894 501 l 894 497 q 976 460 942 490 q 1038 351 1010 431 q 1078 228 1067 272 q 1117 50 1089 183 q 1128 0 1124 17 l 1071 0 q 999 301 1018 243 q 864 469 950 444 q 815 476 842 476 l 658 476 q 647 360 656 408 l 597 0 l 542 0 l 593 363 q 615 476 601 419 l 464 476 q 401 469 431 476 q 344 441 372 461 q 295 403 317 421 q 247 345 274 385 q 204 279 221 306 q 158 195 188 253 q 114 105 129 138 q 65 0 99 72 l 3 0 q 57 118 38 78 q 107 219 76 158 q 158 313 138 281 q 209 386 179 346 q 265 447 239 426 q 322 482 290 467 q 389 500 354 497 l 390 503 q 308 548 344 508 q 247 651 271 588 q 203 784 222 714 q 167 936 185 854 q 163 958 164 951 l 218 958 q 292 682 268 744 q 465 524 354 524 l 622 524 q 632 639 622 564 l 678 958 l 732 958 l 688 636 q 667 524 672 549 l 819 524 q 921 556 872 524 q 1010 647 969 588 q 1085 769 1051 707 q 1160 917 1119 832 q 1179 958 1172 944 l 1239 958 q 1088 663 1132 731 q 894 501 992 511 z "},"З":{"ha":753,"x_min":1,"x_max":672,"o":"m 154 908 l 150 950 q 394 969 267 969 q 630 915 567 969 q 672 717 693 861 q 612 560 657 613 q 482 500 567 508 l 478 494 q 615 421 579 485 q 633 236 650 357 q 542 40 613 92 q 306 -11 472 -11 q 1 11 129 -11 l 11 53 q 300 39 247 39 q 499 81 439 39 q 575 247 558 124 q 544 426 593 378 q 354 474 496 474 l 207 474 l 213 519 l 357 519 q 542 561 486 519 q 615 719 599 603 q 585 880 632 840 q 393 919 538 919 q 292 917 342 919 q 204 912 243 915 q 154 908 165 908 z "},"И":{"ha":946,"x_min":81,"x_max":886,"o":"m 751 0 l 696 0 l 800 742 l 821 876 l 818 875 l 794 839 q 757 788 769 803 l 139 0 l 81 0 l 215 958 l 271 958 l 168 222 q 146 82 151 113 l 149 83 q 218 179 197 151 l 828 958 l 886 958 l 751 0 z "},"Й":{"ha":946,"x_min":81,"x_max":886,"o":"m 728 1215 l 775 1215 q 708 1092 765 1139 q 563 1046 650 1046 q 423 1092 471 1046 q 388 1215 375 1139 l 436 1215 q 461 1115 426 1150 q 564 1081 496 1081 q 676 1115 632 1081 q 728 1215 719 1150 m 751 0 l 696 0 l 800 742 l 821 876 l 818 875 l 794 839 q 757 788 769 803 l 139 0 l 81 0 l 215 958 l 271 958 l 168 222 q 146 82 151 113 l 149 83 q 218 179 197 151 l 828 958 l 886 958 l 751 0 z "},"К":{"ha":803,"x_min":81,"x_max":804,"o":"m 415 501 l 413 497 q 465 486 440 494 q 510 458 490 478 q 547 421 531 438 q 578 367 563 404 q 604 310 594 331 q 628 239 614 289 q 649 166 643 189 q 671 82 656 143 q 692 -1 686 21 l 633 1 q 614 78 626 28 q 594 153 601 129 q 576 220 588 178 q 556 283 564 263 q 533 337 547 304 q 506 385 518 369 q 474 422 493 401 q 435 453 456 443 q 390 469 415 463 q 335 476 364 476 l 199 476 q 186 360 197 424 l 136 0 l 81 0 l 215 958 l 271 958 l 226 636 q 206 524 215 567 l 336 524 q 453 556 397 524 q 554 648 508 589 q 640 772 600 707 q 724 919 679 838 q 744 960 738 946 l 804 957 q 642 675 686 740 q 415 501 528 513 z "},"Л":{"ha":885,"x_min":-35,"x_max":825,"o":"m 825 958 l 690 0 l 633 0 l 761 910 l 514 910 q 424 885 456 910 q 381 796 393 860 q 279 367 313 476 q 178 160 246 258 q -31 0 88 26 l -35 49 q 18 76 -1 64 q 67 115 38 88 q 126 185 97 143 q 224 380 192 278 q 326 810 256 482 q 387 924 344 889 q 504 958 429 958 l 825 958 z "},"М":{"ha":1194,"x_min":60,"x_max":1110,"o":"m 1004 958 l 1083 958 q 1110 928 1113 958 l 1021 0 l 963 0 l 1051 910 l 1019 910 l 619 108 q 592 90 613 90 l 519 90 q 493 111 497 90 l 317 910 l 283 910 l 117 0 l 60 0 l 232 932 q 263 958 236 958 l 339 958 q 364 936 361 958 l 514 265 q 530 195 521 240 q 542 135 539 150 l 576 135 l 640 269 l 976 940 q 1004 958 986 958 z "},"Н":{"ha":915,"x_min":81,"x_max":857,"o":"m 857 958 l 722 0 l 665 0 l 733 488 l 206 488 l 138 0 l 81 0 l 215 958 l 272 958 l 214 538 l 740 538 l 800 958 l 857 958 z "},"О":{"ha":919,"x_min":110,"x_max":829,"o":"m 536 975 q 801 863 735 975 q 829 476 868 750 q 698 92 792 201 q 406 -17 604 -17 q 139 95 207 -17 q 110 482 71 207 q 242 865 149 756 q 536 975 336 975 m 535 924 q 283 826 363 924 q 168 476 204 728 q 187 132 135 229 q 406 35 239 35 q 656 133 576 35 q 771 482 735 231 q 756 828 807 732 q 535 924 704 924 z "},"П":{"ha":921,"x_min":81,"x_max":861,"o":"m 861 958 l 726 0 l 669 0 l 797 910 l 265 910 l 138 0 l 81 0 l 215 958 l 861 958 z "},"Р":{"ha":808,"x_min":81,"x_max":774,"o":"m 81 0 l 215 958 q 525 969 329 969 q 740 907 685 969 q 774 681 796 844 q 680 456 749 514 q 453 397 611 397 q 194 406 303 397 l 138 0 l 81 0 m 200 447 l 451 447 q 640 499 583 450 q 715 686 696 547 q 693 871 735 822 q 525 919 651 919 q 267 917 372 919 l 200 447 z "},"С":{"ha":776,"x_min":110,"x_max":781,"o":"m 664 53 l 671 10 q 404 -17 557 -17 q 138 97 204 -17 q 110 482 71 210 q 243 865 149 756 q 535 975 338 975 q 781 950 681 975 l 768 908 q 536 924 661 924 q 283 826 363 924 q 168 476 204 729 q 185 132 133 229 q 403 35 236 35 q 664 53 556 35 z "},"Т":{"ha":781,"x_min":103,"x_max":826,"o":"m 819 908 l 489 908 l 361 0 l 304 0 l 432 908 l 103 908 l 110 958 l 826 958 l 819 908 z "},"У":{"ha":751,"x_min":64,"x_max":799,"o":"m 799 958 l 424 225 q 378 140 396 169 q 333 71 361 110 q 274 13 306 32 q 207 -8 243 -6 q 64 10 131 -14 l 72 49 q 148 39 119 42 q 205 43 176 36 q 249 59 233 50 q 285 96 264 68 q 322 151 307 124 q 367 232 338 178 l 394 283 l 338 283 q 267 338 281 283 l 118 958 l 176 958 l 315 360 q 350 332 322 332 l 418 332 l 738 958 l 799 958 z "},"Ф":{"ha":1138,"x_min":107,"x_max":1056,"o":"m 689 1046 l 668 901 q 999 803 911 896 q 1056 489 1086 710 q 912 177 1025 268 q 553 82 799 86 l 533 -62 l 476 -62 l 496 82 q 164 180 251 88 q 107 496 76 272 q 251 808 138 717 q 611 901 364 899 l 632 1046 l 689 1046 m 661 853 l 558 131 q 872 216 775 136 q 997 496 969 296 q 951 772 1025 694 q 661 853 876 850 m 504 131 l 606 853 q 292 769 389 849 q 167 489 194 690 q 213 210 138 288 q 504 131 288 133 z "},"Х":{"ha":826,"x_min":-11,"x_max":840,"o":"m 499 499 l 724 0 l 664 0 l 451 476 l 404 476 l 57 0 l -11 0 l 356 500 l 143 958 l 203 958 l 403 524 l 451 524 l 776 958 l 840 958 l 499 499 z "},"Ц":{"ha":933,"x_min":81,"x_max":851,"o":"m 724 49 l 838 49 l 832 0 l 803 -210 l 760 -210 l 781 0 l 81 0 l 215 958 l 272 958 l 144 49 l 667 49 l 794 958 l 851 958 l 724 49 z "},"Ч":{"ha":844,"x_min":115,"x_max":785,"o":"m 785 958 l 650 0 l 593 0 l 664 500 q 293 367 474 367 q 145 414 189 367 q 115 574 101 461 l 169 958 l 226 958 l 175 579 q 193 454 164 490 q 306 418 222 418 q 483 453 400 418 q 671 553 567 488 l 728 958 l 785 958 z "},"Ш":{"ha":1261,"x_min":81,"x_max":1201,"o":"m 1201 958 l 1067 0 l 81 0 l 215 958 l 271 958 l 143 49 l 553 49 l 681 958 l 736 958 l 608 49 l 1017 49 l 1144 958 l 1201 958 z "},"Щ":{"ha":1272,"x_min":81,"x_max":1189,"o":"m 1061 49 l 1176 49 l 1169 0 l 1140 -210 l 1097 -210 l 1118 0 l 81 0 l 215 958 l 272 958 l 144 49 l 546 49 l 674 958 l 731 958 l 603 49 l 1006 49 l 1133 958 l 1189 958 l 1061 49 z "},"Ъ":{"ha":1022,"x_min":99,"x_max":931,"o":"m 424 543 l 674 543 q 895 480 839 543 q 931 263 951 417 q 838 47 910 104 q 606 -11 765 -11 q 290 0 404 -11 l 418 908 l 99 908 l 106 958 l 482 958 l 424 543 m 417 493 l 353 43 q 600 40 458 40 q 795 88 736 40 q 874 269 854 135 q 849 444 892 396 q 671 493 807 493 l 417 493 z "},"Ы":{"ha":1138,"x_min":81,"x_max":1078,"o":"m 214 543 l 464 543 q 687 480 631 543 q 721 263 743 417 q 628 47 700 104 q 397 -11 557 -11 q 81 0 194 -11 l 215 958 l 272 958 l 214 543 m 1078 958 l 943 0 l 885 0 l 1019 958 l 1078 958 m 207 493 l 143 43 q 392 40 249 40 q 585 88 526 40 q 664 269 644 135 q 640 444 682 396 q 461 493 597 493 l 207 493 z "},"Ь":{"ha":814,"x_min":81,"x_max":721,"o":"m 214 543 l 464 543 q 687 480 631 543 q 721 263 743 417 q 628 47 700 104 q 397 -11 557 -11 q 81 0 194 -11 l 215 958 l 272 958 l 214 543 m 207 493 l 143 43 q 392 40 249 40 q 585 88 526 40 q 664 269 644 135 q 640 444 682 396 q 461 493 597 493 l 207 493 z "},"Э":{"ha":789,"x_min":4,"x_max":700,"o":"m 150 907 l 143 950 q 389 975 251 975 q 669 864 599 975 q 700 476 739 753 q 565 94 663 203 q 263 -17 468 -14 q 4 11 118 -18 l 17 53 q 263 35 111 35 q 523 136 439 38 q 642 482 607 235 l 643 489 l 207 489 l 213 535 l 649 535 q 615 840 674 756 q 388 924 556 924 q 150 907 257 924 z "},"Ю":{"ha":1249,"x_min":81,"x_max":1160,"o":"m 211 524 l 463 524 q 592 874 501 774 q 867 975 683 975 q 1132 863 1065 975 q 1160 476 1199 751 q 1028 92 1122 201 q 735 -17 933 -17 q 481 93 543 -17 q 454 475 418 203 l 204 475 l 138 0 l 81 0 l 215 958 l 272 958 l 211 524 m 1101 482 q 1085 826 1136 729 q 867 924 1033 924 q 626 824 704 924 q 513 476 547 725 q 526 131 478 228 q 735 35 575 35 q 984 134 903 35 q 1101 482 1065 233 z "},"Я":{"ha":838,"x_min":14,"x_max":778,"o":"m 643 0 l 586 0 l 644 414 q 382 410 597 413 q 213 288 269 408 l 78 0 l 14 0 l 153 294 q 292 431 210 408 l 293 436 q 174 530 210 457 q 157 718 139 603 q 249 911 176 853 q 463 969 322 969 q 778 958 669 969 l 643 0 m 650 460 l 715 917 q 464 919 607 919 q 292 873 351 919 q 215 713 233 826 q 239 526 194 593 q 394 460 283 460 l 650 460 z "},"а":{"ha":788,"x_min":90,"x_max":701,"o":"m 607 0 l 564 0 l 582 164 q 417 31 507 79 q 251 -17 326 -17 q 94 65 129 -17 q 90 339 60 147 q 192 618 124 550 q 435 686 261 686 q 701 665 551 686 l 607 0 m 583 217 l 640 629 q 447 638 479 638 q 231 581 286 638 q 146 332 176 525 q 141 101 118 169 q 258 33 164 33 q 413 81 326 33 q 583 217 500 129 z "},"б":{"ha":781,"x_min":94,"x_max":732,"o":"m 719 1015 l 732 972 q 635 924 679 940 q 531 896 590 908 q 453 878 472 883 q 272 775 325 843 q 190 578 219 707 q 168 485 185 560 l 169 485 q 450 650 239 650 q 651 574 601 650 q 676 321 700 499 q 583 67 653 150 q 350 -17 513 -17 q 258 -10 299 -17 q 190 14 218 -3 q 143 50 163 31 q 113 101 124 69 q 98 163 103 132 q 95 238 93 193 q 101 321 97 282 q 113 417 104 360 q 210 773 149 669 q 436 924 271 876 q 519 943 463 932 q 619 969 575 954 q 719 1015 664 985 m 442 601 q 237 531 297 601 q 158 321 176 460 q 178 96 135 158 q 351 33 221 33 q 537 99 476 33 q 621 332 597 164 q 604 543 643 485 q 442 601 565 601 z "},"в":{"ha":768,"x_min":72,"x_max":672,"o":"m 493 371 l 493 368 q 650 163 676 358 q 567 22 635 60 q 350 -17 500 -17 q 244 -11 288 -17 q 166 10 201 -6 q 111 50 131 25 q 81 116 92 75 q 72 213 71 157 q 85 344 74 268 q 128 527 101 458 q 199 631 154 596 q 292 676 243 665 q 424 686 342 686 q 630 653 568 686 q 672 522 692 619 q 493 371 644 394 m 139 343 l 379 379 q 554 428 504 396 q 617 525 604 461 q 590 617 631 594 q 422 639 549 639 q 310 631 350 639 q 233 594 271 624 q 175 504 196 564 q 139 343 154 444 m 378 336 l 133 300 q 126 199 129 242 q 135 126 124 156 q 159 77 146 96 q 201 48 172 58 q 263 34 231 38 q 343 31 294 31 q 526 60 471 31 q 594 176 582 90 q 559 315 608 274 q 378 336 510 356 z "},"г":{"ha":708,"x_min":47,"x_max":621,"o":"m 115 599 l 113 642 q 393 686 238 679 q 460 687 426 686 q 526 678 494 688 q 581 654 557 669 q 615 608 604 639 q 621 533 626 578 q 597 458 615 490 q 548 404 579 425 q 497 374 517 383 q 443 351 478 364 l 221 275 q 140 226 168 254 q 104 149 111 199 q 136 56 93 78 q 279 33 179 33 q 593 88 432 33 l 597 44 q 276 -17 454 -17 q 180 -10 219 -17 q 106 13 140 -4 q 56 63 71 29 q 47 149 42 97 q 94 255 56 214 q 217 326 133 296 l 436 401 q 528 454 497 424 q 565 532 558 485 q 532 621 576 600 q 383 638 488 642 q 115 599 275 633 z "},"д":{"ha":775,"x_min":88,"x_max":681,"o":"m 224 943 l 233 986 q 333 972 289 981 q 426 949 378 964 q 509 913 474 935 q 578 859 544 890 q 633 783 613 828 q 667 681 654 738 q 680 550 681 625 q 665 386 679 475 q 643 260 656 313 q 606 152 631 208 q 547 62 582 96 q 458 6 513 28 q 329 -17 403 -17 q 123 62 182 -17 q 88 310 64 140 q 400 621 131 621 q 624 518 549 621 q 608 694 629 619 q 554 813 588 769 q 462 884 521 856 q 351 924 403 913 q 224 943 300 935 m 329 32 q 526 122 468 32 q 611 401 585 211 q 621 476 615 424 q 401 572 549 572 q 222 501 282 572 q 144 301 161 431 q 169 94 124 157 q 329 32 214 32 z "},"е":{"ha":735,"x_min":81,"x_max":663,"o":"m 590 50 l 596 11 q 329 -17 501 -17 q 108 66 164 -17 q 81 343 53 149 q 123 516 96 449 q 194 621 150 583 q 294 672 239 658 q 432 686 349 686 q 630 640 571 686 q 663 478 689 593 q 594 358 644 393 q 432 313 543 324 l 129 281 q 164 84 115 136 q 344 32 213 32 q 590 50 456 32 m 135 325 l 433 358 q 556 393 519 368 q 608 482 592 418 q 616 542 614 517 q 606 584 618 567 q 580 612 593 601 q 542 628 567 622 q 492 635 517 633 q 435 638 468 638 q 315 627 360 638 q 233 585 269 617 q 174 494 196 553 q 138 339 153 436 l 135 325 z "},"ж":{"ha":1056,"x_min":1,"x_max":1018,"o":"m 721 350 l 721 347 q 799 319 767 343 q 855 251 832 294 q 894 157 878 207 q 932 36 911 107 q 942 0 938 13 l 888 0 q 874 47 883 17 q 845 142 856 111 q 816 215 835 172 q 778 277 797 258 q 728 311 758 296 q 657 326 697 326 l 542 326 q 536 247 542 282 l 501 0 l 449 0 l 485 251 q 500 326 493 297 l 382 326 q 296 310 333 326 q 217 244 258 293 q 157 163 176 194 q 86 44 138 132 q 60 0 68 15 l 1 0 q 143 233 106 185 q 324 350 226 342 l 324 351 q 258 377 288 356 q 209 424 228 399 q 171 496 190 449 q 142 576 151 543 q 115 669 132 608 l 168 669 q 244 460 215 510 q 389 371 297 371 l 507 371 q 513 453 506 400 l 544 669 l 596 669 l 565 450 q 550 371 558 404 l 656 371 q 731 389 694 371 q 794 429 768 407 q 855 499 821 451 q 908 577 889 546 q 961 669 926 608 l 1018 669 q 964 574 981 601 q 913 494 947 546 q 854 419 879 443 q 794 375 829 396 q 721 350 758 354 z "},"з":{"ha":676,"x_min":1,"x_max":578,"o":"m 115 621 l 111 663 q 311 678 190 678 q 533 640 474 678 q 578 499 592 603 q 531 390 567 426 q 415 346 494 353 l 413 343 q 533 292 500 336 q 556 161 567 249 q 478 25 542 60 q 256 -10 414 -10 q 1 7 101 -10 l 11 49 q 253 39 151 39 q 438 66 388 39 q 500 178 488 93 q 468 290 511 261 q 300 321 425 319 l 160 322 l 164 365 l 303 365 q 465 394 418 367 q 522 499 513 422 q 490 606 533 581 q 306 631 446 631 q 115 621 189 631 z "},"и":{"ha":778,"x_min":85,"x_max":692,"o":"m 692 669 l 597 0 l 554 0 l 572 168 q 243 -17 388 -17 q 113 31 153 -17 q 85 168 72 78 l 156 669 l 211 669 l 142 176 q 159 68 131 103 q 258 33 188 33 q 398 77 326 33 q 574 218 469 121 l 636 669 l 692 669 z "},"й":{"ha":778,"x_min":85,"x_max":692,"o":"m 611 964 l 658 964 q 591 840 649 886 q 446 793 533 793 q 306 840 354 793 q 269 964 258 886 l 319 964 q 344 863 310 897 q 447 829 378 829 q 558 864 514 829 q 611 964 601 899 m 692 669 l 597 0 l 554 0 l 572 168 q 243 -17 388 -17 q 113 31 153 -17 q 85 168 72 78 l 156 669 l 211 669 l 142 176 q 159 68 131 103 q 258 33 188 33 q 398 77 326 33 q 574 218 469 121 l 636 669 l 692 669 z "},"к":{"ha":719,"x_min":67,"x_max":682,"o":"m 367 350 l 364 347 q 476 294 429 343 q 542 194 522 244 q 597 29 561 144 q 607 -1 604 8 l 549 1 q 531 56 544 15 q 514 110 518 97 q 497 156 510 122 q 479 199 485 189 q 460 235 474 210 q 437 268 447 260 q 410 291 426 276 q 378 311 394 306 q 342 322 363 317 q 297 326 321 326 l 292 326 l 164 326 q 157 247 161 276 l 122 0 l 67 0 l 161 669 l 217 669 l 186 450 q 169 371 175 393 l 297 371 q 381 390 340 371 q 448 430 421 408 q 512 501 475 451 q 566 577 549 550 q 622 671 583 604 l 682 668 q 624 572 642 600 q 571 493 607 544 q 508 419 535 442 q 444 375 482 396 q 367 350 407 354 z "},"л":{"ha":754,"x_min":-21,"x_max":668,"o":"m 668 669 l 574 0 l 518 0 l 606 624 l 415 624 q 338 601 365 624 q 300 526 311 579 q 165 125 231 238 q -15 -7 103 15 l -21 40 q 118 153 74 76 q 247 539 179 251 q 301 639 264 608 q 408 669 339 669 l 668 669 z "},"м":{"ha":1004,"x_min":50,"x_max":897,"o":"m 804 669 l 872 669 q 891 662 883 669 q 897 643 899 654 l 839 0 l 786 0 l 843 624 l 817 624 l 513 82 q 486 64 503 64 l 424 64 q 401 85 408 64 l 249 624 l 222 624 l 103 0 l 50 0 l 174 646 q 201 669 176 669 l 271 669 q 293 649 289 669 l 419 199 q 446 104 432 158 l 472 106 q 496 149 478 115 q 524 201 514 183 l 778 651 q 804 669 783 669 z "},"н":{"ha":789,"x_min":67,"x_max":703,"o":"m 703 669 l 608 0 l 553 0 l 600 335 l 169 335 l 122 0 l 67 0 l 161 669 l 217 669 l 175 379 l 607 379 l 647 669 l 703 669 z "},"о":{"ha":778,"x_min":81,"x_max":676,"o":"m 424 686 q 647 606 589 686 q 676 331 704 525 q 573 61 649 139 q 333 -17 497 -17 q 112 64 169 -17 q 81 338 54 144 q 183 608 107 529 q 424 686 260 686 m 601 572 q 580 604 601 572 q 424 636 558 636 q 225 569 289 636 q 138 331 161 503 q 157 97 114 161 q 333 32 200 32 q 532 99 468 32 q 619 338 596 165 q 601 572 643 507 z "},"п":{"ha":793,"x_min":67,"x_max":688,"o":"m 204 669 l 188 511 q 529 686 394 686 q 659 639 618 686 q 688 501 700 592 l 615 0 l 561 0 l 631 493 q 613 603 640 569 q 515 636 586 636 q 373 595 449 636 q 188 465 297 554 l 122 0 l 67 0 l 161 669 l 204 669 z "},"р":{"ha":788,"x_min":25,"x_max":678,"o":"m 204 669 l 188 504 q 356 637 264 588 q 518 686 449 686 q 672 606 639 686 q 678 331 706 525 q 578 51 647 119 q 336 -17 508 -17 q 118 -1 233 -17 q 104 -131 115 -56 l 79 -300 l 25 -300 l 161 669 l 204 669 m 186 453 l 129 39 q 322 31 288 31 q 538 88 482 31 q 622 338 594 146 q 626 568 649 500 q 511 636 604 636 q 358 588 447 636 q 186 453 268 539 z "},"с":{"ha":664,"x_min":81,"x_max":628,"o":"m 550 49 l 554 10 q 344 -17 453 -17 q 113 64 174 -17 q 81 338 53 144 q 187 608 107 529 q 433 686 267 686 q 628 660 550 686 l 615 622 q 443 636 553 636 q 228 572 296 636 q 138 332 161 507 q 160 96 113 158 q 351 33 207 33 q 550 49 468 33 z "},"т":{"ha":1217,"x_min":67,"x_max":1111,"o":"m 203 669 l 186 511 q 494 686 372 686 q 654 518 667 686 q 954 686 833 686 q 1083 638 1043 686 q 1111 501 1124 590 l 1040 0 l 985 0 l 1054 493 q 1037 602 1065 568 q 938 636 1008 636 q 815 597 878 636 q 647 467 751 558 l 581 0 l 526 0 l 597 493 q 578 602 607 568 q 479 636 550 636 q 356 597 419 636 q 188 465 292 558 l 122 0 l 67 0 l 161 669 l 203 669 z "},"у":{"ha":719,"x_min":-17,"x_max":690,"o":"m 632 669 l 690 669 q 597 394 664 557 q 451 86 531 231 q 338 -101 393 -25 q 238 -216 283 -178 q 147 -275 192 -254 q 64 -294 103 -296 q -17 -290 25 -293 l -8 -243 q 62 -245 22 -251 q 141 -220 101 -239 q 233 -146 181 -201 q 342 0 286 -90 l 276 0 q 233 15 251 0 q 208 54 214 31 l 74 669 l 133 669 l 256 79 q 297 47 265 44 l 369 47 l 399 99 q 545 407 478 240 q 632 669 613 574 z "},"ф":{"ha":971,"x_min":78,"x_max":872,"o":"m 593 972 l 553 686 q 825 598 751 681 q 872 331 899 515 q 751 67 846 147 q 454 -17 656 -12 l 415 -289 l 361 -289 l 400 -17 q 126 71 200 -11 q 78 338 53 153 q 200 602 104 522 q 499 686 296 682 l 539 972 l 593 972 m 544 636 l 460 33 q 715 106 633 38 q 818 338 796 174 q 779 567 840 501 q 544 636 718 633 m 407 33 l 492 636 q 237 564 318 632 q 132 331 156 496 q 171 101 110 167 q 407 33 232 36 z "},"х":{"ha":704,"x_min":-14,"x_max":682,"o":"m 408 347 l 606 0 l 546 0 l 363 326 l 326 326 l 53 0 l -14 0 l 282 349 l 100 669 l 158 669 l 325 372 l 365 372 l 618 669 l 682 669 l 408 347 z "},"ц":{"ha":801,"x_min":85,"x_max":703,"o":"m 696 0 l 665 -207 l 615 -207 l 656 0 l 646 0 q 563 101 551 0 l 568 149 q 243 -17 383 -17 q 113 31 153 -17 q 85 168 72 78 l 156 669 l 211 669 l 142 176 q 159 68 131 103 q 258 33 188 33 q 397 74 326 33 q 572 203 468 114 l 636 669 l 692 669 l 611 100 q 657 44 603 44 l 703 44 l 696 0 z "},"ч":{"ha":724,"x_min":82,"x_max":638,"o":"m 638 669 l 543 0 l 488 0 l 536 343 q 232 249 367 249 q 110 284 149 247 q 82 393 72 321 l 122 669 l 176 669 l 140 404 q 156 322 132 346 q 247 297 181 297 q 386 319 321 297 q 543 394 451 342 l 582 669 l 638 669 z "},"ш":{"ha":1193,"x_min":85,"x_max":1107,"o":"m 1107 669 l 1013 0 l 971 0 l 988 153 q 679 -17 811 -17 q 564 26 603 -17 q 532 146 525 68 q 231 -17 361 -17 q 110 31 149 -17 q 85 168 72 79 l 156 669 l 211 669 l 142 176 q 249 35 119 35 q 376 73 313 35 q 539 203 439 111 l 604 669 l 658 669 l 589 176 q 696 35 568 35 q 823 73 760 35 q 988 203 886 111 l 1053 669 l 1107 669 z "},"щ":{"ha":1217,"x_min":85,"x_max":1118,"o":"m 1111 0 l 1079 -207 l 1029 -207 l 1071 0 l 1061 0 q 978 101 967 0 l 982 149 q 679 -17 810 -17 q 564 26 603 -17 q 532 146 525 68 q 231 -17 361 -17 q 110 31 149 -17 q 85 168 72 79 l 156 669 l 211 669 l 142 176 q 249 35 119 35 q 376 73 313 35 q 539 203 439 111 l 604 669 l 658 669 l 589 176 q 696 35 568 35 q 823 73 760 35 q 988 203 886 111 l 1053 669 l 1107 669 l 1026 100 q 1034 56 1022 67 q 1072 44 1046 44 l 1118 44 l 1111 0 z "},"ъ":{"ha":863,"x_min":64,"x_max":760,"o":"m 444 669 l 353 344 q 533 389 428 389 q 727 343 679 389 q 760 183 775 297 q 684 27 744 69 q 496 -15 624 -15 q 400 -7 443 -15 q 315 22 357 1 q 256 88 272 43 q 257 197 240 132 l 378 622 l 64 622 l 71 669 l 444 669 m 339 297 l 310 190 q 309 108 297 142 q 353 58 321 74 q 416 38 385 43 q 485 32 447 32 q 644 65 597 32 q 704 193 690 97 q 681 312 717 279 q 532 344 646 344 q 339 297 417 344 z "},"ы":{"ha":942,"x_min":83,"x_max":856,"o":"m 213 669 l 163 335 q 368 389 249 389 q 563 343 514 389 q 596 183 613 297 q 522 26 579 68 q 332 -15 464 -15 q 258 -12 290 -15 q 188 1 225 -10 q 126 29 150 11 q 90 81 103 47 q 83 158 76 114 l 158 669 l 213 669 m 856 669 l 761 0 l 704 0 l 799 669 l 856 669 m 157 292 l 136 156 q 144 89 131 115 q 190 51 158 63 q 251 36 221 40 q 321 32 281 32 q 481 65 435 32 q 540 193 526 97 q 516 313 551 281 q 365 344 481 344 q 157 292 243 344 z "},"ь":{"ha":697,"x_min":83,"x_max":596,"o":"m 213 669 l 163 335 q 368 389 249 389 q 563 343 514 389 q 596 183 613 297 q 522 26 579 68 q 332 -15 464 -15 q 258 -12 290 -15 q 188 1 225 -10 q 126 29 150 11 q 90 81 103 47 q 83 158 76 114 l 158 669 l 213 669 m 157 292 l 136 156 q 144 89 131 115 q 190 51 158 63 q 251 36 221 40 q 321 32 281 32 q 481 65 435 32 q 540 193 526 97 q 516 313 551 281 q 365 344 481 344 q 157 292 243 344 z "},"э":{"ha":675,"x_min":7,"x_max":574,"o":"m 108 617 l 103 657 q 306 675 182 675 q 539 599 479 675 q 574 328 599 522 q 469 61 547 135 q 218 -12 392 -12 q 7 8 86 -11 l 18 50 q 214 38 107 38 q 427 97 361 36 q 517 321 493 157 l 165 321 l 171 364 l 521 364 q 490 571 538 515 q 306 626 443 626 q 108 617 204 626 z "},"ю":{"ha":1072,"x_min":67,"x_max":971,"o":"m 174 368 l 381 368 q 484 617 410 547 q 715 686 558 686 q 940 608 882 686 q 971 333 997 531 q 867 65 944 140 q 624 -11 789 -11 q 406 63 463 -11 q 374 324 350 136 l 168 324 l 122 0 l 67 0 l 161 669 l 217 669 l 174 368 m 914 340 q 892 574 938 510 q 714 638 846 638 q 518 572 581 638 q 431 333 456 507 q 448 101 407 165 q 621 38 489 38 q 826 105 761 38 q 914 340 890 172 z "},"я":{"ha":732,"x_min":19,"x_max":644,"o":"m 644 664 l 551 0 l 496 0 l 533 265 l 314 265 q 144 181 175 265 l 79 0 l 19 0 l 92 196 q 231 288 122 278 l 232 292 q 134 357 164 300 q 114 485 104 414 q 194 637 131 600 q 415 674 258 674 q 644 664 526 674 m 540 310 l 585 624 q 400 626 485 626 q 230 599 278 626 q 169 476 182 571 q 314 310 149 310 l 540 310 z "},"ё":{"ha":735,"x_min":81,"x_max":663,"o":"m 333 825 l 315 825 q 297 846 296 825 l 310 921 q 332 942 311 942 l 350 942 q 368 921 369 942 l 356 847 q 333 825 354 825 m 576 825 l 558 825 q 540 846 539 825 l 553 921 q 575 942 556 942 l 593 942 q 610 921 614 942 l 599 847 q 576 825 597 825 m 590 50 l 596 11 q 329 -17 501 -17 q 108 66 164 -17 q 81 343 53 149 q 123 516 96 449 q 194 621 150 583 q 294 672 239 658 q 432 686 349 686 q 630 640 571 686 q 663 478 689 593 q 594 358 644 393 q 432 313 543 324 l 129 281 q 164 84 115 136 q 344 32 213 32 q 590 50 456 32 m 135 325 l 433 358 q 556 393 519 368 q 608 482 592 418 q 616 542 614 517 q 606 584 618 567 q 580 612 593 601 q 542 628 567 622 q 492 635 517 633 q 435 638 468 638 q 315 627 360 638 q 233 585 269 617 q 174 494 196 553 q 138 339 153 436 l 135 325 z "},"ђ":{"ha":783,"x_min":81,"x_max":692,"o":"m 246 704 l 218 507 q 196 385 208 439 q 532 549 393 549 q 664 501 624 549 q 692 364 704 454 l 640 0 l 585 0 l 636 356 q 617 463 646 429 q 515 497 588 497 q 374 460 446 497 q 194 338 303 422 l 146 0 l 90 0 l 190 704 l 81 704 l 86 743 l 196 743 l 228 972 l 283 972 l 251 743 l 546 743 l 540 704 l 246 704 z "},"ѓ":{"ha":708,"x_min":47,"x_max":621,"o":"m 590 956 l 339 767 l 315 796 l 558 999 l 590 956 m 115 599 l 113 642 q 393 686 238 679 q 460 687 426 686 q 526 678 494 688 q 581 654 557 669 q 615 608 604 639 q 621 533 626 578 q 597 458 615 490 q 548 404 579 425 q 497 374 517 383 q 443 351 478 364 l 221 275 q 140 226 168 254 q 104 149 111 199 q 136 56 93 78 q 279 33 179 33 q 593 88 432 33 l 597 44 q 276 -17 454 -17 q 180 -10 219 -17 q 106 13 140 -4 q 56 63 71 29 q 47 149 42 97 q 94 255 56 214 q 217 326 133 296 l 436 401 q 528 454 497 424 q 565 532 558 485 q 532 621 576 600 q 383 638 488 642 q 115 599 275 633 z "},"є":{"ha":675,"x_min":81,"x_max":640,"o":"m 640 657 l 629 617 q 438 626 540 626 q 233 570 297 626 q 142 363 168 514 l 493 363 l 486 321 l 135 321 q 160 99 114 160 q 350 38 207 39 q 556 50 460 38 l 561 8 q 344 -12 469 -12 q 115 65 176 -12 q 81 335 54 143 q 186 601 107 526 q 436 675 265 675 q 640 657 563 675 z "},"ѕ":{"ha":696,"x_min":42,"x_max":632,"o":"m 432 274 l 219 357 q 115 422 146 386 q 96 536 85 458 q 172 660 111 632 q 367 686 232 689 q 632 668 503 683 l 625 628 q 369 638 464 636 q 206 622 250 640 q 150 531 163 604 q 162 451 142 476 q 238 403 182 425 l 451 319 q 561 253 531 289 q 581 142 592 217 q 551 56 574 89 q 488 8 529 24 q 402 -12 446 -8 q 285 -17 358 -17 q 42 1 172 -17 l 50 42 q 281 32 164 31 q 466 56 415 35 q 526 149 517 78 q 512 227 533 204 q 432 274 490 250 z "},"і":{"ha":314,"x_min":72,"x_max":264,"o":"m 219 949 l 244 949 q 264 925 268 949 l 253 840 q 231 821 249 821 l 206 821 q 185 844 181 821 l 197 928 q 219 949 200 949 m 128 0 l 72 0 l 167 669 l 222 669 l 128 0 z "},"ї":{"ha":313,"x_min":67,"x_max":379,"o":"m 100 942 l 119 942 q 136 921 139 942 l 125 847 q 103 825 124 825 l 85 825 q 67 846 65 825 l 78 921 q 100 942 82 942 m 343 942 l 363 942 q 379 921 381 942 l 368 847 q 344 825 367 825 l 328 825 q 310 846 308 825 l 321 921 q 343 942 325 942 m 126 0 l 72 0 l 167 669 l 222 669 l 126 0 z "},"ј":{"ha":315,"x_min":-42,"x_max":264,"o":"m 219 949 l 244 949 q 264 925 268 949 l 253 840 q 231 821 249 821 l 206 821 q 185 844 181 821 l 197 928 q 219 949 200 949 m 222 669 l 121 -54 q -14 -289 101 -190 l -42 -265 q 65 -50 50 -162 l 167 669 l 222 669 z "},"љ":{"ha":1076,"x_min":-19,"x_max":975,"o":"m 624 669 l 574 333 q 768 389 656 389 q 944 343 900 389 q 975 183 989 297 q 906 27 960 68 q 728 -15 853 -14 q 637 -9 676 -15 q 560 15 597 -3 q 506 68 522 32 q 496 158 489 104 l 565 625 l 401 625 q 301 533 321 625 q 229 257 254 332 q 156 117 204 182 q -12 -1 88 22 l -19 47 q 106 140 54 74 q 176 269 153 200 q 251 547 200 339 q 389 669 279 669 l 624 669 m 568 292 l 547 156 q 554 89 542 115 q 595 51 567 63 q 651 36 624 40 q 715 32 678 32 q 865 65 822 32 q 919 193 907 97 q 898 313 929 281 q 763 344 867 344 q 568 292 650 344 z "},"њ":{"ha":1099,"x_min":67,"x_max":999,"o":"m 647 669 l 599 335 q 786 389 678 389 q 967 343 921 389 q 999 183 1014 297 q 929 26 983 68 q 750 -15 875 -15 q 682 -12 713 -15 q 617 1 651 -10 q 560 29 582 11 q 526 81 538 47 q 519 158 514 114 l 547 349 l 169 349 l 119 0 l 67 0 l 161 669 l 214 669 l 175 392 l 554 392 l 594 669 l 647 669 m 592 293 l 572 156 q 579 89 567 115 q 619 51 592 63 q 674 36 647 40 q 739 32 701 32 q 888 65 844 32 q 942 193 931 97 q 921 313 953 281 q 785 344 889 344 q 592 293 672 344 z "},"ћ":{"ha":785,"x_min":81,"x_max":692,"o":"m 246 704 l 219 513 q 196 385 208 435 q 532 549 396 549 q 664 501 624 549 q 692 364 704 454 l 635 -54 q 500 -289 615 -190 l 472 -265 q 579 -49 564 -162 l 636 356 q 617 463 646 429 q 515 497 588 497 q 374 460 446 497 q 193 336 303 422 l 146 0 l 90 0 l 190 704 l 81 704 l 86 743 l 196 743 l 228 972 l 283 972 l 251 743 l 546 743 l 540 704 l 246 704 z "},"ќ":{"ha":719,"x_min":67,"x_max":682,"o":"m 378 767 l 354 796 l 597 999 l 629 956 l 378 767 m 367 350 l 364 347 q 476 294 429 343 q 542 194 522 244 q 597 29 561 144 q 607 -1 604 8 l 549 1 q 531 56 544 15 q 514 110 518 97 q 497 156 510 122 q 479 199 485 189 q 460 235 474 210 q 437 268 447 260 q 410 291 426 276 q 378 311 394 306 q 342 322 363 317 q 297 326 321 326 l 292 326 l 164 326 q 157 247 161 276 l 122 0 l 67 0 l 161 669 l 217 669 l 186 450 q 169 371 175 393 l 297 371 q 381 390 340 371 q 448 430 421 408 q 512 501 475 451 q 566 577 549 550 q 622 671 583 604 l 682 668 q 624 572 642 600 q 571 493 607 544 q 508 419 535 442 q 444 375 482 396 q 367 350 407 354 z "},"ѝ":{"ha":778,"x_min":85,"x_max":692,"o":"m 474 767 l 269 957 l 306 997 l 500 793 l 474 767 m 692 669 l 597 0 l 554 0 l 572 168 q 243 -17 388 -17 q 113 31 153 -17 q 85 168 72 78 l 156 669 l 211 669 l 142 176 q 159 68 131 103 q 258 33 188 33 q 398 77 326 33 q 574 218 469 121 l 636 669 l 692 669 z "},"ў":{"ha":719,"x_min":-17,"x_max":690,"o":"m 563 964 l 610 964 q 543 840 600 886 q 399 793 486 793 q 259 840 307 793 q 222 964 211 886 l 271 964 q 296 863 261 897 q 399 829 331 829 q 510 864 467 829 q 563 964 554 899 m 632 669 l 690 669 q 597 394 664 557 q 451 86 531 231 q 338 -101 393 -25 q 238 -216 283 -178 q 147 -275 192 -254 q 64 -294 103 -296 q -17 -290 25 -293 l -8 -243 q 62 -245 22 -251 q 141 -220 101 -239 q 233 -146 181 -201 q 342 0 286 -90 l 276 0 q 233 15 251 0 q 208 54 214 31 l 74 669 l 133 669 l 256 79 q 297 47 265 44 l 369 47 l 399 99 q 545 407 478 240 q 632 669 613 574 z "},"џ":{"ha":778,"x_min":85,"x_max":692,"o":"m 692 669 l 597 0 l 554 0 l 572 168 q 243 -17 388 -17 q 113 31 153 -17 q 85 168 72 78 l 156 669 l 211 669 l 142 176 q 159 68 131 103 q 258 33 188 33 q 398 77 326 33 q 574 218 469 121 l 636 669 l 692 669 m 339 -54 l 378 -54 l 353 -290 l 301 -290 l 339 -54 z "},"Ґ":{"ha":715,"x_min":78,"x_max":793,"o":"m 757 950 l 750 910 l 372 910 q 246 797 261 910 l 135 0 l 78 0 l 192 808 q 246 921 201 883 q 358 958 290 958 q 711 953 594 958 l 753 1168 l 793 1168 l 757 950 z "},"ґ":{"ha":608,"x_min":63,"x_max":640,"o":"m 640 872 l 608 664 l 601 622 l 304 622 q 226 601 251 622 q 192 522 200 579 l 118 0 l 63 0 l 139 536 q 185 638 149 607 q 288 669 222 669 q 561 667 471 669 l 600 872 l 640 872 z "},"Ұ":{"ha":776,"x_min":114,"x_max":821,"o":"m 424 369 l 633 369 l 628 331 l 408 331 l 361 0 l 304 0 l 351 331 l 128 331 l 133 369 l 347 369 l 114 958 l 174 958 l 349 510 q 385 410 361 479 l 393 411 l 457 511 l 757 958 l 821 958 l 424 369 z "},"ұ":{"ha":785,"x_min":74,"x_max":781,"o":"m 385 81 l 594 81 l 589 42 l 368 42 l 322 -289 l 264 -289 l 311 42 l 89 42 l 94 81 l 307 81 l 74 669 l 133 669 l 308 219 q 344 121 321 190 l 354 121 q 417 222 371 149 l 718 669 l 781 669 l 385 81 z "},"Ҷ":{"ha":871,"x_min":115,"x_max":788,"o":"m 660 44 l 775 44 l 769 0 l 739 -210 l 697 -210 l 717 0 l 596 0 l 667 497 q 294 367 474 367 q 115 574 86 367 l 169 958 l 226 958 l 175 579 q 195 456 163 494 q 313 418 228 418 q 483 450 401 418 q 674 551 564 482 l 731 958 l 788 958 l 660 44 z "},"ҷ":{"ha":744,"x_min":82,"x_max":638,"o":"m 628 46 l 622 7 l 593 -199 l 549 -199 l 574 0 l 488 0 l 536 343 q 232 249 367 249 q 110 284 149 247 q 82 393 72 321 l 122 669 l 176 669 l 140 404 q 156 322 132 346 q 247 297 181 297 q 386 319 321 297 q 543 394 451 342 l 582 669 l 638 669 l 549 46 l 628 46 z "},"Һ":{"ha":847,"x_min":81,"x_max":753,"o":"m 272 958 l 203 460 q 575 592 401 592 q 753 385 783 592 l 699 0 l 642 0 l 696 379 q 675 503 708 465 q 557 540 642 540 q 390 509 471 540 q 194 406 308 478 l 138 0 l 81 0 l 215 958 l 272 958 z "},"Ӏ":{"ha":332,"x_min":81,"x_max":272,"o":"m 138 0 l 81 0 l 215 958 l 272 958 l 138 0 z "},"Ẁ":{"ha":1292,"x_min":118,"x_max":1325,"o":"m 790 1046 l 765 1019 l 561 1210 l 597 1250 l 790 1046 m 1325 958 l 954 18 q 926 0 949 0 l 847 0 q 824 22 826 0 l 743 807 q 738 859 742 825 q 732 911 735 893 l 699 911 l 657 803 l 358 19 q 331 0 351 0 l 251 0 q 226 21 229 0 l 118 958 l 176 958 l 267 147 q 275 44 269 114 l 314 44 q 326 77 318 56 q 340 116 333 99 q 351 149 346 133 l 654 938 q 681 958 661 958 l 756 958 q 781 935 778 958 l 864 146 q 872 44 864 140 l 911 44 l 949 149 l 1265 958 l 1325 958 z "},"ẁ":{"ha":1143,"x_min":76,"x_max":1108,"o":"m 690 793 l 665 767 l 460 957 l 497 997 l 690 793 m 246 46 l 264 46 q 318 81 293 46 q 428 289 375 161 q 543 654 492 438 q 564 669 546 672 l 622 669 q 643 653 640 669 l 732 46 l 749 46 q 801 82 776 46 q 924 288 881 199 q 1050 669 1007 457 l 1108 669 q 967 263 1053 432 q 831 40 886 110 q 749 0 794 0 l 710 0 q 688 18 690 0 l 600 628 l 585 628 q 475 275 544 436 q 413 144 450 213 q 349 43 375 75 q 263 0 317 0 l 224 0 q 201 18 207 0 l 76 669 l 133 669 l 246 46 z "},"Ẃ":{"ha":1292,"x_min":118,"x_max":1325,"o":"m 935 1207 l 685 1019 l 660 1047 l 903 1251 l 935 1207 m 1325 958 l 954 18 q 926 0 949 0 l 847 0 q 824 22 826 0 l 743 807 q 738 859 742 825 q 732 911 735 893 l 699 911 l 657 803 l 358 19 q 331 0 351 0 l 251 0 q 226 21 229 0 l 118 958 l 176 958 l 267 147 q 275 44 269 114 l 314 44 q 326 77 318 56 q 340 116 333 99 q 351 149 346 133 l 654 938 q 681 958 661 958 l 756 958 q 781 935 778 958 l 864 146 q 872 44 864 140 l 911 44 l 949 149 l 1265 958 l 1325 958 z "},"ẃ":{"ha":1143,"x_min":76,"x_max":1108,"o":"m 835 956 l 583 767 l 560 796 l 803 999 l 835 956 m 246 46 l 264 46 q 318 81 293 46 q 428 289 375 161 q 543 654 492 438 q 564 669 546 672 l 622 669 q 643 653 640 669 l 732 46 l 749 46 q 801 82 776 46 q 924 288 881 199 q 1050 669 1007 457 l 1108 669 q 967 263 1053 432 q 831 40 886 110 q 749 0 794 0 l 710 0 q 688 18 690 0 l 600 628 l 585 628 q 475 275 544 436 q 413 144 450 213 q 349 43 375 75 q 263 0 317 0 l 224 0 q 201 18 207 0 l 76 669 l 133 669 l 246 46 z "},"Ẅ":{"ha":1292,"x_min":118,"x_max":1325,"o":"m 625 1193 l 643 1193 q 660 1172 664 1193 l 649 1099 q 626 1076 647 1076 l 608 1076 q 590 1097 589 1076 l 601 1172 q 625 1193 606 1193 m 867 1193 l 886 1193 q 903 1172 907 1193 l 892 1099 q 869 1076 890 1076 l 851 1076 q 833 1097 832 1076 l 844 1172 q 867 1193 849 1193 m 1325 958 l 954 18 q 926 0 949 0 l 847 0 q 824 22 826 0 l 743 807 q 738 859 742 825 q 732 911 735 893 l 699 911 l 657 803 l 358 19 q 331 0 351 0 l 251 0 q 226 21 229 0 l 118 958 l 176 958 l 267 147 q 275 44 269 114 l 314 44 q 326 77 318 56 q 340 116 333 99 q 351 149 346 133 l 654 938 q 681 958 661 958 l 756 958 q 781 935 778 958 l 864 146 q 872 44 864 140 l 911 44 l 949 149 l 1265 958 l 1325 958 z "},"ẅ":{"ha":1143,"x_min":76,"x_max":1108,"o":"m 524 942 l 542 942 q 560 921 561 942 l 549 847 q 525 825 544 825 l 508 825 q 490 846 489 825 l 501 921 q 524 942 503 942 m 767 942 l 785 942 q 803 921 806 942 l 792 847 q 768 825 788 825 l 751 825 q 733 846 732 825 l 744 921 q 767 942 747 942 m 246 46 l 264 46 q 318 81 293 46 q 428 289 375 161 q 543 654 492 438 q 564 669 546 672 l 622 669 q 643 653 640 669 l 732 46 l 749 46 q 801 82 776 46 q 924 288 881 199 q 1050 669 1007 457 l 1108 669 q 967 263 1053 432 q 831 40 886 110 q 749 0 794 0 l 710 0 q 688 18 690 0 l 600 628 l 585 628 q 475 275 544 436 q 413 144 450 213 q 349 43 375 75 q 263 0 317 0 l 224 0 q 201 18 207 0 l 76 669 l 133 669 l 246 46 z "},"Ỳ":{"ha":754,"x_min":99,"x_max":804,"o":"m 494 1019 l 290 1210 l 326 1250 l 521 1046 l 494 1019 m 396 351 l 346 0 l 288 0 l 339 353 l 99 958 l 157 958 l 332 510 q 368 410 357 444 l 378 410 q 440 511 406 460 l 742 958 l 804 958 l 396 351 z "},"ỳ":{"ha":719,"x_min":53,"x_max":689,"o":"m 426 767 l 222 957 l 258 997 l 451 793 l 426 767 m 632 669 l 689 669 q 444 89 608 353 q 250 -180 335 -92 q 63 -290 165 -268 l 53 -253 q 193 -169 128 -229 q 329 0 258 -108 l 276 0 q 232 15 250 0 q 208 54 214 31 l 74 669 l 132 669 l 256 79 q 297 47 265 44 l 358 47 l 393 103 q 632 669 547 357 z "},"–":{"ha":851,"x_min":103,"x_max":733,"o":"m 728 326 l 103 326 l 108 372 l 733 372 l 728 326 z "},"—":{"ha":1281,"x_min":103,"x_max":1163,"o":"m 1156 326 l 103 326 l 108 372 l 1163 372 l 1156 326 z "},"‘":{"ha":278,"x_min":153,"x_max":251,"o":"m 190 719 l 169 719 q 153 742 149 719 l 165 832 q 221 1013 175 911 l 251 1003 q 215 846 229 928 q 226 842 222 847 q 229 826 231 836 l 217 742 q 209 724 214 729 q 190 719 204 719 z "},"’":{"ha":276,"x_min":154,"x_max":251,"o":"m 214 1000 l 235 1000 q 251 978 256 1000 l 239 888 q 183 707 229 811 l 154 718 q 189 874 179 807 q 178 878 182 872 q 175 893 174 883 l 188 979 q 195 996 190 992 q 214 1000 200 1000 z "},"‚":{"ha":293,"x_min":38,"x_max":139,"o":"m 100 128 l 122 128 q 139 106 143 128 l 126 17 q 68 -164 114 -68 l 38 -154 q 75 1 63 -74 q 60 21 57 1 l 72 107 q 100 128 75 128 z "},"“":{"ha":450,"x_min":153,"x_max":424,"o":"m 363 719 l 342 719 q 325 742 321 719 l 338 832 q 393 1013 347 911 l 424 1003 q 388 846 401 928 q 399 842 394 847 q 401 826 403 836 l 389 742 q 381 724 386 729 q 363 719 376 719 m 190 719 l 169 719 q 153 742 149 719 l 165 832 q 221 1013 175 911 l 251 1003 q 215 846 229 928 q 226 842 222 847 q 229 826 231 836 l 217 742 q 209 724 214 729 q 190 719 204 719 z "},"”":{"ha":449,"x_min":154,"x_max":424,"o":"m 214 1000 l 235 1000 q 251 978 256 1000 l 239 888 q 183 707 229 811 l 154 718 q 189 874 179 807 q 178 878 182 872 q 175 893 174 883 l 188 979 q 195 996 190 992 q 214 1000 200 1000 m 386 1000 l 407 1000 q 424 978 428 1000 l 411 888 q 356 707 401 811 l 326 718 q 361 874 351 807 q 350 878 354 872 q 347 893 346 883 l 360 979 q 367 996 363 992 q 386 1000 372 1000 z "},"„":{"ha":463,"x_min":38,"x_max":307,"o":"m 97 128 l 118 128 q 135 106 139 128 l 122 15 q 67 -165 113 -62 l 38 -154 q 74 1 61 -68 q 61 6 65 0 q 58 21 57 11 l 71 107 q 78 124 74 119 q 97 128 83 128 m 269 128 l 290 128 q 307 106 311 128 l 294 15 q 239 -165 285 -62 l 210 -154 q 246 1 233 -68 q 233 6 238 0 q 231 21 229 11 l 243 107 q 251 124 246 119 q 269 128 256 128 z "},"†":{"ha":597,"x_min":97,"x_max":568,"o":"m 247 -153 l 194 -153 l 306 633 l 310 663 l 349 960 l 404 960 l 360 663 l 356 633 l 247 -153 m 568 669 l 561 615 l 376 624 l 383 669 l 568 669 m 97 615 l 104 669 l 289 669 l 283 624 l 97 615 z "},"‡":{"ha":654,"x_min":57,"x_max":596,"o":"m 389 668 l 314 142 l 276 -153 l 221 -153 l 265 142 l 339 668 l 376 960 l 432 960 l 389 668 m 311 624 l 124 615 l 132 669 l 317 669 l 311 624 m 588 615 l 404 624 l 411 669 l 596 669 l 588 615 m 249 183 l 242 138 l 57 138 l 64 192 l 249 183 m 521 138 l 336 138 l 342 183 l 528 192 l 521 138 z "},"•":{"ha":492,"x_min":136,"x_max":347,"o":"m 249 475 l 263 475 q 334 453 315 475 q 347 378 353 431 l 344 358 q 315 286 338 304 q 236 268 292 268 l 222 268 q 147 290 167 268 q 136 367 128 311 l 139 386 q 169 458 146 440 q 249 475 192 475 z "},"…":{"ha":1094,"x_min":93,"x_max":975,"o":"m 131 131 l 151 131 q 172 106 176 131 l 160 22 q 135 0 158 0 l 114 0 q 93 25 89 0 l 104 108 q 131 131 108 131 m 531 131 l 553 131 q 571 125 567 131 q 574 106 575 119 l 561 22 q 536 0 560 0 l 515 0 q 493 25 490 0 l 506 108 q 531 131 510 131 m 932 131 l 954 131 q 975 106 978 131 l 963 22 q 938 0 961 0 l 917 0 q 894 25 892 0 l 907 108 q 932 131 908 131 z "},"‰":{"ha":1729,"x_min":117,"x_max":1631,"o":"m 364 975 q 522 908 482 975 q 540 689 561 840 q 463 474 519 539 q 293 408 407 408 q 135 476 175 408 q 117 694 96 544 q 192 910 138 844 q 364 975 247 975 m 250 0 l 201 0 l 990 958 l 1039 958 l 250 0 m 367 936 q 225 880 268 936 q 163 689 182 824 q 172 503 144 558 q 289 447 200 447 q 431 504 386 447 q 494 694 476 561 q 485 882 511 828 q 367 936 458 936 m 954 557 q 1112 489 1072 557 q 1129 269 1151 421 q 1052 55 1108 121 q 882 -11 996 -11 q 725 57 764 -11 q 707 276 686 125 q 783 492 728 426 q 954 557 838 557 m 1454 557 q 1612 489 1572 557 q 1631 269 1651 421 q 1553 55 1610 121 q 1383 -11 1497 -11 q 1226 57 1265 -11 q 1208 276 1186 125 q 1283 492 1229 426 q 1454 557 1338 557 m 957 518 q 814 462 857 518 q 753 269 771 406 q 762 83 735 139 q 879 28 789 28 q 1022 85 976 28 q 1083 276 1067 143 q 1075 464 1101 410 q 957 518 1049 518 m 1458 518 q 1315 462 1358 518 q 1254 269 1272 406 q 1263 83 1235 139 q 1381 28 1290 28 q 1522 85 1476 28 q 1585 276 1567 142 q 1576 463 1603 408 q 1458 518 1549 518 z "},"‹":{"ha":408,"x_min":58,"x_max":349,"o":"m 349 608 l 113 346 l 276 82 l 247 61 l 58 343 l 60 358 l 324 632 l 349 608 z "},"›":{"ha":408,"x_min":42,"x_max":333,"o":"m 333 353 l 332 338 l 67 61 l 42 85 l 281 350 l 117 613 l 144 632 l 333 353 z "},"⁄":{"ha":222,"x_min":-297,"x_max":540,"o":"m -249 0 l -297 0 l 490 958 l 540 958 l -249 0 z "},"€":{"ha":890,"x_min":82,"x_max":874,"o":"m 874 950 l 861 907 q 674 924 774 924 q 437 853 524 922 q 307 608 350 783 l 697 608 l 681 568 l 297 568 q 282 475 286 513 l 275 418 l 624 418 l 607 378 l 271 378 q 322 113 258 190 q 538 35 385 36 q 750 53 660 35 l 757 10 q 538 -17 656 -17 q 274 79 349 -17 q 213 378 199 175 l 82 378 l 88 418 l 215 418 q 224 482 221 460 q 231 531 226 500 q 238 568 236 563 l 108 568 l 115 608 l 247 608 q 390 888 292 801 q 672 975 489 975 q 874 950 783 975 z "},"™":{"ha":1311,"x_min":169,"x_max":1249,"o":"m 1175 967 l 1229 967 q 1249 944 1251 967 l 1201 439 l 1158 439 l 1203 931 l 1186 931 l 961 504 q 940 492 956 492 l 896 492 q 875 508 878 492 l 767 931 l 749 931 l 658 439 l 615 439 l 710 947 q 731 967 714 967 l 783 967 q 801 950 801 967 l 892 596 q 901 555 896 582 q 908 522 907 528 l 931 522 q 947 557 935 531 q 968 599 960 583 l 1154 953 q 1175 967 1163 967 m 610 967 l 604 929 l 408 929 l 340 439 l 296 439 l 364 929 l 169 929 l 175 967 l 610 967 z "},"∂":{"ha":789,"x_min":75,"x_max":713,"o":"m 274 932 l 276 975 q 436 968 371 975 q 558 941 501 961 q 645 885 614 921 q 695 792 676 849 q 712 654 714 735 q 692 464 710 574 q 560 102 653 221 q 308 -17 467 -17 q 100 71 160 -17 q 75 307 40 158 q 189 535 107 456 q 399 615 271 615 q 636 474 567 615 q 655 701 656 611 q 610 842 654 790 q 488 914 565 894 q 274 932 410 933 m 308 35 q 629 433 556 35 q 404 567 553 567 q 131 303 190 567 q 147 103 100 172 q 308 35 193 35 z "},"∅":{"ha":951,"x_min":79,"x_max":892,"o":"m 199 760 q 258 820 199 760 q 486 879 318 879 q 773 760 654 879 q 892 474 892 642 q 773 186 892 306 q 486 67 654 67 q 198 186 317 67 q 79 474 79 306 q 199 760 79 642 m 443 335 l 518 335 q 538 424 518 383 q 583 489 558 465 q 628 549 608 513 q 649 628 649 586 q 486 757 649 757 q 317 742 417 757 l 321 679 q 486 692 404 692 q 578 628 578 692 q 557 566 578 599 q 510 507 536 533 q 464 435 485 481 q 443 335 443 389 m 508 238 l 454 238 q 444 226 444 238 l 444 175 q 454 165 444 165 l 508 165 q 519 175 519 165 l 519 226 q 508 238 519 238 z "},"∏":{"ha":1007,"x_min":126,"x_max":1021,"o":"m 1014 911 l 853 911 l 704 -150 l 649 -150 l 797 911 l 343 911 l 194 -150 l 139 -150 l 289 911 l 126 911 l 132 958 l 1021 958 l 1014 911 z "},"∑":{"ha":804,"x_min":-1,"x_max":790,"o":"m 783 910 l 221 910 l 421 494 l 69 -76 l 660 -76 l 653 -125 l -1 -125 l 6 -76 l 358 497 l 161 910 l 167 958 l 790 958 l 783 910 z "},"−":{"ha":818,"x_min":113,"x_max":706,"o":"m 699 388 l 113 388 l 119 433 l 706 433 l 699 388 z "},"√":{"ha":767,"x_min":96,"x_max":838,"o":"m 838 1217 l 278 10 q 261 0 274 0 l 197 0 q 181 13 181 0 l 96 669 l 146 669 l 224 43 l 243 43 l 783 1217 l 838 1217 z "},"∞":{"ha":1090,"x_min":101,"x_max":996,"o":"m 840 611 q 965 565 921 611 q 996 431 1008 518 q 922 292 983 340 q 776 243 861 243 q 737 245 756 243 q 701 254 718 247 q 672 266 685 261 q 645 283 660 271 q 623 301 631 296 q 601 324 615 307 q 583 347 588 342 q 565 371 579 351 q 547 394 550 390 q 465 320 499 347 q 377 268 431 293 q 269 243 324 243 q 137 294 185 243 q 101 438 89 346 q 170 567 114 524 q 307 611 226 611 q 383 600 349 611 q 447 564 417 589 q 498 517 478 539 q 550 454 518 494 q 634 529 600 501 q 726 584 668 557 q 840 611 785 611 m 150 431 q 174 324 140 361 q 275 288 207 288 q 367 308 322 288 q 440 353 411 329 q 522 428 468 376 q 460 503 481 481 q 399 546 439 525 q 313 567 360 567 q 150 431 169 567 m 947 438 q 833 567 964 567 q 760 556 794 567 q 685 516 725 546 q 633 474 646 486 q 575 421 619 463 q 594 394 581 414 q 613 369 608 375 q 631 347 618 363 q 652 326 644 332 q 674 311 660 321 q 702 298 689 301 q 733 291 715 294 q 771 288 750 288 q 890 326 842 288 q 947 438 938 365 z "},"∫":{"ha":532,"x_min":-40,"x_max":556,"o":"m 196 -117 l 268 808 q 440 992 283 992 q 556 986 510 992 l 547 946 l 457 946 q 358 913 392 946 q 319 800 325 879 l 247 -125 q 197 -263 239 -218 q 74 -308 156 -308 q -40 -303 -1 -308 l -32 -262 l 57 -262 q 156 -229 122 -262 q 196 -117 189 -196 z "},"≈":{"ha":821,"x_min":89,"x_max":732,"o":"m 165 469 l 126 474 q 166 577 133 547 q 254 607 199 607 q 428 563 313 607 q 603 517 543 518 q 663 534 642 517 q 692 601 683 551 l 732 597 q 694 499 725 529 q 599 469 664 469 q 419 515 533 469 q 256 560 306 560 q 195 541 217 560 q 165 469 174 522 m 129 206 l 89 208 q 217 342 101 344 q 390 297 275 342 q 565 251 506 253 q 625 269 604 251 q 654 336 646 286 l 694 333 q 657 235 688 265 q 563 206 626 206 q 383 250 497 206 q 218 296 268 294 q 158 277 179 296 q 129 206 138 258 z "},"≠":{"ha":850,"x_min":107,"x_max":740,"o":"m 524 528 l 338 279 l 700 279 l 693 233 l 304 233 l 175 63 l 147 76 l 267 233 l 107 233 l 113 279 l 300 279 l 486 528 l 147 528 l 153 574 l 521 574 l 632 722 l 658 708 l 558 574 l 740 574 l 733 528 l 524 528 z "},"≤":{"ha":807,"x_min":76,"x_max":718,"o":"m 711 667 l 186 485 l 661 318 l 656 274 l 129 461 l 136 508 l 718 717 l 711 667 m 660 136 l 76 136 l 83 181 l 667 181 l 660 136 z "},"≥":{"ha":803,"x_min":72,"x_max":693,"o":"m 693 508 l 686 461 l 108 274 l 115 321 l 638 489 l 165 672 l 171 717 l 693 508 m 656 136 l 72 136 l 79 181 l 663 181 l 656 136 z "},"◊":{"ha":811,"x_min":71,"x_max":761,"o":"m 72 493 l 474 963 q 494 961 486 975 l 761 489 q 760 468 765 479 l 360 -4 q 339 -3 346 -17 l 71 472 q 72 493 67 483 m 122 479 l 356 61 l 710 483 l 479 899 l 122 479 z "},"ﬁ":{"ha":778,"x_min":-175,"x_max":729,"o":"m 688 669 l 592 0 l 538 0 l 625 621 l 251 621 l 149 -101 q 91 -243 136 -197 q -43 -289 46 -289 q -175 -282 -103 -289 l -169 -240 l -61 -240 q 49 -208 14 -240 q 94 -94 83 -176 l 194 621 l 74 621 l 79 663 l 201 668 l 221 803 q 281 947 233 900 q 424 993 328 993 q 589 986 531 993 l 586 944 l 442 944 q 324 910 363 944 q 275 796 286 876 l 257 669 l 688 669 m 685 949 l 708 949 q 729 925 732 949 l 717 840 q 694 821 715 821 l 669 821 q 649 844 646 821 l 661 928 q 685 949 664 949 z "},"ﬂ":{"ha":865,"x_min":-175,"x_max":801,"o":"m 800 38 l 801 1 q 704 -10 771 -10 q 601 29 636 -10 q 575 138 565 68 l 689 946 l 442 946 q 324 912 363 946 q 275 796 286 878 l 257 669 l 483 669 l 476 621 l 251 621 l 149 -101 q 91 -243 136 -197 q -43 -289 46 -289 q -175 -282 -103 -289 l -169 -240 l -61 -240 q 49 -208 14 -240 q 94 -94 83 -176 l 194 621 l 74 621 l 79 663 l 201 668 l 221 803 q 281 947 233 900 q 424 993 328 993 q 747 982 699 988 l 632 142 q 721 38 615 38 l 800 38 z "}}}
